<svg width="65" height="48" viewBox="0 0 65 48" fill="none" xmlns="http://www.w3.org/2000/svg">
<g clip-path="url(#clip0_21_64)">
<path d="M28.5 48C28.5 48 24.5 48 24.5 44C24.5 40 28.5 28 44.5 28C60.5 28 64.5 40 64.5 44C64.5 48 60.5 48 60.5 48H28.5ZM44.5 24C47.6826 24 50.7348 22.7357 52.9853 20.4853C55.2357 18.2348 56.5 15.1826 56.5 12C56.5 8.8174 55.2357 5.76516 52.9853 3.51472C50.7348 1.26428 47.6826 0 44.5 0C41.3174 0 38.2652 1.26428 36.0147 3.51472C33.7643 5.76516 32.5 8.8174 32.5 12C32.5 15.1826 33.7643 18.2348 36.0147 20.4853C38.2652 22.7357 41.3174 24 44.5 24Z" fill="white"/>
<path fill-rule="evenodd" clip-rule="evenodd" d="M21.364 48C20.771 46.7513 20.4753 45.3822 20.5 44C20.5 38.58 23.22 33 28.244 29.12C25.7364 28.3473 23.1238 27.9695 20.5 28C4.5 28 0.5 40 0.5 44C0.5 48 4.5 48 4.5 48H21.364Z" fill="white"/>
<path d="M18.5 24C21.1522 24 23.6957 22.9464 25.5711 21.0711C27.4464 19.1957 28.5 16.6522 28.5 14C28.5 11.3478 27.4464 8.8043 25.5711 6.92893C23.6957 5.05357 21.1522 4 18.5 4C15.8478 4 13.3043 5.05357 11.4289 6.92893C9.55357 8.8043 8.5 11.3478 8.5 14C8.5 16.6522 9.55357 19.1957 11.4289 21.0711C13.3043 22.9464 15.8478 24 18.5 24Z" fill="white"/>
</g>
<defs>
<clipPath id="clip0_21_64">
<rect width="64" height="48" fill="white" transform="translate(0.5)"/>
</clipPath>
</defs>
</svg>
