<svg width="196" height="26" viewBox="0 0 196 26" fill="none" xmlns="http://www.w3.org/2000/svg">
<path d="M28.204 20.148C28.6893 20.148 29.156 19.8867 29.604 19.364L30.024 19.7C29.968 19.7747 29.8933 19.868 29.8 19.98C29.7067 20.092 29.4733 20.2413 29.1 20.428C28.7453 20.6147 28.3533 20.708 27.924 20.708C25.8333 20.708 24.788 19.8027 24.788 17.992C24.788 17.432 24.8533 16.6013 24.984 15.5C24.088 15.78 23.2853 15.92 22.576 15.92C21.3253 15.92 20.0747 15.5373 18.824 14.772C18.096 16.0227 17.4147 17.096 16.78 17.992C16.1453 18.8693 15.408 19.728 14.568 20.568C12.832 22.2667 10.732 23.116 8.268 23.116C5.82267 23.116 3.872 22.332 2.416 20.764C1.128 19.3267 0.484 17.5813 0.484 15.528C0.484 13.456 1.14667 11.6173 2.472 10.012C3.79733 8.40667 5.51467 7.604 7.624 7.604C9.73333 7.604 11.3387 8.22933 12.44 9.48C12.7013 9.816 12.888 10.068 13 10.236C14.008 10.6653 15.156 11.3747 16.444 12.364C17.4147 13.148 18.1333 13.6893 18.6 13.988C18.8613 13.5027 19.216 12.8493 19.664 12.028C20.1307 11.2067 20.4853 10.5813 20.728 10.152C20.9707 9.72267 21.3347 9.116 21.82 8.332C22.3053 7.548 22.6973 6.96 22.996 6.568C23.3133 6.15733 23.724 5.65333 24.228 5.056C24.7507 4.44 25.2267 3.98267 25.656 3.684C26.944 2.76933 28.0267 2.23733 28.904 2.088C29.3893 2.01333 29.8 1.976 30.136 1.976C30.472 1.976 30.8453 1.98533 31.256 2.004C31.6667 2.004 32.2453 2.10667 32.992 2.312L32.852 2.844C32.404 2.71333 31.928 2.62 31.424 2.564C29.5573 9.9 28.484 15.7613 28.204 20.148ZM13.896 13.484C13.896 14.8653 13.4947 16.088 12.692 17.152C11.908 18.216 10.844 18.748 9.5 18.748C8.62267 18.748 7.904 18.4867 7.344 17.964C6.80267 17.4413 6.532 16.9 6.532 16.34C6.532 15.78 6.616 15.3227 6.784 14.968C6.952 14.5947 7.13867 14.3147 7.344 14.128C7.568 13.9413 7.81067 13.792 8.072 13.68C8.42667 13.4933 8.70667 13.4 8.912 13.4L8.968 13.96C8.50133 13.96 8.072 14.184 7.68 14.632C7.288 15.08 7.092 15.584 7.092 16.144C7.092 16.704 7.30667 17.1893 7.736 17.6C8.184 17.992 8.772 18.188 9.5 18.188C10.6947 18.188 11.6373 17.7213 12.328 16.788C13.0187 15.8547 13.364 14.8187 13.364 13.68C13.364 12.5413 13.1307 11.552 12.664 10.712C11.6373 10.32 10.62 10.124 9.612 10.124C7.67067 10.124 6.29867 11.0293 5.496 12.84L4.964 12.672C5.16933 12.2053 5.496 11.7013 5.944 11.16C6.82133 10.096 8.044 9.564 9.612 9.564C10.452 9.564 11.2827 9.68533 12.104 9.928L12.048 9.844C11.0213 8.724 9.53733 8.164 7.596 8.164C5.67333 8.164 4.096 8.91067 2.864 10.404C1.65067 11.8973 1.044 13.6147 1.044 15.556C1.044 17.4787 1.64133 19.084 2.836 20.372C4.18 21.828 6.056 22.556 8.464 22.556C10.6667 22.556 12.5893 21.7253 14.232 20.064C15.0533 19.2613 15.7627 18.4307 16.36 17.572C16.976 16.7133 17.6387 15.6773 18.348 14.464C17.7133 14.0533 16.9387 13.4933 16.024 12.784C15.128 12.056 14.26 11.4773 13.42 11.048C13.7373 11.832 13.896 12.644 13.896 13.484ZM19.104 14.296C20.2987 15.0053 21.3907 15.36 22.38 15.36C23.388 15.36 24.284 15.2013 25.068 14.884C25.516 11.7293 26.356 7.80933 27.588 3.124C26.0947 3.83333 24.7227 5.09333 23.472 6.904C22.5573 8.21067 21.456 10.0307 20.168 12.364L19.104 14.296ZM43.5075 18.692C43.9555 18.692 44.4222 18.4307 44.9075 17.908L45.3275 18.244C45.1969 18.5053 44.9075 18.7387 44.4595 18.944C44.0115 19.1493 43.5169 19.252 42.9755 19.252C41.2769 19.252 40.4275 18.4867 40.4275 16.956C40.4275 16.3027 40.5955 15.136 40.9315 13.456C41.2675 11.776 41.4355 10.6747 41.4355 10.152C41.4355 9.34933 41.0529 8.948 40.2875 8.948C39.6715 8.948 39.0742 9.34933 38.4955 10.152C37.9355 10.9547 37.4689 12.056 37.0955 13.456L36.1435 18.692C36.7222 18.636 37.1982 18.3747 37.5715 17.908L37.9915 18.244C37.4315 18.916 36.7315 19.252 35.8915 19.252C35.0515 19.252 34.3889 19.0373 33.9035 18.608C33.4369 18.1787 33.2035 17.6187 33.2035 16.928C33.2035 16.6667 33.3529 15.64 33.6515 13.848L34.5755 8.668C34.0155 8.724 33.5489 8.98533 33.1755 9.452L32.7555 9.116C33.3155 8.444 34.0155 8.108 34.8555 8.108C35.7142 8.108 36.3769 8.32267 36.8435 8.752C37.3102 9.18133 37.5435 9.788 37.5435 10.572V10.74C38.3089 8.98533 39.5035 8.108 41.1275 8.108C42.2289 8.108 43.0875 8.42533 43.7035 9.06C44.3195 9.676 44.6275 10.5347 44.6275 11.636C44.6275 12.2147 44.4502 13.3347 44.0955 14.996C43.7409 16.6387 43.5449 17.8707 43.5075 18.692ZM57.4802 18.692C57.9282 18.692 58.3949 18.4307 58.8802 17.908L59.3002 18.244C59.1695 18.5053 58.8802 18.7387 58.4322 18.944C57.9842 19.1493 57.4895 19.252 56.9482 19.252C55.2495 19.252 54.4002 18.4867 54.4002 16.956C54.4002 16.3027 54.5682 15.136 54.9042 13.456C55.2402 11.776 55.4082 10.6747 55.4082 10.152C55.4082 9.34933 55.0255 8.948 54.2602 8.948C53.6442 8.948 53.0469 9.34933 52.4682 10.152C51.9082 10.9547 51.4415 12.056 51.0682 13.456L50.1162 18.692C50.6949 18.636 51.1709 18.3747 51.5442 17.908L51.9642 18.244C51.4042 18.916 50.7042 19.252 49.8642 19.252C49.0242 19.252 48.3615 19.0373 47.8762 18.608C47.4095 18.1787 47.1762 17.6187 47.1762 16.928C47.1762 16.6667 47.3255 15.64 47.6242 13.848L48.5482 8.668C47.9882 8.724 47.5215 8.98533 47.1482 9.452L46.7282 9.116C47.2882 8.444 47.9882 8.108 48.8282 8.108C49.6869 8.108 50.3495 8.32267 50.8162 8.752C51.2829 9.18133 51.5162 9.788 51.5162 10.572V10.74C52.2815 8.98533 53.4762 8.108 55.1002 8.108C56.2015 8.108 57.0602 8.42533 57.6762 9.06C58.2922 9.676 58.6002 10.5347 58.6002 11.636C58.6002 12.2147 58.4229 13.3347 58.0682 14.996C57.7135 16.6387 57.5175 17.8707 57.4802 18.692ZM70.5008 19.252C68.8582 19.252 67.9622 18.5333 67.8128 17.096C66.9915 18.5333 65.9555 19.252 64.7048 19.252C63.4542 19.252 62.4555 18.8787 61.7088 18.132C60.9808 17.3667 60.6168 16.3027 60.6168 14.94C60.6168 12.812 61.1395 11.1413 62.1848 9.928C63.2302 8.71467 64.5835 8.108 66.2448 8.108C67.6075 8.108 68.5128 8.752 68.9608 10.04C69.0542 9.48 69.1568 8.92 69.2688 8.36C70.6502 8.36 71.6768 8.304 72.3488 8.192L72.7128 8.108L70.7808 18.692C71.3408 18.636 71.8075 18.3747 72.1808 17.908L72.6008 18.244C72.0408 18.916 71.3408 19.252 70.5008 19.252ZM63.7808 16.368C63.7808 17.208 63.8835 17.796 64.0888 18.132C64.3128 18.4493 64.6488 18.608 65.0968 18.608C65.5448 18.608 66.0022 18.3653 66.4688 17.88C67.0848 17.2453 67.5795 16.4427 67.9528 15.472C68.0088 15.2293 68.1115 14.6507 68.2608 13.736C68.4288 12.8027 68.5688 12.0373 68.6808 11.44C68.6248 10.7307 68.4288 10.1147 68.0928 9.592C67.7568 9.06933 67.3368 8.808 66.8328 8.808C65.9182 8.808 65.1808 9.62933 64.6208 11.272C64.0608 12.896 63.7808 14.5947 63.7808 16.368ZM94.7563 3.516C93.2816 2.88133 91.6763 2.564 89.9403 2.564C88.2229 2.564 86.8229 3.11467 85.7403 4.216C84.6763 5.31733 84.1443 6.75467 84.1443 8.528H83.5283C83.5283 6.58667 84.1256 5.00933 85.3203 3.796C86.5149 2.564 88.0456 1.948 89.9123 1.948C91.4056 1.948 93.0203 2.23733 94.7563 2.816C96.7536 3.544 98.9189 3.908 101.252 3.908V4.496C99.8523 4.496 98.7323 4.43067 97.8923 4.3C97.8736 4.37467 97.8083 4.68267 97.6963 5.224C97.0056 8.28533 96.4456 10.7213 96.0163 12.532H103.52L106.376 0.379999H106.964L103.044 17.208C102.876 17.8987 102.792 18.3653 102.792 18.608C102.792 19.392 103.156 19.784 103.884 19.784C104.407 19.784 104.864 19.5133 105.256 18.972L105.648 19.308C105.518 19.5507 105.284 19.7747 104.948 19.98C104.612 20.204 104.202 20.316 103.716 20.316C103.25 20.316 102.876 20.1573 102.596 19.84C102.335 19.5227 102.204 19.14 102.204 18.692L102.54 16.844L103.408 13.036H95.8763C95.6709 13.82 95.4656 14.6693 95.2603 15.584C95.0549 16.4987 94.8029 17.3947 94.5043 18.272C94.2243 19.1493 93.8323 20.0547 93.3283 20.988C92.8243 21.9213 92.2549 22.6773 91.6203 23.256C91.0043 23.8533 90.2203 24.3387 89.2683 24.712C88.3349 25.104 87.3176 25.3 86.2163 25.3C85.1336 25.3 84.1069 25.0947 83.1363 24.684C82.1656 24.2733 81.3536 23.704 80.7003 22.976C79.5803 21.688 79.0203 20.1293 79.0203 18.3C79.0203 18.0013 79.0296 17.7027 79.0483 17.404L79.6643 17.488C79.6456 17.7493 79.6363 18.0107 79.6363 18.272C79.6363 20.008 80.1589 21.4547 81.2043 22.612C82.2683 23.788 83.6963 24.376 85.4883 24.376C87.2803 24.376 88.5403 23.9 89.2683 22.948C89.9963 21.996 90.6869 20.1667 91.3403 17.46C92.0123 14.7533 93.1509 10.1053 94.7563 3.516ZM117.532 19.252C115.889 19.252 114.993 18.5333 114.844 17.096C114.023 18.5333 112.987 19.252 111.736 19.252C110.485 19.252 109.487 18.8787 108.74 18.132C108.012 17.3667 107.648 16.3027 107.648 14.94C107.648 12.812 108.171 11.1413 109.216 9.928C110.261 8.71467 111.615 8.108 113.276 8.108C114.639 8.108 115.544 8.752 115.992 10.04C116.085 9.48 116.188 8.92 116.3 8.36C117.681 8.36 118.708 8.304 119.38 8.192L119.744 8.108L117.812 18.692C118.372 18.636 118.839 18.3747 119.212 17.908L119.632 18.244C119.072 18.916 118.372 19.252 117.532 19.252ZM110.812 16.368C110.812 17.208 110.915 17.796 111.12 18.132C111.344 18.4493 111.68 18.608 112.128 18.608C112.576 18.608 113.033 18.3653 113.5 17.88C114.116 17.2453 114.611 16.4427 114.984 15.472C115.04 15.2293 115.143 14.6507 115.292 13.736C115.46 12.8027 115.6 12.0373 115.712 11.44C115.656 10.7307 115.46 10.1147 115.124 9.592C114.788 9.06933 114.368 8.808 113.864 8.808C112.949 8.808 112.212 9.62933 111.652 11.272C111.092 12.896 110.812 14.5947 110.812 16.368ZM121.379 9.116C121.939 8.444 122.639 8.108 123.479 8.108C124.337 8.108 125 8.32267 125.467 8.752C125.933 9.18133 126.167 9.788 126.167 10.572V10.74C127.007 8.98533 128.099 8.108 129.443 8.108C130.88 8.108 131.599 8.85467 131.599 10.348C131.599 10.964 131.393 11.6173 130.983 12.308C130.572 12.9987 130.161 13.6613 129.751 14.296C129.34 14.912 129.135 15.4627 129.135 15.948H128.463C128.463 15.2573 128.864 14.324 129.667 13.148C130.469 11.972 130.871 11.0667 130.871 10.432C130.871 9.77867 130.74 9.34 130.479 9.116C130.236 8.87333 129.863 8.752 129.359 8.752C128.873 8.752 128.388 8.96667 127.903 9.396C127.436 9.82533 127.044 10.3667 126.727 11.02C126.223 11.9907 125.887 12.784 125.719 13.4V13.428L124.711 19H121.351L123.199 8.668C122.639 8.724 122.172 8.98533 121.799 9.452L121.379 9.116ZM136.207 13.596L135.199 19H131.867L135.031 1.416C134.471 1.472 134.005 1.73333 133.631 2.2L133.211 1.864C133.771 1.192 134.471 0.856 135.311 0.856C136.17 0.856 136.833 1.07067 137.299 1.5C137.766 1.92933 137.999 2.536 137.999 3.32C137.999 3.46933 137.981 3.712 137.943 4.048C137.514 6.41867 137.047 8.976 136.543 11.72C137.01 10.5813 137.682 9.69467 138.559 9.06C139.437 8.42533 140.37 8.108 141.359 8.108C142.349 8.108 143.039 8.304 143.431 8.696C143.842 9.088 144.047 9.58267 144.047 10.18C144.047 10.7587 143.87 11.2347 143.515 11.608C143.161 11.9813 142.694 12.168 142.115 12.168C141.555 12.168 141.117 12.0093 140.799 11.692C140.501 11.356 140.351 10.8707 140.351 10.236C140.351 9.58267 140.575 9.088 141.023 8.752C139.231 8.95733 137.803 10.2827 136.739 12.728C137.001 12.6907 137.225 12.672 137.411 12.672C138.401 12.672 139.175 12.868 139.735 13.26C140.314 13.652 140.687 14.1373 140.855 14.716C141.023 15.276 141.145 15.8453 141.219 16.424C141.294 16.984 141.415 17.46 141.583 17.852C141.751 18.244 142.05 18.44 142.479 18.44C142.909 18.44 143.245 18.2627 143.487 17.908L143.907 18.244C143.777 18.5053 143.487 18.7387 143.039 18.944C142.591 19.1493 142.013 19.252 141.303 19.252C140.613 19.252 139.997 19.0747 139.455 18.72C138.933 18.3653 138.569 17.9267 138.363 17.404C138.158 16.8627 137.99 16.3307 137.859 15.808C137.505 14.464 136.954 13.7267 136.207 13.596ZM147.064 8.668C146.616 8.668 146.149 8.92933 145.664 9.452L145.244 9.116C145.374 8.85467 145.664 8.62133 146.112 8.416C146.56 8.21067 147.054 8.108 147.596 8.108C149.294 8.108 150.144 8.87333 150.144 10.404C150.144 11.0573 149.976 12.224 149.64 13.904C149.304 15.584 149.136 16.6853 149.136 17.208C149.136 18.0107 149.518 18.412 150.284 18.412C150.825 18.412 151.348 18.0947 151.852 17.46C152.374 16.8253 152.822 15.948 153.196 14.828L154.372 8.36C155.753 8.36 156.761 8.304 157.396 8.192L157.76 8.108L155.884 18.692C156.444 18.636 156.91 18.3747 157.284 17.908L157.704 18.244C157.144 18.916 156.444 19.252 155.604 19.252C154.764 19.252 154.11 19.0467 153.644 18.636C153.177 18.2253 152.934 17.6467 152.916 16.9C152.132 18.468 150.974 19.252 149.444 19.252C148.342 19.252 147.484 18.944 146.868 18.328C146.252 17.6933 145.944 16.8253 145.944 15.724C145.944 15.1453 146.121 14.0347 146.476 12.392C146.83 10.7307 147.026 9.48933 147.064 8.668ZM161.932 18.524C163.78 18.524 164.704 17.1613 164.704 14.436C164.704 13.764 164.602 12.9707 164.396 12.056C164.21 11.1413 164.098 10.572 164.06 10.348C162.922 11.524 161.643 12.2333 160.224 12.476V11.804C161.568 11.5053 162.828 10.74 164.004 9.508V9.396C164.004 8.948 164.07 8.50933 164.2 8.08C164.331 7.65067 164.462 7.33333 164.592 7.128L164.788 6.82H165.46C165.46 7.64133 165.591 8.39733 165.852 9.088C166.114 9.76 166.403 10.3107 166.72 10.74C167.038 11.1507 167.327 11.7013 167.588 12.392C167.85 13.064 167.98 13.8107 167.98 14.632C167.98 15.9573 167.476 17.0587 166.468 17.936C165.479 18.8133 164.284 19.252 162.884 19.252C161.484 19.252 160.42 18.9347 159.692 18.3C158.983 17.6653 158.628 16.9373 158.628 16.116C158.628 15.276 158.834 14.6787 159.244 14.324C159.655 13.9507 160.14 13.764 160.7 13.764C161.26 13.764 161.718 13.9507 162.072 14.324C162.446 14.6787 162.632 15.1453 162.632 15.724C162.632 16.284 162.455 16.76 162.1 17.152C161.746 17.544 161.288 17.74 160.728 17.74C160.486 17.74 160.234 17.7027 159.972 17.628C160.383 18.2253 161.036 18.524 161.932 18.524ZM180.109 18.692C180.557 18.692 181.024 18.4307 181.509 17.908L181.929 18.244C181.798 18.5053 181.509 18.7387 181.061 18.944C180.613 19.1493 180.118 19.252 179.577 19.252C177.878 19.252 177.029 18.4867 177.029 16.956C177.029 16.3027 177.197 15.136 177.533 13.456C177.869 11.776 178.037 10.6747 178.037 10.152C178.037 9.34933 177.654 8.948 176.889 8.948C176.254 8.948 175.638 9.37733 175.041 10.236C174.462 11.0947 173.986 12.2613 173.613 13.736L172.689 19H169.329L172.437 1.416C171.877 1.472 171.41 1.73333 171.037 2.2L170.617 1.864C171.177 1.192 171.877 0.856 172.717 0.856C173.576 0.856 174.238 1.07067 174.705 1.5C175.172 1.92933 175.405 2.536 175.405 3.32C175.405 3.46933 175.386 3.712 175.349 4.048L174.173 10.684C174.938 8.96667 176.124 8.108 177.729 8.108C178.83 8.108 179.689 8.42533 180.305 9.06C180.921 9.676 181.229 10.5347 181.229 11.636C181.229 12.2147 181.052 13.3347 180.697 14.996C180.342 16.6387 180.146 17.8707 180.109 18.692ZM193.138 19.252C191.495 19.252 190.599 18.5333 190.45 17.096C189.628 18.5333 188.592 19.252 187.342 19.252C186.091 19.252 185.092 18.8787 184.346 18.132C183.618 17.3667 183.254 16.3027 183.254 14.94C183.254 12.812 183.776 11.1413 184.822 9.928C185.867 8.71467 187.22 8.108 188.882 8.108C190.244 8.108 191.15 8.752 191.598 10.04C191.691 9.48 191.794 8.92 191.906 8.36C193.287 8.36 194.314 8.304 194.986 8.192L195.35 8.108L193.418 18.692C193.978 18.636 194.444 18.3747 194.818 17.908L195.238 18.244C194.678 18.916 193.978 19.252 193.138 19.252ZM186.418 16.368C186.418 17.208 186.52 17.796 186.726 18.132C186.95 18.4493 187.286 18.608 187.734 18.608C188.182 18.608 188.639 18.3653 189.106 17.88C189.722 17.2453 190.216 16.4427 190.59 15.472C190.646 15.2293 190.748 14.6507 190.898 13.736C191.066 12.8027 191.206 12.0373 191.318 11.44C191.262 10.7307 191.066 10.1147 190.73 9.592C190.394 9.06933 189.974 8.808 189.47 8.808C188.555 8.808 187.818 9.62933 187.258 11.272C186.698 12.896 186.418 14.5947 186.418 16.368Z" fill="black"/>
</svg>
