<svg width="261" height="42" viewBox="0 0 261 42" fill="none" xmlns="http://www.w3.org/2000/svg">
<g filter="url(#filter0_d_46_218)">
<mask id="path-1-outside-1_46_218" maskUnits="userSpaceOnUse" x="4.33789" y="4" width="252" height="34" fill="black">
<rect fill="white" x="4.33789" y="4" width="252" height="34"/>
<path d="M40.8859 30.476C41.5099 30.476 42.1099 30.14 42.6859 29.468L43.2259 29.9C43.1539 29.996 43.0579 30.116 42.9379 30.26C42.8179 30.404 42.5179 30.596 42.0379 30.836C41.5819 31.076 41.0779 31.196 40.5259 31.196C37.8379 31.196 36.4939 30.032 36.4939 27.704C36.4939 26.984 36.5779 25.916 36.7459 24.5C35.5939 24.86 34.5619 25.04 33.6499 25.04C32.0419 25.04 30.4339 24.548 28.8259 23.564C27.8899 25.172 27.0139 26.552 26.1979 27.704C25.3819 28.832 24.4339 29.936 23.3539 31.016C21.1219 33.2 18.4219 34.292 15.2539 34.292C12.1099 34.292 9.60189 33.284 7.72989 31.268C6.07389 29.42 5.24589 27.176 5.24589 24.536C5.24589 21.872 6.09789 19.508 7.80189 17.444C9.50589 15.38 11.7139 14.348 14.4259 14.348C17.1379 14.348 19.2019 15.152 20.6179 16.76C20.9539 17.192 21.1939 17.516 21.3379 17.732C22.6339 18.284 24.1099 19.196 25.7659 20.468C27.0139 21.476 27.9379 22.172 28.5379 22.556C28.8739 21.932 29.3299 21.092 29.9059 20.036C30.5059 18.98 30.9619 18.176 31.2739 17.624C31.5859 17.072 32.0539 16.292 32.6779 15.284C33.3019 14.276 33.8059 13.52 34.1899 13.016C34.5979 12.488 35.1259 11.84 35.7739 11.072C36.4459 10.28 37.0579 9.692 37.6099 9.308C39.2659 8.132 40.6579 7.448 41.7859 7.256C42.4099 7.16 42.9379 7.112 43.3699 7.112C43.8019 7.112 44.2819 7.124 44.8099 7.148C45.3379 7.148 46.0819 7.28 47.0419 7.544L46.8619 8.228C46.2859 8.06 45.6739 7.94 45.0259 7.868C42.6259 17.3 41.2459 24.836 40.8859 30.476ZM22.4899 21.908C22.4899 23.684 21.9739 25.256 20.9419 26.624C19.9339 27.992 18.5659 28.676 16.8379 28.676C15.7099 28.676 14.7859 28.34 14.0659 27.668C13.3699 26.996 13.0219 26.3 13.0219 25.58C13.0219 24.86 13.1299 24.272 13.3459 23.816C13.5619 23.336 13.8019 22.976 14.0659 22.736C14.3539 22.496 14.6659 22.304 15.0019 22.16C15.4579 21.92 15.8179 21.8 16.0819 21.8L16.1539 22.52C15.5539 22.52 15.0019 22.808 14.4979 23.384C13.9939 23.96 13.7419 24.608 13.7419 25.328C13.7419 26.048 14.0179 26.672 14.5699 27.2C15.1459 27.704 15.9019 27.956 16.8379 27.956C18.3739 27.956 19.5859 27.356 20.4739 26.156C21.3619 24.956 21.8059 23.624 21.8059 22.16C21.8059 20.696 21.5059 19.424 20.9059 18.344C19.5859 17.84 18.2779 17.588 16.9819 17.588C14.4859 17.588 12.7219 18.752 11.6899 21.08L11.0059 20.864C11.2699 20.264 11.6899 19.616 12.2659 18.92C13.3939 17.552 14.9659 16.868 16.9819 16.868C18.0619 16.868 19.1299 17.024 20.1859 17.336L20.1139 17.228C18.7939 15.788 16.8859 15.068 14.3899 15.068C11.9179 15.068 9.88989 16.028 8.30589 17.948C6.74589 19.868 5.96589 22.076 5.96589 24.572C5.96589 27.044 6.73389 29.108 8.26989 30.764C9.99789 32.636 12.4099 33.572 15.5059 33.572C18.3379 33.572 20.8099 32.504 22.9219 30.368C23.9779 29.336 24.8899 28.268 25.6579 27.164C26.4499 26.06 27.3019 24.728 28.2139 23.168C27.3979 22.64 26.4019 21.92 25.2259 21.008C24.0739 20.072 22.9579 19.328 21.8779 18.776C22.2859 19.784 22.4899 20.828 22.4899 21.908ZM29.1859 22.952C30.7219 23.864 32.1259 24.32 33.3979 24.32C34.6939 24.32 35.8459 24.116 36.8539 23.708C37.4299 19.652 38.5099 14.612 40.0939 8.588C38.1739 9.5 36.4099 11.12 34.8019 13.448C33.6259 15.128 32.2099 17.468 30.5539 20.468L29.1859 22.952ZM60.5619 28.604C61.1379 28.604 61.7379 28.268 62.3619 27.596L62.9019 28.028C62.7339 28.364 62.3619 28.664 61.7859 28.928C61.2099 29.192 60.5739 29.324 59.8779 29.324C57.6939 29.324 56.6019 28.34 56.6019 26.372C56.6019 25.532 56.8179 24.032 57.2499 21.872C57.6819 19.712 57.8979 18.296 57.8979 17.624C57.8979 16.592 57.4059 16.076 56.4219 16.076C55.6299 16.076 54.8619 16.592 54.1179 17.624C53.3979 18.656 52.7979 20.072 52.3179 21.872L51.0939 28.604C51.8379 28.532 52.4499 28.196 52.9299 27.596L53.4699 28.028C52.7499 28.892 51.8499 29.324 50.7699 29.324C49.6899 29.324 48.8379 29.048 48.2139 28.496C47.6139 27.944 47.3139 27.224 47.3139 26.336C47.3139 26 47.5059 24.68 47.8899 22.376L49.0779 15.716C48.3579 15.788 47.7579 16.124 47.2779 16.724L46.7379 16.292C47.4579 15.428 48.3579 14.996 49.4379 14.996C50.5419 14.996 51.3939 15.272 51.9939 15.824C52.5939 16.376 52.8939 17.156 52.8939 18.164V18.38C53.8779 16.124 55.4139 14.996 57.5019 14.996C58.9179 14.996 60.0219 15.404 60.8139 16.22C61.6059 17.012 62.0019 18.116 62.0019 19.532C62.0019 20.276 61.7739 21.716 61.3179 23.852C60.8619 25.964 60.6099 27.548 60.5619 28.604ZM78.5267 28.604C79.1027 28.604 79.7027 28.268 80.3267 27.596L80.8667 28.028C80.6987 28.364 80.3267 28.664 79.7507 28.928C79.1747 29.192 78.5387 29.324 77.8427 29.324C75.6587 29.324 74.5667 28.34 74.5667 26.372C74.5667 25.532 74.7827 24.032 75.2147 21.872C75.6467 19.712 75.8627 18.296 75.8627 17.624C75.8627 16.592 75.3707 16.076 74.3867 16.076C73.5947 16.076 72.8267 16.592 72.0827 17.624C71.3627 18.656 70.7627 20.072 70.2827 21.872L69.0587 28.604C69.8027 28.532 70.4147 28.196 70.8947 27.596L71.4347 28.028C70.7147 28.892 69.8147 29.324 68.7347 29.324C67.6547 29.324 66.8027 29.048 66.1787 28.496C65.5787 27.944 65.2787 27.224 65.2787 26.336C65.2787 26 65.4707 24.68 65.8547 22.376L67.0427 15.716C66.3227 15.788 65.7227 16.124 65.2427 16.724L64.7027 16.292C65.4227 15.428 66.3227 14.996 67.4027 14.996C68.5067 14.996 69.3587 15.272 69.9587 15.824C70.5587 16.376 70.8587 17.156 70.8587 18.164V18.38C71.8427 16.124 73.3787 14.996 75.4667 14.996C76.8827 14.996 77.9867 15.404 78.7787 16.22C79.5707 17.012 79.9667 18.116 79.9667 19.532C79.9667 20.276 79.7387 21.716 79.2827 23.852C78.8267 25.964 78.5747 27.548 78.5267 28.604ZM95.2675 29.324C93.1555 29.324 92.0035 28.4 91.8115 26.552C90.7555 28.4 89.4235 29.324 87.8155 29.324C86.2075 29.324 84.9235 28.844 83.9635 27.884C83.0275 26.9 82.5595 25.532 82.5595 23.78C82.5595 21.044 83.2315 18.896 84.5755 17.336C85.9195 15.776 87.6595 14.996 89.7955 14.996C91.5475 14.996 92.7115 15.824 93.2875 17.48C93.4075 16.76 93.5395 16.04 93.6835 15.32C95.4595 15.32 96.7795 15.248 97.6435 15.104L98.1115 14.996L95.6275 28.604C96.3475 28.532 96.9475 28.196 97.4275 27.596L97.9675 28.028C97.2475 28.892 96.3475 29.324 95.2675 29.324ZM86.6275 25.616C86.6275 26.696 86.7595 27.452 87.0235 27.884C87.3115 28.292 87.7435 28.496 88.3195 28.496C88.8955 28.496 89.4835 28.184 90.0835 27.56C90.8755 26.744 91.5115 25.712 91.9915 24.464C92.0635 24.152 92.1955 23.408 92.3875 22.232C92.6035 21.032 92.7835 20.048 92.9275 19.28C92.8555 18.368 92.6035 17.576 92.1715 16.904C91.7395 16.232 91.1995 15.896 90.5515 15.896C89.3755 15.896 88.4275 16.952 87.7075 19.064C86.9875 21.152 86.6275 23.336 86.6275 25.616ZM126.453 9.092C124.557 8.276 122.493 7.868 120.261 7.868C118.053 7.868 116.253 8.576 114.861 9.992C113.493 11.408 112.809 13.256 112.809 15.536H112.017C112.017 13.04 112.785 11.012 114.321 9.452C115.857 7.868 117.825 7.076 120.225 7.076C122.145 7.076 124.221 7.448 126.453 8.192C129.021 9.128 131.805 9.596 134.805 9.596V10.352C133.005 10.352 131.565 10.268 130.485 10.1C130.461 10.196 130.377 10.592 130.233 11.288C129.345 15.224 128.625 18.356 128.073 20.684H137.721L141.393 5.06H142.149L137.109 26.696C136.893 27.584 136.785 28.184 136.785 28.496C136.785 29.504 137.253 30.008 138.189 30.008C138.861 30.008 139.449 29.66 139.953 28.964L140.457 29.396C140.289 29.708 139.989 29.996 139.557 30.26C139.125 30.548 138.597 30.692 137.973 30.692C137.373 30.692 136.893 30.488 136.533 30.08C136.197 29.672 136.029 29.18 136.029 28.604L136.461 26.228L137.577 21.332H127.893C127.629 22.34 127.365 23.432 127.101 24.608C126.837 25.784 126.513 26.936 126.129 28.064C125.769 29.192 125.265 30.356 124.617 31.556C123.969 32.756 123.237 33.728 122.421 34.472C121.629 35.24 120.621 35.864 119.397 36.344C118.197 36.848 116.889 37.1 115.473 37.1C114.081 37.1 112.761 36.836 111.513 36.308C110.265 35.78 109.221 35.048 108.381 34.112C106.941 32.456 106.221 30.452 106.221 28.1C106.221 27.716 106.233 27.332 106.257 26.948L107.049 27.056C107.025 27.392 107.013 27.728 107.013 28.064C107.013 30.296 107.685 32.156 109.029 33.644C110.397 35.156 112.233 35.912 114.537 35.912C116.841 35.912 118.461 35.3 119.397 34.076C120.333 32.852 121.221 30.5 122.061 27.02C122.925 23.54 124.389 17.564 126.453 9.092ZM155.736 29.324C153.624 29.324 152.472 28.4 152.28 26.552C151.224 28.4 149.892 29.324 148.284 29.324C146.676 29.324 145.392 28.844 144.432 27.884C143.496 26.9 143.028 25.532 143.028 23.78C143.028 21.044 143.7 18.896 145.044 17.336C146.388 15.776 148.128 14.996 150.264 14.996C152.016 14.996 153.18 15.824 153.756 17.48C153.876 16.76 154.008 16.04 154.152 15.32C155.928 15.32 157.248 15.248 158.112 15.104L158.58 14.996L156.096 28.604C156.816 28.532 157.416 28.196 157.896 27.596L158.436 28.028C157.716 28.892 156.816 29.324 155.736 29.324ZM147.096 25.616C147.096 26.696 147.228 27.452 147.492 27.884C147.78 28.292 148.212 28.496 148.788 28.496C149.364 28.496 149.952 28.184 150.552 27.56C151.344 26.744 151.98 25.712 152.46 24.464C152.532 24.152 152.664 23.408 152.856 22.232C153.072 21.032 153.252 20.048 153.396 19.28C153.324 18.368 153.072 17.576 152.64 16.904C152.208 16.232 151.668 15.896 151.02 15.896C149.844 15.896 148.896 16.952 148.176 19.064C147.456 21.152 147.096 23.336 147.096 25.616ZM160.682 16.292C161.402 15.428 162.302 14.996 163.382 14.996C164.486 14.996 165.338 15.272 165.938 15.824C166.538 16.376 166.838 17.156 166.838 18.164V18.38C167.918 16.124 169.322 14.996 171.05 14.996C172.898 14.996 173.822 15.956 173.822 17.876C173.822 18.668 173.558 19.508 173.03 20.396C172.502 21.284 171.974 22.136 171.446 22.952C170.918 23.744 170.654 24.452 170.654 25.076H169.79C169.79 24.188 170.306 22.988 171.338 21.476C172.37 19.964 172.886 18.8 172.886 17.984C172.886 17.144 172.718 16.58 172.382 16.292C172.07 15.98 171.59 15.824 170.942 15.824C170.318 15.824 169.694 16.1 169.07 16.652C168.47 17.204 167.966 17.9 167.558 18.74C166.91 19.988 166.478 21.008 166.262 21.8V21.836L164.966 29H160.646L163.022 15.716C162.302 15.788 161.702 16.124 161.222 16.724L160.682 16.292ZM179.747 22.052L178.451 29H174.167L178.235 6.392C177.515 6.464 176.915 6.8 176.435 7.4L175.895 6.968C176.615 6.104 177.515 5.672 178.595 5.672C179.699 5.672 180.551 5.948 181.151 6.5C181.751 7.052 182.051 7.832 182.051 8.84C182.051 9.032 182.027 9.344 181.979 9.776C181.427 12.824 180.827 16.112 180.179 19.64C180.779 18.176 181.643 17.036 182.771 16.22C183.899 15.404 185.099 14.996 186.371 14.996C187.643 14.996 188.531 15.248 189.035 15.752C189.563 16.256 189.827 16.892 189.827 17.66C189.827 18.404 189.599 19.016 189.143 19.496C188.687 19.976 188.087 20.216 187.343 20.216C186.623 20.216 186.059 20.012 185.651 19.604C185.267 19.172 185.075 18.548 185.075 17.732C185.075 16.892 185.363 16.256 185.939 15.824C183.635 16.088 181.799 17.792 180.431 20.936C180.767 20.888 181.055 20.864 181.295 20.864C182.567 20.864 183.563 21.116 184.283 21.62C185.027 22.124 185.507 22.748 185.723 23.492C185.939 24.212 186.095 24.944 186.191 25.688C186.287 26.408 186.443 27.02 186.659 27.524C186.875 28.028 187.259 28.28 187.811 28.28C188.363 28.28 188.795 28.052 189.107 27.596L189.647 28.028C189.479 28.364 189.107 28.664 188.531 28.928C187.955 29.192 187.211 29.324 186.299 29.324C185.411 29.324 184.619 29.096 183.923 28.64C183.251 28.184 182.783 27.62 182.519 26.948C182.255 26.252 182.039 25.568 181.871 24.896C181.415 23.168 180.707 22.22 179.747 22.052ZM193.706 15.716C193.13 15.716 192.53 16.052 191.906 16.724L191.366 16.292C191.534 15.956 191.906 15.656 192.482 15.392C193.058 15.128 193.694 14.996 194.39 14.996C196.574 14.996 197.666 15.98 197.666 17.948C197.666 18.788 197.45 20.288 197.018 22.448C196.586 24.608 196.37 26.024 196.37 26.696C196.37 27.728 196.862 28.244 197.846 28.244C198.542 28.244 199.214 27.836 199.862 27.02C200.534 26.204 201.11 25.076 201.59 23.636L203.102 15.32C204.878 15.32 206.174 15.248 206.99 15.104L207.458 14.996L205.046 28.604C205.766 28.532 206.366 28.196 206.846 27.596L207.386 28.028C206.666 28.892 205.766 29.324 204.686 29.324C203.606 29.324 202.766 29.06 202.166 28.532C201.566 28.004 201.254 27.26 201.23 26.3C200.222 28.316 198.734 29.324 196.766 29.324C195.35 29.324 194.246 28.928 193.454 28.136C192.662 27.32 192.266 26.204 192.266 24.788C192.266 24.044 192.494 22.616 192.95 20.504C193.406 18.368 193.658 16.772 193.706 15.716ZM212.822 28.388C215.198 28.388 216.386 26.636 216.386 23.132C216.386 22.268 216.254 21.248 215.99 20.072C215.75 18.896 215.606 18.164 215.558 17.876C214.094 19.388 212.45 20.3 210.626 20.612V19.748C212.354 19.364 213.974 18.38 215.486 16.796V16.652C215.486 16.076 215.57 15.512 215.738 14.96C215.906 14.408 216.074 14 216.242 13.736L216.494 13.34H217.358C217.358 14.396 217.526 15.368 217.862 16.256C218.198 17.12 218.57 17.828 218.978 18.38C219.386 18.908 219.758 19.616 220.094 20.504C220.43 21.368 220.598 22.328 220.598 23.384C220.598 25.088 219.95 26.504 218.654 27.632C217.382 28.76 215.846 29.324 214.046 29.324C212.246 29.324 210.878 28.916 209.942 28.1C209.03 27.284 208.574 26.348 208.574 25.292C208.574 24.212 208.838 23.444 209.366 22.988C209.894 22.508 210.518 22.268 211.238 22.268C211.958 22.268 212.546 22.508 213.002 22.988C213.482 23.444 213.722 24.044 213.722 24.788C213.722 25.508 213.494 26.12 213.038 26.624C212.582 27.128 211.994 27.38 211.274 27.38C210.962 27.38 210.638 27.332 210.302 27.236C210.83 28.004 211.67 28.388 212.822 28.388ZM236.192 28.604C236.768 28.604 237.368 28.268 237.992 27.596L238.532 28.028C238.364 28.364 237.992 28.664 237.416 28.928C236.84 29.192 236.204 29.324 235.508 29.324C233.324 29.324 232.232 28.34 232.232 26.372C232.232 25.532 232.448 24.032 232.88 21.872C233.312 19.712 233.528 18.296 233.528 17.624C233.528 16.592 233.036 16.076 232.052 16.076C231.236 16.076 230.444 16.628 229.676 17.732C228.932 18.836 228.32 20.336 227.84 22.232L226.652 29H222.332L226.328 6.392C225.608 6.464 225.008 6.8 224.528 7.4L223.988 6.968C224.708 6.104 225.608 5.672 226.688 5.672C227.792 5.672 228.644 5.948 229.244 6.5C229.844 7.052 230.144 7.832 230.144 8.84C230.144 9.032 230.12 9.344 230.072 9.776L228.56 18.308C229.544 16.1 231.068 14.996 233.132 14.996C234.548 14.996 235.652 15.404 236.444 16.22C237.236 17.012 237.632 18.116 237.632 19.532C237.632 20.276 237.404 21.716 236.948 23.852C236.492 25.964 236.24 27.548 236.192 28.604ZM252.943 29.324C250.831 29.324 249.679 28.4 249.487 26.552C248.431 28.4 247.099 29.324 245.491 29.324C243.883 29.324 242.599 28.844 241.639 27.884C240.703 26.9 240.235 25.532 240.235 23.78C240.235 21.044 240.907 18.896 242.251 17.336C243.595 15.776 245.335 14.996 247.471 14.996C249.223 14.996 250.387 15.824 250.963 17.48C251.083 16.76 251.215 16.04 251.359 15.32C253.135 15.32 254.455 15.248 255.319 15.104L255.787 14.996L253.303 28.604C254.023 28.532 254.623 28.196 255.103 27.596L255.643 28.028C254.923 28.892 254.023 29.324 252.943 29.324ZM244.303 25.616C244.303 26.696 244.435 27.452 244.699 27.884C244.987 28.292 245.419 28.496 245.995 28.496C246.571 28.496 247.159 28.184 247.759 27.56C248.551 26.744 249.187 25.712 249.667 24.464C249.739 24.152 249.871 23.408 250.063 22.232C250.279 21.032 250.459 20.048 250.603 19.28C250.531 18.368 250.279 17.576 249.847 16.904C249.415 16.232 248.875 15.896 248.227 15.896C247.051 15.896 246.103 16.952 245.383 19.064C244.663 21.152 244.303 23.336 244.303 25.616Z"/>
</mask>
<path d="M40.8859 30.476C41.5099 30.476 42.1099 30.14 42.6859 29.468L43.2259 29.9C43.1539 29.996 43.0579 30.116 42.9379 30.26C42.8179 30.404 42.5179 30.596 42.0379 30.836C41.5819 31.076 41.0779 31.196 40.5259 31.196C37.8379 31.196 36.4939 30.032 36.4939 27.704C36.4939 26.984 36.5779 25.916 36.7459 24.5C35.5939 24.86 34.5619 25.04 33.6499 25.04C32.0419 25.04 30.4339 24.548 28.8259 23.564C27.8899 25.172 27.0139 26.552 26.1979 27.704C25.3819 28.832 24.4339 29.936 23.3539 31.016C21.1219 33.2 18.4219 34.292 15.2539 34.292C12.1099 34.292 9.60189 33.284 7.72989 31.268C6.07389 29.42 5.24589 27.176 5.24589 24.536C5.24589 21.872 6.09789 19.508 7.80189 17.444C9.50589 15.38 11.7139 14.348 14.4259 14.348C17.1379 14.348 19.2019 15.152 20.6179 16.76C20.9539 17.192 21.1939 17.516 21.3379 17.732C22.6339 18.284 24.1099 19.196 25.7659 20.468C27.0139 21.476 27.9379 22.172 28.5379 22.556C28.8739 21.932 29.3299 21.092 29.9059 20.036C30.5059 18.98 30.9619 18.176 31.2739 17.624C31.5859 17.072 32.0539 16.292 32.6779 15.284C33.3019 14.276 33.8059 13.52 34.1899 13.016C34.5979 12.488 35.1259 11.84 35.7739 11.072C36.4459 10.28 37.0579 9.692 37.6099 9.308C39.2659 8.132 40.6579 7.448 41.7859 7.256C42.4099 7.16 42.9379 7.112 43.3699 7.112C43.8019 7.112 44.2819 7.124 44.8099 7.148C45.3379 7.148 46.0819 7.28 47.0419 7.544L46.8619 8.228C46.2859 8.06 45.6739 7.94 45.0259 7.868C42.6259 17.3 41.2459 24.836 40.8859 30.476ZM22.4899 21.908C22.4899 23.684 21.9739 25.256 20.9419 26.624C19.9339 27.992 18.5659 28.676 16.8379 28.676C15.7099 28.676 14.7859 28.34 14.0659 27.668C13.3699 26.996 13.0219 26.3 13.0219 25.58C13.0219 24.86 13.1299 24.272 13.3459 23.816C13.5619 23.336 13.8019 22.976 14.0659 22.736C14.3539 22.496 14.6659 22.304 15.0019 22.16C15.4579 21.92 15.8179 21.8 16.0819 21.8L16.1539 22.52C15.5539 22.52 15.0019 22.808 14.4979 23.384C13.9939 23.96 13.7419 24.608 13.7419 25.328C13.7419 26.048 14.0179 26.672 14.5699 27.2C15.1459 27.704 15.9019 27.956 16.8379 27.956C18.3739 27.956 19.5859 27.356 20.4739 26.156C21.3619 24.956 21.8059 23.624 21.8059 22.16C21.8059 20.696 21.5059 19.424 20.9059 18.344C19.5859 17.84 18.2779 17.588 16.9819 17.588C14.4859 17.588 12.7219 18.752 11.6899 21.08L11.0059 20.864C11.2699 20.264 11.6899 19.616 12.2659 18.92C13.3939 17.552 14.9659 16.868 16.9819 16.868C18.0619 16.868 19.1299 17.024 20.1859 17.336L20.1139 17.228C18.7939 15.788 16.8859 15.068 14.3899 15.068C11.9179 15.068 9.88989 16.028 8.30589 17.948C6.74589 19.868 5.96589 22.076 5.96589 24.572C5.96589 27.044 6.73389 29.108 8.26989 30.764C9.99789 32.636 12.4099 33.572 15.5059 33.572C18.3379 33.572 20.8099 32.504 22.9219 30.368C23.9779 29.336 24.8899 28.268 25.6579 27.164C26.4499 26.06 27.3019 24.728 28.2139 23.168C27.3979 22.64 26.4019 21.92 25.2259 21.008C24.0739 20.072 22.9579 19.328 21.8779 18.776C22.2859 19.784 22.4899 20.828 22.4899 21.908ZM29.1859 22.952C30.7219 23.864 32.1259 24.32 33.3979 24.32C34.6939 24.32 35.8459 24.116 36.8539 23.708C37.4299 19.652 38.5099 14.612 40.0939 8.588C38.1739 9.5 36.4099 11.12 34.8019 13.448C33.6259 15.128 32.2099 17.468 30.5539 20.468L29.1859 22.952ZM60.5619 28.604C61.1379 28.604 61.7379 28.268 62.3619 27.596L62.9019 28.028C62.7339 28.364 62.3619 28.664 61.7859 28.928C61.2099 29.192 60.5739 29.324 59.8779 29.324C57.6939 29.324 56.6019 28.34 56.6019 26.372C56.6019 25.532 56.8179 24.032 57.2499 21.872C57.6819 19.712 57.8979 18.296 57.8979 17.624C57.8979 16.592 57.4059 16.076 56.4219 16.076C55.6299 16.076 54.8619 16.592 54.1179 17.624C53.3979 18.656 52.7979 20.072 52.3179 21.872L51.0939 28.604C51.8379 28.532 52.4499 28.196 52.9299 27.596L53.4699 28.028C52.7499 28.892 51.8499 29.324 50.7699 29.324C49.6899 29.324 48.8379 29.048 48.2139 28.496C47.6139 27.944 47.3139 27.224 47.3139 26.336C47.3139 26 47.5059 24.68 47.8899 22.376L49.0779 15.716C48.3579 15.788 47.7579 16.124 47.2779 16.724L46.7379 16.292C47.4579 15.428 48.3579 14.996 49.4379 14.996C50.5419 14.996 51.3939 15.272 51.9939 15.824C52.5939 16.376 52.8939 17.156 52.8939 18.164V18.38C53.8779 16.124 55.4139 14.996 57.5019 14.996C58.9179 14.996 60.0219 15.404 60.8139 16.22C61.6059 17.012 62.0019 18.116 62.0019 19.532C62.0019 20.276 61.7739 21.716 61.3179 23.852C60.8619 25.964 60.6099 27.548 60.5619 28.604ZM78.5267 28.604C79.1027 28.604 79.7027 28.268 80.3267 27.596L80.8667 28.028C80.6987 28.364 80.3267 28.664 79.7507 28.928C79.1747 29.192 78.5387 29.324 77.8427 29.324C75.6587 29.324 74.5667 28.34 74.5667 26.372C74.5667 25.532 74.7827 24.032 75.2147 21.872C75.6467 19.712 75.8627 18.296 75.8627 17.624C75.8627 16.592 75.3707 16.076 74.3867 16.076C73.5947 16.076 72.8267 16.592 72.0827 17.624C71.3627 18.656 70.7627 20.072 70.2827 21.872L69.0587 28.604C69.8027 28.532 70.4147 28.196 70.8947 27.596L71.4347 28.028C70.7147 28.892 69.8147 29.324 68.7347 29.324C67.6547 29.324 66.8027 29.048 66.1787 28.496C65.5787 27.944 65.2787 27.224 65.2787 26.336C65.2787 26 65.4707 24.68 65.8547 22.376L67.0427 15.716C66.3227 15.788 65.7227 16.124 65.2427 16.724L64.7027 16.292C65.4227 15.428 66.3227 14.996 67.4027 14.996C68.5067 14.996 69.3587 15.272 69.9587 15.824C70.5587 16.376 70.8587 17.156 70.8587 18.164V18.38C71.8427 16.124 73.3787 14.996 75.4667 14.996C76.8827 14.996 77.9867 15.404 78.7787 16.22C79.5707 17.012 79.9667 18.116 79.9667 19.532C79.9667 20.276 79.7387 21.716 79.2827 23.852C78.8267 25.964 78.5747 27.548 78.5267 28.604ZM95.2675 29.324C93.1555 29.324 92.0035 28.4 91.8115 26.552C90.7555 28.4 89.4235 29.324 87.8155 29.324C86.2075 29.324 84.9235 28.844 83.9635 27.884C83.0275 26.9 82.5595 25.532 82.5595 23.78C82.5595 21.044 83.2315 18.896 84.5755 17.336C85.9195 15.776 87.6595 14.996 89.7955 14.996C91.5475 14.996 92.7115 15.824 93.2875 17.48C93.4075 16.76 93.5395 16.04 93.6835 15.32C95.4595 15.32 96.7795 15.248 97.6435 15.104L98.1115 14.996L95.6275 28.604C96.3475 28.532 96.9475 28.196 97.4275 27.596L97.9675 28.028C97.2475 28.892 96.3475 29.324 95.2675 29.324ZM86.6275 25.616C86.6275 26.696 86.7595 27.452 87.0235 27.884C87.3115 28.292 87.7435 28.496 88.3195 28.496C88.8955 28.496 89.4835 28.184 90.0835 27.56C90.8755 26.744 91.5115 25.712 91.9915 24.464C92.0635 24.152 92.1955 23.408 92.3875 22.232C92.6035 21.032 92.7835 20.048 92.9275 19.28C92.8555 18.368 92.6035 17.576 92.1715 16.904C91.7395 16.232 91.1995 15.896 90.5515 15.896C89.3755 15.896 88.4275 16.952 87.7075 19.064C86.9875 21.152 86.6275 23.336 86.6275 25.616ZM126.453 9.092C124.557 8.276 122.493 7.868 120.261 7.868C118.053 7.868 116.253 8.576 114.861 9.992C113.493 11.408 112.809 13.256 112.809 15.536H112.017C112.017 13.04 112.785 11.012 114.321 9.452C115.857 7.868 117.825 7.076 120.225 7.076C122.145 7.076 124.221 7.448 126.453 8.192C129.021 9.128 131.805 9.596 134.805 9.596V10.352C133.005 10.352 131.565 10.268 130.485 10.1C130.461 10.196 130.377 10.592 130.233 11.288C129.345 15.224 128.625 18.356 128.073 20.684H137.721L141.393 5.06H142.149L137.109 26.696C136.893 27.584 136.785 28.184 136.785 28.496C136.785 29.504 137.253 30.008 138.189 30.008C138.861 30.008 139.449 29.66 139.953 28.964L140.457 29.396C140.289 29.708 139.989 29.996 139.557 30.26C139.125 30.548 138.597 30.692 137.973 30.692C137.373 30.692 136.893 30.488 136.533 30.08C136.197 29.672 136.029 29.18 136.029 28.604L136.461 26.228L137.577 21.332H127.893C127.629 22.34 127.365 23.432 127.101 24.608C126.837 25.784 126.513 26.936 126.129 28.064C125.769 29.192 125.265 30.356 124.617 31.556C123.969 32.756 123.237 33.728 122.421 34.472C121.629 35.24 120.621 35.864 119.397 36.344C118.197 36.848 116.889 37.1 115.473 37.1C114.081 37.1 112.761 36.836 111.513 36.308C110.265 35.78 109.221 35.048 108.381 34.112C106.941 32.456 106.221 30.452 106.221 28.1C106.221 27.716 106.233 27.332 106.257 26.948L107.049 27.056C107.025 27.392 107.013 27.728 107.013 28.064C107.013 30.296 107.685 32.156 109.029 33.644C110.397 35.156 112.233 35.912 114.537 35.912C116.841 35.912 118.461 35.3 119.397 34.076C120.333 32.852 121.221 30.5 122.061 27.02C122.925 23.54 124.389 17.564 126.453 9.092ZM155.736 29.324C153.624 29.324 152.472 28.4 152.28 26.552C151.224 28.4 149.892 29.324 148.284 29.324C146.676 29.324 145.392 28.844 144.432 27.884C143.496 26.9 143.028 25.532 143.028 23.78C143.028 21.044 143.7 18.896 145.044 17.336C146.388 15.776 148.128 14.996 150.264 14.996C152.016 14.996 153.18 15.824 153.756 17.48C153.876 16.76 154.008 16.04 154.152 15.32C155.928 15.32 157.248 15.248 158.112 15.104L158.58 14.996L156.096 28.604C156.816 28.532 157.416 28.196 157.896 27.596L158.436 28.028C157.716 28.892 156.816 29.324 155.736 29.324ZM147.096 25.616C147.096 26.696 147.228 27.452 147.492 27.884C147.78 28.292 148.212 28.496 148.788 28.496C149.364 28.496 149.952 28.184 150.552 27.56C151.344 26.744 151.98 25.712 152.46 24.464C152.532 24.152 152.664 23.408 152.856 22.232C153.072 21.032 153.252 20.048 153.396 19.28C153.324 18.368 153.072 17.576 152.64 16.904C152.208 16.232 151.668 15.896 151.02 15.896C149.844 15.896 148.896 16.952 148.176 19.064C147.456 21.152 147.096 23.336 147.096 25.616ZM160.682 16.292C161.402 15.428 162.302 14.996 163.382 14.996C164.486 14.996 165.338 15.272 165.938 15.824C166.538 16.376 166.838 17.156 166.838 18.164V18.38C167.918 16.124 169.322 14.996 171.05 14.996C172.898 14.996 173.822 15.956 173.822 17.876C173.822 18.668 173.558 19.508 173.03 20.396C172.502 21.284 171.974 22.136 171.446 22.952C170.918 23.744 170.654 24.452 170.654 25.076H169.79C169.79 24.188 170.306 22.988 171.338 21.476C172.37 19.964 172.886 18.8 172.886 17.984C172.886 17.144 172.718 16.58 172.382 16.292C172.07 15.98 171.59 15.824 170.942 15.824C170.318 15.824 169.694 16.1 169.07 16.652C168.47 17.204 167.966 17.9 167.558 18.74C166.91 19.988 166.478 21.008 166.262 21.8V21.836L164.966 29H160.646L163.022 15.716C162.302 15.788 161.702 16.124 161.222 16.724L160.682 16.292ZM179.747 22.052L178.451 29H174.167L178.235 6.392C177.515 6.464 176.915 6.8 176.435 7.4L175.895 6.968C176.615 6.104 177.515 5.672 178.595 5.672C179.699 5.672 180.551 5.948 181.151 6.5C181.751 7.052 182.051 7.832 182.051 8.84C182.051 9.032 182.027 9.344 181.979 9.776C181.427 12.824 180.827 16.112 180.179 19.64C180.779 18.176 181.643 17.036 182.771 16.22C183.899 15.404 185.099 14.996 186.371 14.996C187.643 14.996 188.531 15.248 189.035 15.752C189.563 16.256 189.827 16.892 189.827 17.66C189.827 18.404 189.599 19.016 189.143 19.496C188.687 19.976 188.087 20.216 187.343 20.216C186.623 20.216 186.059 20.012 185.651 19.604C185.267 19.172 185.075 18.548 185.075 17.732C185.075 16.892 185.363 16.256 185.939 15.824C183.635 16.088 181.799 17.792 180.431 20.936C180.767 20.888 181.055 20.864 181.295 20.864C182.567 20.864 183.563 21.116 184.283 21.62C185.027 22.124 185.507 22.748 185.723 23.492C185.939 24.212 186.095 24.944 186.191 25.688C186.287 26.408 186.443 27.02 186.659 27.524C186.875 28.028 187.259 28.28 187.811 28.28C188.363 28.28 188.795 28.052 189.107 27.596L189.647 28.028C189.479 28.364 189.107 28.664 188.531 28.928C187.955 29.192 187.211 29.324 186.299 29.324C185.411 29.324 184.619 29.096 183.923 28.64C183.251 28.184 182.783 27.62 182.519 26.948C182.255 26.252 182.039 25.568 181.871 24.896C181.415 23.168 180.707 22.22 179.747 22.052ZM193.706 15.716C193.13 15.716 192.53 16.052 191.906 16.724L191.366 16.292C191.534 15.956 191.906 15.656 192.482 15.392C193.058 15.128 193.694 14.996 194.39 14.996C196.574 14.996 197.666 15.98 197.666 17.948C197.666 18.788 197.45 20.288 197.018 22.448C196.586 24.608 196.37 26.024 196.37 26.696C196.37 27.728 196.862 28.244 197.846 28.244C198.542 28.244 199.214 27.836 199.862 27.02C200.534 26.204 201.11 25.076 201.59 23.636L203.102 15.32C204.878 15.32 206.174 15.248 206.99 15.104L207.458 14.996L205.046 28.604C205.766 28.532 206.366 28.196 206.846 27.596L207.386 28.028C206.666 28.892 205.766 29.324 204.686 29.324C203.606 29.324 202.766 29.06 202.166 28.532C201.566 28.004 201.254 27.26 201.23 26.3C200.222 28.316 198.734 29.324 196.766 29.324C195.35 29.324 194.246 28.928 193.454 28.136C192.662 27.32 192.266 26.204 192.266 24.788C192.266 24.044 192.494 22.616 192.95 20.504C193.406 18.368 193.658 16.772 193.706 15.716ZM212.822 28.388C215.198 28.388 216.386 26.636 216.386 23.132C216.386 22.268 216.254 21.248 215.99 20.072C215.75 18.896 215.606 18.164 215.558 17.876C214.094 19.388 212.45 20.3 210.626 20.612V19.748C212.354 19.364 213.974 18.38 215.486 16.796V16.652C215.486 16.076 215.57 15.512 215.738 14.96C215.906 14.408 216.074 14 216.242 13.736L216.494 13.34H217.358C217.358 14.396 217.526 15.368 217.862 16.256C218.198 17.12 218.57 17.828 218.978 18.38C219.386 18.908 219.758 19.616 220.094 20.504C220.43 21.368 220.598 22.328 220.598 23.384C220.598 25.088 219.95 26.504 218.654 27.632C217.382 28.76 215.846 29.324 214.046 29.324C212.246 29.324 210.878 28.916 209.942 28.1C209.03 27.284 208.574 26.348 208.574 25.292C208.574 24.212 208.838 23.444 209.366 22.988C209.894 22.508 210.518 22.268 211.238 22.268C211.958 22.268 212.546 22.508 213.002 22.988C213.482 23.444 213.722 24.044 213.722 24.788C213.722 25.508 213.494 26.12 213.038 26.624C212.582 27.128 211.994 27.38 211.274 27.38C210.962 27.38 210.638 27.332 210.302 27.236C210.83 28.004 211.67 28.388 212.822 28.388ZM236.192 28.604C236.768 28.604 237.368 28.268 237.992 27.596L238.532 28.028C238.364 28.364 237.992 28.664 237.416 28.928C236.84 29.192 236.204 29.324 235.508 29.324C233.324 29.324 232.232 28.34 232.232 26.372C232.232 25.532 232.448 24.032 232.88 21.872C233.312 19.712 233.528 18.296 233.528 17.624C233.528 16.592 233.036 16.076 232.052 16.076C231.236 16.076 230.444 16.628 229.676 17.732C228.932 18.836 228.32 20.336 227.84 22.232L226.652 29H222.332L226.328 6.392C225.608 6.464 225.008 6.8 224.528 7.4L223.988 6.968C224.708 6.104 225.608 5.672 226.688 5.672C227.792 5.672 228.644 5.948 229.244 6.5C229.844 7.052 230.144 7.832 230.144 8.84C230.144 9.032 230.12 9.344 230.072 9.776L228.56 18.308C229.544 16.1 231.068 14.996 233.132 14.996C234.548 14.996 235.652 15.404 236.444 16.22C237.236 17.012 237.632 18.116 237.632 19.532C237.632 20.276 237.404 21.716 236.948 23.852C236.492 25.964 236.24 27.548 236.192 28.604ZM252.943 29.324C250.831 29.324 249.679 28.4 249.487 26.552C248.431 28.4 247.099 29.324 245.491 29.324C243.883 29.324 242.599 28.844 241.639 27.884C240.703 26.9 240.235 25.532 240.235 23.78C240.235 21.044 240.907 18.896 242.251 17.336C243.595 15.776 245.335 14.996 247.471 14.996C249.223 14.996 250.387 15.824 250.963 17.48C251.083 16.76 251.215 16.04 251.359 15.32C253.135 15.32 254.455 15.248 255.319 15.104L255.787 14.996L253.303 28.604C254.023 28.532 254.623 28.196 255.103 27.596L255.643 28.028C254.923 28.892 254.023 29.324 252.943 29.324ZM244.303 25.616C244.303 26.696 244.435 27.452 244.699 27.884C244.987 28.292 245.419 28.496 245.995 28.496C246.571 28.496 247.159 28.184 247.759 27.56C248.551 26.744 249.187 25.712 249.667 24.464C249.739 24.152 249.871 23.408 250.063 22.232C250.279 21.032 250.459 20.048 250.603 19.28C250.531 18.368 250.279 17.576 249.847 16.904C249.415 16.232 248.875 15.896 248.227 15.896C247.051 15.896 246.103 16.952 245.383 19.064C244.663 21.152 244.303 23.336 244.303 25.616Z" fill="white"/>
<path d="M40.8859 30.476L40.4867 30.4505L40.4595 30.876H40.8859V30.476ZM42.6859 29.468L42.9358 29.1557L42.6338 28.9141L42.3822 29.2077L42.6859 29.468ZM43.2259 29.9L43.5459 30.14L43.7785 29.8298L43.4758 29.5877L43.2259 29.9ZM42.9379 30.26L42.6306 30.0039L42.9379 30.26ZM42.0379 30.836L41.859 30.4782L41.8516 30.482L42.0379 30.836ZM36.7459 24.5L37.1431 24.5471L37.2158 23.9341L36.6266 24.1182L36.7459 24.5ZM28.8259 23.564L29.0347 23.2228L28.6859 23.0094L28.4802 23.3628L28.8259 23.564ZM26.1979 27.704L26.522 27.9385L26.5243 27.9352L26.1979 27.704ZM23.3539 31.016L23.6337 31.3019L23.6367 31.2988L23.3539 31.016ZM7.72989 31.268L7.43195 31.535L7.43677 31.5402L7.72989 31.268ZM20.6179 16.76L20.9336 16.5144L20.9261 16.5048L20.9181 16.4956L20.6179 16.76ZM21.3379 17.732L21.0051 17.9539L21.0713 18.0532L21.1811 18.1L21.3379 17.732ZM25.7659 20.468L26.0173 20.1567L26.0096 20.1508L25.7659 20.468ZM28.5379 22.556L28.3223 22.8929L28.6856 23.1254L28.8901 22.7456L28.5379 22.556ZM29.9059 20.036L29.5581 19.8384L29.5547 19.8445L29.9059 20.036ZM32.6779 15.284L33.018 15.4945H33.018L32.6779 15.284ZM34.1899 13.016L33.8734 12.7714L33.8717 12.7736L34.1899 13.016ZM35.7739 11.072L35.4689 10.8132L35.4682 10.8141L35.7739 11.072ZM37.6099 9.308L37.8383 9.63638L37.8415 9.63413L37.6099 9.308ZM41.7859 7.256L41.7251 6.8606L41.7188 6.86167L41.7859 7.256ZM44.8099 7.148L44.7917 7.54759L44.8008 7.548H44.8099V7.148ZM47.0419 7.544L47.4287 7.6458L47.5294 7.26322L47.148 7.15832L47.0419 7.544ZM46.8619 8.228L46.7499 8.612L47.1442 8.727L47.2487 8.3298L46.8619 8.228ZM45.0259 7.868L45.0701 7.47045L44.7241 7.432L44.6382 7.76936L45.0259 7.868ZM20.9419 26.624L20.6225 26.3831L20.6199 26.3867L20.9419 26.624ZM14.0659 27.668L13.788 27.9558L13.793 27.9604L14.0659 27.668ZM13.3459 23.816L13.7075 23.9873L13.7107 23.9801L13.3459 23.816ZM14.0659 22.736L13.8098 22.4287L13.8032 22.4342L13.7968 22.44L14.0659 22.736ZM15.0019 22.16L15.1595 22.5277L15.1741 22.5214L15.1882 22.514L15.0019 22.16ZM16.0819 21.8L16.4799 21.7602L16.4439 21.4H16.0819V21.8ZM16.1539 22.52V22.92H16.5959L16.5519 22.4802L16.1539 22.52ZM14.4979 23.384L14.1969 23.1206L14.4979 23.384ZM14.5699 27.2L14.2934 27.4891L14.2998 27.4952L14.3065 27.501L14.5699 27.2ZM20.4739 26.156L20.7954 26.3939L20.4739 26.156ZM20.9059 18.344L21.2556 18.1497L21.1848 18.0223L21.0486 17.9703L20.9059 18.344ZM11.6899 21.08L11.5694 21.4614L11.9106 21.5692L12.0556 21.2421L11.6899 21.08ZM11.0059 20.864L10.6398 20.7029L10.4601 21.1111L10.8854 21.2454L11.0059 20.864ZM12.2659 18.92L12.574 19.175L12.5745 19.1745L12.2659 18.92ZM20.1859 17.336L20.0726 17.7196L21.1308 18.0323L20.5187 17.1141L20.1859 17.336ZM20.1139 17.228L20.4467 17.0061L20.4296 16.9805L20.4088 16.9577L20.1139 17.228ZM8.30589 17.948L7.99733 17.6934L7.99545 17.6958L8.30589 17.948ZM8.26989 30.764L8.56381 30.4927L8.56316 30.492L8.26989 30.764ZM22.9219 30.368L22.6423 30.0819L22.6375 30.0868L22.9219 30.368ZM25.6579 27.164L25.3328 26.9308L25.3295 26.9356L25.6579 27.164ZM28.2139 23.168L28.5592 23.3699L28.7521 23.0399L28.4312 22.8322L28.2139 23.168ZM25.2259 21.008L24.9736 21.3185L24.9808 21.3241L25.2259 21.008ZM21.8779 18.776L22.0599 18.4198L21.1046 17.9315L21.5071 18.9261L21.8779 18.776ZM29.1859 22.952L28.8355 22.759L28.6487 23.0982L28.9817 23.2959L29.1859 22.952ZM36.8539 23.708L37.004 24.0788L37.2175 23.9923L37.2499 23.7642L36.8539 23.708ZM40.0939 8.588L40.4807 8.68972L40.6996 7.85746L39.9223 8.22669L40.0939 8.588ZM34.8019 13.448L35.1296 13.6774L35.131 13.6753L34.8019 13.448ZM30.5539 20.468L30.2037 20.2747L30.2035 20.275L30.5539 20.468ZM40.8859 30.876C41.6692 30.876 42.3705 30.4506 42.9896 29.7283L42.3822 29.2077C41.8493 29.8294 41.3506 30.076 40.8859 30.076V30.876ZM42.436 29.7803L42.976 30.2123L43.4758 29.5877L42.9358 29.1557L42.436 29.7803ZM42.9059 29.66C42.8396 29.7484 42.7484 29.8626 42.6306 30.0039L43.2452 30.5161C43.3674 30.3694 43.4682 30.2436 43.5459 30.14L42.9059 29.66ZM42.6306 30.0039C42.6108 30.0277 42.5479 30.0851 42.4073 30.1751C42.2735 30.2607 42.092 30.3617 41.859 30.4782L42.2168 31.1938C42.4638 31.0703 42.6723 30.9553 42.8385 30.8489C42.9979 30.7469 43.145 30.6363 43.2452 30.5161L42.6306 30.0039ZM41.8516 30.482C41.4571 30.6897 41.0177 30.796 40.5259 30.796V31.596C41.1381 31.596 41.7067 31.4623 42.2242 31.19L41.8516 30.482ZM40.5259 30.796C39.2306 30.796 38.3338 30.5143 37.7638 30.0206C37.2048 29.5365 36.8939 28.7902 36.8939 27.704H36.0939C36.0939 28.9458 36.455 29.9455 37.24 30.6254C38.014 31.2957 39.1332 31.596 40.5259 31.596V30.796ZM36.8939 27.704C36.8939 27.0084 36.9755 25.9595 37.1431 24.5471L36.3487 24.4529C36.1802 25.8725 36.0939 26.9596 36.0939 27.704H36.8939ZM36.6266 24.1182C35.5015 24.4698 34.5108 24.64 33.6499 24.64V25.44C34.613 25.44 35.6863 25.2502 36.8652 24.8818L36.6266 24.1182ZM33.6499 24.64C32.1275 24.64 30.5908 24.1751 29.0347 23.2228L28.6171 23.9052C30.277 24.9209 31.9563 25.44 33.6499 25.44V24.64ZM28.4802 23.3628C27.5484 24.9635 26.6789 26.333 25.8715 27.4728L26.5243 27.9352C27.3489 26.771 28.2314 25.3805 29.1716 23.7652L28.4802 23.3628ZM25.8738 27.4696C25.0714 28.5788 24.1375 29.6667 23.0711 30.7332L23.6367 31.2988C24.7303 30.2053 25.6924 29.0852 26.522 27.9384L25.8738 27.4696ZM23.0741 30.7301C20.9181 32.8398 18.319 33.892 15.2539 33.892V34.692C18.5248 34.692 21.3257 33.5602 23.6336 31.3019L23.0741 30.7301ZM15.2539 33.892C12.2037 33.892 9.80821 32.9183 8.02301 30.9958L7.43677 31.5402C9.39558 33.6497 12.0161 34.692 15.2539 34.692V33.892ZM8.02778 31.0011C6.44198 29.2314 5.64589 27.0843 5.64589 24.536H4.84589C4.84589 27.2677 5.70581 29.6086 7.432 31.5349L8.02778 31.0011ZM5.64589 24.536C5.64589 21.9654 6.46522 19.6914 8.11035 17.6987L7.49343 17.1893C5.73056 19.3246 4.84589 21.7786 4.84589 24.536H5.64589ZM8.11035 17.6987C9.7372 15.7281 11.8314 14.748 14.4259 14.748V13.948C11.5964 13.948 9.27458 15.0319 7.49343 17.1893L8.11035 17.6987ZM14.4259 14.748C17.0558 14.748 18.9969 15.5245 20.3177 17.0244L20.9181 16.4956C19.4069 14.7795 17.22 13.948 14.4259 13.948V14.748ZM20.3022 17.0056C20.6372 17.4364 20.8696 17.7507 21.0051 17.9539L21.6707 17.5101C21.5181 17.2813 21.2706 16.9476 20.9336 16.5144L20.3022 17.0056ZM21.1811 18.1C22.4351 18.6341 23.8814 19.5249 25.5222 20.7852L26.0096 20.1508C24.3384 18.8671 22.8326 17.9339 21.4946 17.364L21.1811 18.1ZM25.5146 20.7792C26.7635 21.7879 27.7022 22.4961 28.3223 22.8929L28.7535 22.2191C28.1736 21.8479 27.2643 21.1641 26.0172 20.1568L25.5146 20.7792ZM28.8901 22.7456C29.2256 22.1226 29.6812 21.2833 30.257 20.2275L29.5547 19.8445C28.9786 20.9007 28.5222 21.7414 28.1857 22.3664L28.8901 22.7456ZM30.2537 20.2336C30.8537 19.1775 31.3099 18.3732 31.6221 17.8208L30.9257 17.4272C30.6139 17.9788 30.1581 18.7825 29.5581 19.8384L30.2537 20.2336ZM31.6221 17.8208C31.9302 17.2758 32.3948 16.5012 33.018 15.4945L32.3378 15.0735C31.7129 16.0828 31.2416 16.8682 30.9257 17.4272L31.6221 17.8208ZM33.018 15.4945C33.64 14.4898 34.1359 13.7469 34.5081 13.2584L33.8717 12.7736C33.4759 13.2931 32.9638 14.0622 32.3378 15.0735L33.018 15.4945ZM34.5064 13.2606C34.9096 12.7388 35.4337 12.0955 36.0796 11.3299L35.4682 10.8141C34.8181 11.5845 34.2862 12.2372 33.8734 12.7714L34.5064 13.2606ZM36.0789 11.3308C36.7392 10.5525 37.3257 9.99293 37.8383 9.63636L37.3815 8.97964C36.79 9.39107 36.1525 10.0075 35.4689 10.8132L36.0789 11.3308ZM37.8415 9.63413C39.4808 8.46996 40.8138 7.82722 41.853 7.65033L41.7188 6.86167C40.502 7.06878 39.051 7.79403 37.3783 8.98187L37.8415 9.63413ZM41.8467 7.65135C42.4589 7.55717 42.9652 7.512 43.3699 7.512V6.712C42.9106 6.712 42.3609 6.76283 41.7251 6.86065L41.8467 7.65135ZM43.3699 7.512C43.7947 7.512 44.2685 7.5238 44.7917 7.54759L44.8281 6.74841C44.2953 6.72419 43.8091 6.712 43.3699 6.712V7.512ZM44.8099 7.548C45.2832 7.548 45.9856 7.66837 46.9358 7.92968L47.148 7.15832C46.1782 6.89163 45.3926 6.748 44.8099 6.748V7.548ZM46.6551 7.4422L46.4751 8.1262L47.2487 8.3298L47.4287 7.6458L46.6551 7.4422ZM46.9739 7.844C46.3739 7.669 45.7391 7.54478 45.0701 7.47045L44.9817 8.26555C45.6087 8.33522 46.1979 8.451 46.7499 8.612L46.9739 7.844ZM44.6382 7.76936C42.2358 17.2108 40.849 24.7744 40.4867 30.4505L41.2851 30.5015C41.6428 24.8976 43.016 17.3892 45.4135 7.96664L44.6382 7.76936ZM22.0899 21.908C22.0899 23.6005 21.6002 25.0872 20.6226 26.3831L21.2612 26.8649C22.3476 25.4248 22.8899 23.7675 22.8899 21.908H22.0899ZM20.6199 26.3867C19.6888 27.6504 18.4413 28.276 16.8379 28.276V29.076C18.6904 29.076 20.179 28.3336 21.2639 26.8613L20.6199 26.3867ZM16.8379 28.276C15.7954 28.276 14.9739 27.9684 14.3388 27.3756L13.793 27.9604C14.5978 28.7116 15.6244 29.076 16.8379 29.076V28.276ZM14.3437 27.3802C13.698 26.7568 13.4219 26.1581 13.4219 25.58H12.6219C12.6219 26.4419 13.0418 27.2352 13.7881 27.9558L14.3437 27.3802ZM13.4219 25.58C13.4219 24.8957 13.5252 24.3719 13.7074 23.9872L12.9844 23.6448C12.7346 24.1721 12.6219 24.8243 12.6219 25.58H13.4219ZM13.7107 23.9801C13.9139 23.5285 14.1261 23.2218 14.335 23.032L13.7968 22.44C13.4777 22.7302 13.2099 23.1435 12.9811 23.6519L13.7107 23.9801ZM14.322 23.0433C14.581 22.8274 14.8599 22.656 15.1595 22.5277L14.8443 21.7923C14.4718 21.952 14.1268 22.1646 13.8098 22.4287L14.322 23.0433ZM15.1882 22.514C15.6316 22.2806 15.9194 22.2 16.0819 22.2V21.4C15.7164 21.4 15.2842 21.5594 14.8156 21.806L15.1882 22.514ZM15.6839 21.8398L15.7559 22.5598L16.5519 22.4802L16.4799 21.7602L15.6839 21.8398ZM16.1539 22.12C15.4084 22.12 14.7544 22.4834 14.1969 23.1206L14.7989 23.6474C15.2494 23.1326 15.6994 22.92 16.1539 22.92V22.12ZM14.1969 23.1206C13.6334 23.7645 13.3419 24.5047 13.3419 25.328H14.1419C14.1419 24.7113 14.3544 24.1555 14.7989 23.6474L14.1969 23.1206ZM13.3419 25.328C13.3419 26.1644 13.6679 26.8907 14.2934 27.4891L14.8464 26.9109C14.3679 26.4533 14.1419 25.9316 14.1419 25.328H13.3419ZM14.3065 27.501C14.9707 28.0823 15.8275 28.356 16.8379 28.356V27.556C15.9763 27.556 15.321 27.3257 14.8333 26.899L14.3065 27.501ZM16.8379 28.356C18.4964 28.356 19.8295 27.6993 20.7954 26.3939L20.1524 25.9181C19.3423 27.0127 18.2514 27.556 16.8379 27.556V28.356ZM20.7954 26.3939C21.7333 25.1265 22.2059 23.7115 22.2059 22.16H21.4059C21.4059 23.5365 20.9905 24.7855 20.1524 25.9181L20.7954 26.3939ZM22.2059 22.16C22.2059 20.6406 21.8942 19.2993 21.2556 18.1497L20.5562 18.5383C21.1176 19.5487 21.4059 20.7514 21.4059 22.16H22.2059ZM21.0486 17.9703C19.6871 17.4505 18.3309 17.188 16.9819 17.188V17.988C18.2249 17.988 19.4846 18.2295 20.7632 18.7177L21.0486 17.9703ZM16.9819 17.188C15.67 17.188 14.5251 17.4947 13.5666 18.1271C12.6086 18.7592 11.8648 19.6984 11.3242 20.9179L12.0556 21.2421C12.547 20.1336 13.2011 19.3268 14.0072 18.7949C14.8127 18.2633 15.7978 17.988 16.9819 17.988V17.188ZM11.8103 20.6986L11.1263 20.4826L10.8854 21.2454L11.5694 21.4614L11.8103 20.6986ZM11.372 21.0251C11.6167 20.469 12.0134 19.8525 12.574 19.175L11.9577 18.665C11.3664 19.3795 10.9231 20.059 10.6398 20.7029L11.372 21.0251ZM12.5745 19.1745C13.6155 17.9119 15.0669 17.268 16.9819 17.268V16.468C14.8648 16.468 13.1722 17.1921 11.9573 18.6655L12.5745 19.1745ZM16.9819 17.268C18.0228 17.268 19.0526 17.4183 20.0726 17.7196L20.2992 16.9524C19.2072 16.6297 18.101 16.468 16.9819 16.468V17.268ZM20.5187 17.1141L20.4467 17.0061L19.7811 17.4499L19.8531 17.5579L20.5187 17.1141ZM20.4088 16.9577C18.9932 15.4135 16.9649 14.668 14.3899 14.668V15.468C16.8069 15.468 18.5946 16.1625 19.819 17.4983L20.4088 16.9577ZM14.3899 14.668C11.7975 14.668 9.65672 15.6821 7.99734 17.6934L8.61444 18.2026C10.1231 16.3739 12.0382 15.468 14.3899 15.468V14.668ZM7.99545 17.6958C6.37695 19.6878 5.56589 21.985 5.56589 24.572H6.36589C6.36589 22.167 7.11483 20.0482 8.61634 18.2002L7.99545 17.6958ZM5.56589 24.572C5.56589 27.1345 6.36528 29.2988 7.97662 31.036L8.56316 30.492C7.1025 28.9172 6.36589 26.9535 6.36589 24.572H5.56589ZM7.97597 31.0353C9.79566 33.0066 12.3242 33.972 15.5059 33.972V33.172C12.4956 33.172 10.2001 32.2654 8.56381 30.4927L7.97597 31.0353ZM15.5059 33.972C18.4518 33.972 21.0243 32.8561 23.2063 30.6492L22.6375 30.0868C20.5955 32.1519 18.224 33.172 15.5059 33.172V33.972ZM23.2015 30.6541C24.2738 29.6061 25.2025 28.519 25.9863 27.3924L25.3295 26.9356C24.5773 28.017 23.682 29.0659 22.6423 30.0819L23.2015 30.6541ZM25.9829 27.3972C26.7841 26.2804 27.6428 24.9374 28.5592 23.3699L27.8686 22.9661C26.9609 24.5186 26.1157 25.8396 25.3329 26.9308L25.9829 27.3972ZM28.4312 22.8322C27.6283 22.3127 26.6422 21.6002 25.471 20.6919L24.9808 21.3241C26.1616 22.2398 27.1674 22.9673 27.9966 23.5038L28.4312 22.8322ZM25.4781 20.6976C24.309 19.7477 23.1697 18.987 22.0599 18.4198L21.6958 19.1322C22.7461 19.669 23.8388 20.3963 24.9737 21.3184L25.4781 20.6976ZM21.5071 18.9261C21.896 19.8867 22.0899 20.8798 22.0899 21.908H22.8899C22.8899 20.7762 22.6758 19.6813 22.2487 18.6259L21.5071 18.9261ZM28.9817 23.2959C30.5557 24.2305 32.0307 24.72 33.3979 24.72V23.92C32.2211 23.92 30.8881 23.4975 29.3901 22.6081L28.9817 23.2959ZM33.3979 24.72C34.7357 24.72 35.9401 24.5094 37.004 24.0788L36.7038 23.3372C35.7517 23.7226 34.6521 23.92 33.3979 23.92V24.72ZM37.2499 23.7642C37.8229 19.7293 38.8989 14.7056 40.4807 8.68972L39.707 8.48628C38.1209 14.5184 37.0368 19.5747 36.4579 23.6518L37.2499 23.7642ZM39.9223 8.22669C37.9213 9.17713 36.1079 10.8535 34.4728 13.2207L35.131 13.6753C36.7119 11.3865 38.4264 9.82287 40.2655 8.94931L39.9223 8.22669ZM34.4742 13.2186C33.2865 14.9153 31.8627 17.2693 30.2037 20.2747L30.9041 20.6613C32.5571 17.6667 33.9653 15.3407 35.1296 13.6774L34.4742 13.2186ZM30.2035 20.275L28.8355 22.759L29.5363 23.145L30.9043 20.661L30.2035 20.275ZM60.5619 28.604L60.1623 28.5858L60.1433 29.004H60.5619V28.604ZM62.3619 27.596L62.6117 27.2837L62.3216 27.0515L62.0687 27.3238L62.3619 27.596ZM62.9019 28.028L63.2596 28.2069L63.4042 27.9177L63.1517 27.7157L62.9019 28.028ZM61.7859 28.928L61.6192 28.5644L61.7859 28.928ZM57.2499 21.872L56.8576 21.7936L57.2499 21.872ZM54.1179 17.624L53.7934 17.3901L53.7898 17.3951L54.1179 17.624ZM52.3179 21.872L51.9314 21.7689L51.9272 21.7845L51.9243 21.8004L52.3179 21.872ZM51.0939 28.604L50.7003 28.5324L50.6056 29.0531L51.1324 29.0021L51.0939 28.604ZM52.9299 27.596L53.1797 27.2837L52.8674 27.0338L52.6175 27.3461L52.9299 27.596ZM53.4699 28.028L53.7771 28.2841L54.0384 27.9706L53.7197 27.7157L53.4699 28.028ZM48.2139 28.496L47.943 28.7904L47.9488 28.7956L48.2139 28.496ZM47.8899 22.376L47.496 22.3058L47.4953 22.3102L47.8899 22.376ZM49.0779 15.716L49.4716 15.7862L49.5646 15.2653L49.0381 15.318L49.0779 15.716ZM47.2779 16.724L47.028 17.0363L47.3403 17.2862L47.5902 16.9739L47.2779 16.724ZM46.7379 16.292L46.4306 16.0359L46.1693 16.3494L46.488 16.6043L46.7379 16.292ZM51.9939 15.824L51.723 16.1184L51.9939 15.824ZM52.8939 18.38H52.4939L53.2605 18.5399L52.8939 18.38ZM60.8139 16.22L60.5268 16.4986L60.531 16.5028L60.8139 16.22ZM61.3179 23.852L61.7089 23.9364L61.709 23.9355L61.3179 23.852ZM60.5619 29.004C61.3002 29.004 61.999 28.5746 62.655 27.8682L62.0687 27.3238C61.4767 27.9614 60.9755 28.204 60.5619 28.204V29.004ZM62.112 27.9083L62.652 28.3403L63.1517 27.7157L62.6117 27.2837L62.112 27.9083ZM62.5441 27.8491C62.4367 28.064 62.1643 28.3145 61.6192 28.5644L61.9525 29.2916C62.5594 29.0135 63.0311 28.664 63.2596 28.2069L62.5441 27.8491ZM61.6192 28.5644C61.1005 28.8021 60.5221 28.924 59.8779 28.924V29.724C60.6257 29.724 61.3193 29.5819 61.9525 29.2916L61.6192 28.5644ZM59.8779 28.924C58.8378 28.924 58.1325 28.6888 57.6886 28.2888C57.2527 27.896 57.0019 27.283 57.0019 26.372H56.2019C56.2019 27.429 56.497 28.292 57.1531 28.8832C57.8012 29.4672 58.7339 29.724 59.8779 29.724V28.924ZM57.0019 26.372C57.0019 25.5768 57.2096 24.1131 57.6421 21.9504L56.8576 21.7936C56.4262 23.9509 56.2019 25.4872 56.2019 26.372H57.0019ZM57.6421 21.9504C58.0723 19.7997 58.2979 18.3431 58.2979 17.624H57.4979C57.4979 18.2489 57.2915 19.6243 56.8576 21.7936L57.6421 21.9504ZM58.2979 17.624C58.2979 17.051 58.1616 16.5469 57.8184 16.187C57.4717 15.8234 56.9805 15.676 56.4219 15.676V16.476C56.8472 16.476 57.094 16.5866 57.2394 16.739C57.3881 16.8951 57.4979 17.165 57.4979 17.624H58.2979ZM56.4219 15.676C55.4387 15.676 54.5663 16.3179 53.7934 17.3901L54.4423 17.8579C55.1574 16.8661 55.8211 16.476 56.4219 16.476V15.676ZM53.7898 17.3951C53.0336 18.479 52.4182 19.9435 51.9314 21.7689L52.7044 21.9751C53.1776 20.2005 53.7621 18.833 54.4459 17.8529L53.7898 17.3951ZM51.9243 21.8004L50.7003 28.5324L51.4874 28.6756L52.7114 21.9436L51.9243 21.8004ZM51.1324 29.0021C51.9873 28.9194 52.6968 28.5276 53.2422 27.8459L52.6175 27.3461C52.2029 27.8644 51.6884 28.1446 51.0553 28.2059L51.1324 29.0021ZM52.68 27.9083L53.22 28.3403L53.7197 27.7157L53.1797 27.2837L52.68 27.9083ZM53.1626 27.7719C52.515 28.5491 51.7256 28.924 50.7699 28.924V29.724C51.9741 29.724 52.9848 29.2349 53.7771 28.2841L53.1626 27.7719ZM50.7699 28.924C49.7579 28.924 49.0102 28.6664 48.4789 28.1964L47.9488 28.7956C48.6655 29.4296 49.6219 29.724 50.7699 29.724V28.924ZM48.4847 28.2016C47.9749 27.7326 47.7139 27.1233 47.7139 26.336H46.9139C46.9139 27.3247 47.2529 28.1554 47.943 28.7904L48.4847 28.2016ZM47.7139 26.336C47.7139 26.2035 47.7561 25.8222 47.8537 25.1516C47.9491 24.4956 48.0926 23.5927 48.2844 22.4418L47.4953 22.3102C47.3031 23.4633 47.1586 24.3724 47.062 25.0364C46.9676 25.6858 46.9139 26.1325 46.9139 26.336H47.7139ZM48.2836 22.4462L49.4716 15.7862L48.6841 15.6458L47.4961 22.3058L48.2836 22.4462ZM49.0381 15.318C48.2038 15.4014 47.5081 15.7959 46.9655 16.4741L47.5902 16.9739C48.0076 16.4521 48.5119 16.1746 49.1177 16.114L49.0381 15.318ZM47.5277 16.4117L46.9877 15.9797L46.488 16.6043L47.028 17.0363L47.5277 16.4117ZM47.0451 16.5481C47.6928 15.7709 48.4821 15.396 49.4379 15.396V14.596C48.2336 14.596 47.223 15.0851 46.4306 16.0359L47.0451 16.5481ZM49.4379 15.396C50.4776 15.396 51.2197 15.6553 51.723 16.1184L52.2647 15.5296C51.568 14.8887 50.6061 14.596 49.4379 14.596V15.396ZM51.723 16.1184C52.2219 16.5773 52.4939 17.2395 52.4939 18.164H53.2939C53.2939 17.0725 52.9658 16.1747 52.2647 15.5296L51.723 16.1184ZM52.4939 18.164V18.38H53.2939V18.164H52.4939ZM53.2605 18.5399C53.7323 17.4581 54.3238 16.6762 55.0206 16.1644C55.7134 15.6557 56.5344 15.396 57.5019 15.396V14.596C56.3813 14.596 55.3904 14.9003 54.5471 15.5196C53.708 16.1358 53.0394 17.0458 52.5272 18.2201L53.2605 18.5399ZM57.5019 15.396C58.8379 15.396 59.8278 15.7783 60.5268 16.4986L61.1009 15.9414C60.216 15.0297 58.9978 14.596 57.5019 14.596V15.396ZM60.531 16.5028C61.2294 17.2013 61.6019 18.1926 61.6019 19.532H62.4019C62.4019 18.0394 61.9823 16.8227 61.0967 15.9372L60.531 16.5028ZM61.6019 19.532C61.6019 20.227 61.384 21.6261 60.9267 23.7685L61.709 23.9355C62.1637 21.8059 62.4019 20.325 62.4019 19.532H61.6019ZM60.9269 23.7676C60.47 25.8838 60.2119 27.4948 60.1623 28.5858L60.9614 28.6222C61.0079 27.6012 61.2538 26.0442 61.7089 23.9364L60.9269 23.7676ZM78.5267 28.604L78.1271 28.5858L78.1081 29.004H78.5267V28.604ZM80.3267 27.596L80.5766 27.2837L80.2864 27.0515L80.0336 27.3238L80.3267 27.596ZM80.8667 28.028L81.2245 28.2069L81.3691 27.9177L81.1166 27.7157L80.8667 28.028ZM79.7507 28.928L79.584 28.5644L79.7507 28.928ZM75.2147 21.872L74.8225 21.7936L75.2147 21.872ZM72.0827 17.624L71.7582 17.3901L71.7547 17.3951L72.0827 17.624ZM70.2827 21.872L69.8962 21.7689L69.892 21.7845L69.8892 21.8004L70.2827 21.872ZM69.0587 28.604L68.6652 28.5324L68.5705 29.0531L69.0972 29.0021L69.0587 28.604ZM70.8947 27.596L71.1446 27.2837L70.8322 27.0338L70.5824 27.3461L70.8947 27.596ZM71.4347 28.028L71.742 28.2841L72.0032 27.9706L71.6846 27.7157L71.4347 28.028ZM66.1787 28.496L65.9078 28.7904L65.9137 28.7956L66.1787 28.496ZM65.8547 22.376L65.4609 22.3058L65.4601 22.3102L65.8547 22.376ZM67.0427 15.716L67.4365 15.7862L67.5294 15.2653L67.0029 15.318L67.0427 15.716ZM65.2427 16.724L64.9928 17.0363L65.3052 17.2862L65.555 16.9739L65.2427 16.724ZM64.7027 16.292L64.3954 16.0359L64.1342 16.3494L64.4528 16.6043L64.7027 16.292ZM69.9587 15.824L69.6879 16.1184L69.9587 15.824ZM70.8587 18.38H70.4587L71.2253 18.5399L70.8587 18.38ZM78.7787 16.22L78.4916 16.4986L78.4959 16.5028L78.7787 16.22ZM79.2827 23.852L79.6737 23.9364L79.6739 23.9355L79.2827 23.852ZM78.5267 29.004C79.265 29.004 79.9639 28.5746 80.6198 27.8682L80.0336 27.3238C79.4416 27.9614 78.9404 28.204 78.5267 28.204V29.004ZM80.0768 27.9083L80.6168 28.3403L81.1166 27.7157L80.5766 27.2837L80.0768 27.9083ZM80.5089 27.8491C80.4015 28.064 80.1291 28.3145 79.584 28.5644L79.9174 29.2916C80.5243 29.0135 80.9959 28.664 81.2245 28.2069L80.5089 27.8491ZM79.584 28.5644C79.0653 28.8021 78.4869 28.924 77.8427 28.924V29.724C78.5905 29.724 79.2841 29.5819 79.9174 29.2916L79.584 28.5644ZM77.8427 28.924C76.8027 28.924 76.0973 28.6888 75.6535 28.2888C75.2175 27.896 74.9667 27.283 74.9667 26.372H74.1667C74.1667 27.429 74.4619 28.292 75.1179 28.8832C75.7661 29.4672 76.6987 29.724 77.8427 29.724V28.924ZM74.9667 26.372C74.9667 25.5768 75.1744 24.1131 75.6069 21.9504L74.8225 21.7936C74.391 23.9509 74.1667 25.4872 74.1667 26.372H74.9667ZM75.6069 21.9504C76.0371 19.7997 76.2627 18.3431 76.2627 17.624H75.4627C75.4627 18.2489 75.2563 19.6243 74.8225 21.7936L75.6069 21.9504ZM76.2627 17.624C76.2627 17.051 76.1264 16.5469 75.7832 16.187C75.4366 15.8234 74.9454 15.676 74.3867 15.676V16.476C74.8121 16.476 75.0588 16.5866 75.2042 16.739C75.353 16.8951 75.4627 17.165 75.4627 17.624H76.2627ZM74.3867 15.676C73.4035 15.676 72.5312 16.3179 71.7582 17.3901L72.4072 17.8579C73.1222 16.8661 73.7859 16.476 74.3867 16.476V15.676ZM71.7547 17.3951C70.9985 18.479 70.383 19.9435 69.8962 21.7689L70.6692 21.9751C71.1424 20.2005 71.727 18.833 72.4108 17.8529L71.7547 17.3951ZM69.8892 21.8004L68.6652 28.5324L69.4523 28.6756L70.6763 21.9436L69.8892 21.8004ZM69.0972 29.0021C69.9521 28.9194 70.6617 28.5276 71.2071 27.8459L70.5824 27.3461C70.1677 27.8644 69.6533 28.1446 69.0202 28.2059L69.0972 29.0021ZM70.6448 27.9083L71.1848 28.3403L71.6846 27.7157L71.1446 27.2837L70.6448 27.9083ZM71.1274 27.7719C70.4798 28.5491 69.6905 28.924 68.7347 28.924V29.724C69.9389 29.724 70.9496 29.2349 71.742 28.2841L71.1274 27.7719ZM68.7347 28.924C67.7227 28.924 66.9751 28.6664 66.4437 28.1964L65.9137 28.7956C66.6303 29.4296 67.5867 29.724 68.7347 29.724V28.924ZM66.4495 28.2016C65.9397 27.7326 65.6787 27.1233 65.6787 26.336H64.8787C64.8787 27.3247 65.2177 28.1554 65.9079 28.7904L66.4495 28.2016ZM65.6787 26.336C65.6787 26.2035 65.721 25.8222 65.8185 25.1516C65.914 24.4956 66.0574 23.5927 66.2493 22.4418L65.4601 22.3102C65.268 23.4633 65.1235 24.3724 65.0269 25.0364C64.9324 25.6858 64.8787 26.1325 64.8787 26.336H65.6787ZM66.2485 22.4462L67.4365 15.7862L66.6489 15.6458L65.4609 22.3058L66.2485 22.4462ZM67.0029 15.318C66.1687 15.4014 65.4729 15.7959 64.9304 16.4741L65.555 16.9739C65.9725 16.4521 66.4767 16.1746 67.0825 16.114L67.0029 15.318ZM65.4926 16.4117L64.9526 15.9797L64.4528 16.6043L64.9928 17.0363L65.4926 16.4117ZM65.01 16.5481C65.6576 15.7709 66.4469 15.396 67.4027 15.396V14.596C66.1985 14.596 65.1878 15.0851 64.3954 16.0359L65.01 16.5481ZM67.4027 15.396C68.4424 15.396 69.1845 15.6553 69.6879 16.1184L70.2295 15.5296C69.5329 14.8887 68.571 14.596 67.4027 14.596V15.396ZM69.6879 16.1184C70.1867 16.5773 70.4587 17.2395 70.4587 18.164H71.2587C71.2587 17.0725 70.9307 16.1747 70.2295 15.5296L69.6879 16.1184ZM70.4587 18.164V18.38H71.2587V18.164H70.4587ZM71.2253 18.5399C71.6972 17.4581 72.2886 16.6762 72.9855 16.1644C73.6782 15.6557 74.4993 15.396 75.4667 15.396V14.596C74.3461 14.596 73.3552 14.9003 72.5119 15.5196C71.6728 16.1358 71.0042 17.0458 70.4921 18.2201L71.2253 18.5399ZM75.4667 15.396C76.8027 15.396 77.7926 15.7783 78.4917 16.4986L79.0657 15.9414C78.1808 15.0297 76.9627 14.596 75.4667 14.596V15.396ZM78.4959 16.5028C79.1943 17.2013 79.5667 18.1926 79.5667 19.532H80.3667C80.3667 18.0394 79.9471 16.8227 79.0615 15.9372L78.4959 16.5028ZM79.5667 19.532C79.5667 20.227 79.3489 21.6261 78.8915 23.7685L79.6739 23.9355C80.1285 21.8059 80.3667 20.325 80.3667 19.532H79.5667ZM78.8917 23.7676C78.4348 25.8838 78.1767 27.4948 78.1271 28.5858L78.9263 28.6222C78.9727 27.6012 79.2186 26.0442 79.6737 23.9364L78.8917 23.7676ZM91.8115 26.552L92.2094 26.5107L92.081 25.2743L91.4642 26.3535L91.8115 26.552ZM83.9635 27.884L83.6736 28.1598L83.6807 28.1668L83.9635 27.884ZM84.5755 17.336L84.8786 17.5971L84.5755 17.336ZM93.2875 17.48L92.9098 17.6114L93.6821 17.5458L93.2875 17.48ZM93.6835 15.32V14.92H93.3556L93.2913 15.2416L93.6835 15.32ZM97.6435 15.104L97.7093 15.4986L97.7215 15.4965L97.7335 15.4938L97.6435 15.104ZM98.1115 14.996L98.505 15.0678L98.6143 14.4695L98.0216 14.6062L98.1115 14.996ZM95.6275 28.604L95.234 28.5322L95.1386 29.0549L95.6674 29.002L95.6275 28.604ZM97.4276 27.596L97.6774 27.2837L97.3651 27.0338L97.1152 27.3461L97.4276 27.596ZM97.9675 28.028L98.2748 28.2841L98.5361 27.9706L98.2174 27.7157L97.9675 28.028ZM87.0235 27.884L86.6822 28.0926L86.6891 28.1039L86.6968 28.1147L87.0235 27.884ZM90.0835 27.56L89.7965 27.2814L89.7952 27.2828L90.0835 27.56ZM91.9915 24.464L92.3649 24.6076L92.375 24.5813L92.3813 24.5539L91.9915 24.464ZM92.3876 22.232L91.9938 22.1611L91.9928 22.1675L92.3876 22.232ZM92.9275 19.28L93.3207 19.3537L93.3305 19.3015L93.3263 19.2485L92.9275 19.28ZM92.1715 16.904L91.8351 17.1203L92.1715 16.904ZM87.7076 19.064L88.0857 19.1944L88.0862 19.1931L87.7076 19.064ZM95.2675 28.924C94.2643 28.924 93.5499 28.704 93.0698 28.319C92.5975 27.9401 92.2974 27.3573 92.2094 26.5107L91.4137 26.5933C91.5177 27.5947 91.8896 28.3979 92.5693 28.943C93.2412 29.482 94.1588 29.724 95.2675 29.724V28.924ZM91.4642 26.3535C90.4531 28.123 89.2338 28.924 87.8155 28.924V29.724C89.6133 29.724 91.058 28.677 92.1588 26.7505L91.4642 26.3535ZM87.8155 28.924C86.2926 28.924 85.1177 28.4725 84.2464 27.6012L83.6807 28.1668C84.7294 29.2155 86.1225 29.724 87.8155 29.724V28.924ZM84.2534 27.6083C83.4068 26.7184 82.9595 25.4602 82.9595 23.78H82.1595C82.1595 25.6038 82.6482 27.0816 83.6737 28.1597L84.2534 27.6083ZM82.9595 23.78C82.9595 21.1079 83.6152 19.0635 84.8786 17.5971L84.2725 17.0749C82.8479 18.7285 82.1595 20.9801 82.1595 23.78H82.9595ZM84.8786 17.5971C86.1434 16.129 87.771 15.396 89.7955 15.396V14.596C87.5481 14.596 85.6957 15.423 84.2725 17.0749L84.8786 17.5971ZM89.7955 15.396C90.6076 15.396 91.2505 15.5871 91.7507 15.9429C92.2509 16.2988 92.6427 16.8437 92.9098 17.6114L93.6653 17.3486C93.3564 16.4603 92.8782 15.7632 92.2144 15.2911C91.5506 14.8189 90.7355 14.596 89.7955 14.596V15.396ZM93.6821 17.5458C93.8014 16.83 93.9326 16.1143 94.0758 15.3984L93.2913 15.2416C93.1465 15.9657 93.0137 16.69 92.893 17.4142L93.6821 17.5458ZM93.6835 15.72C95.464 15.72 96.8113 15.6482 97.7093 15.4986L97.5778 14.7094C96.7478 14.8478 95.4551 14.92 93.6835 14.92V15.72ZM97.7335 15.4938L98.2015 15.3858L98.0216 14.6062L97.5536 14.7142L97.7335 15.4938ZM97.718 14.9242L95.234 28.5322L96.021 28.6758L98.505 15.0678L97.718 14.9242ZM95.6674 29.002C96.5016 28.9186 97.1973 28.5241 97.7399 27.8459L97.1152 27.3461C96.6978 27.8679 96.1935 28.1454 95.5877 28.206L95.6674 29.002ZM97.1777 27.9083L97.7177 28.3403L98.2174 27.7157L97.6774 27.2837L97.1777 27.9083ZM97.6603 27.7719C97.0126 28.5491 96.2233 28.924 95.2675 28.924V29.724C96.4718 29.724 97.4825 29.2349 98.2748 28.2841L97.6603 27.7719ZM86.2275 25.616C86.2275 26.7034 86.3559 27.5585 86.6822 28.0926L87.3649 27.6754C87.1632 27.3455 87.0275 26.6886 87.0275 25.616H86.2275ZM86.6968 28.1147C87.072 28.6463 87.6365 28.896 88.3195 28.896V28.096C87.8506 28.096 87.5511 27.9377 87.3503 27.6533L86.6968 28.1147ZM88.3195 28.896C89.0488 28.896 89.7341 28.5005 90.3719 27.8372L89.7952 27.2828C89.233 27.8675 88.7423 28.096 88.3195 28.096V28.896ZM90.3706 27.8386C91.2062 26.9777 91.8689 25.8972 92.3649 24.6076L91.6182 24.3204C91.1542 25.5268 90.5449 26.5103 89.7965 27.2814L90.3706 27.8386ZM92.3813 24.5539C92.4568 24.2266 92.591 23.4683 92.7823 22.2965L91.9928 22.1675C91.8001 23.3477 91.6702 24.0774 91.6018 24.3741L92.3813 24.5539ZM92.7812 22.3029C92.9971 21.1033 93.1769 20.1204 93.3207 19.3537L92.5344 19.2063C92.3902 19.9756 92.21 20.9606 91.9939 22.1611L92.7812 22.3029ZM93.3263 19.2485C93.2499 18.2804 92.9806 17.4228 92.508 16.6877L91.8351 17.1203C92.2265 17.7292 92.4612 18.4556 92.5288 19.3115L93.3263 19.2485ZM92.508 16.6877C92.0221 15.9318 91.3684 15.496 90.5515 15.496V16.296C91.0307 16.296 91.457 16.5322 91.8351 17.1203L92.508 16.6877ZM90.5515 15.496C89.8267 15.496 89.1937 15.8273 88.6609 16.4208C88.1362 17.0053 87.6975 17.8539 87.3289 18.9349L88.0862 19.1931C88.4376 18.1621 88.8329 17.4267 89.2562 16.9552C89.6714 16.4927 90.1004 16.296 90.5515 16.296V15.496ZM87.3294 18.9336C86.5945 21.0649 86.2275 23.2931 86.2275 25.616H87.0275C87.0275 23.3789 87.3806 21.2391 88.0857 19.1944L87.3294 18.9336ZM126.453 9.092L126.842 9.18668L126.922 8.85822L126.611 8.72458L126.453 9.092ZM114.861 9.992L114.576 9.71157L114.573 9.71408L114.861 9.992ZM112.809 15.536V15.936H113.209V15.536H112.809ZM112.017 15.536H111.617V15.936H112.017V15.536ZM114.321 9.452L114.606 9.73265L114.608 9.73046L114.321 9.452ZM126.453 8.192L126.59 7.81604L126.58 7.81253L126.453 8.192ZM134.805 9.596H135.205V9.196H134.805V9.596ZM134.805 10.352V10.752H135.205V10.352H134.805ZM130.485 10.1L130.547 9.70475L130.186 9.6486L130.097 10.003L130.485 10.1ZM130.233 11.288L130.623 11.376L130.625 11.369L130.233 11.288ZM128.073 20.684L127.684 20.5917L127.567 21.084H128.073V20.684ZM137.721 20.684V21.084H138.038L138.111 20.7755L137.721 20.684ZM141.393 5.06V4.66H141.076L141.004 4.96848L141.393 5.06ZM142.149 5.06L142.539 5.15075L142.653 4.66H142.149V5.06ZM137.109 26.696L137.498 26.7905L137.499 26.7867L137.109 26.696ZM139.953 28.964L140.213 28.6603L139.884 28.3777L139.629 28.7294L139.953 28.964ZM140.457 29.396L140.809 29.5856L140.962 29.302L140.717 29.0923L140.457 29.396ZM139.557 30.26L139.349 29.9187L139.342 29.9228L139.335 29.9272L139.557 30.26ZM136.533 30.08L136.224 30.3344L136.233 30.3447L136.533 30.08ZM136.029 28.604L135.636 28.5324L135.629 28.5679V28.604H136.029ZM136.461 26.228L136.071 26.1391L136.069 26.1477L136.068 26.1564L136.461 26.228ZM137.577 21.332L137.967 21.4209L138.079 20.932H137.577V21.332ZM127.893 21.332V20.932H127.584L127.506 21.2307L127.893 21.332ZM127.101 24.608L127.491 24.6956L127.101 24.608ZM126.129 28.064L125.75 27.9351L125.748 27.9424L126.129 28.064ZM124.617 31.556L124.265 31.3659L124.617 31.556ZM122.421 34.472L122.151 34.1763L122.143 34.1848L122.421 34.472ZM119.397 36.344L119.251 35.9715L119.242 35.9752L119.397 36.344ZM108.381 34.112L108.079 34.3745L108.083 34.3792L108.381 34.112ZM106.257 26.948L106.311 26.5517L105.885 26.4935L105.858 26.923L106.257 26.948ZM107.049 27.056L107.448 27.0845L107.475 26.7104L107.103 26.6597L107.049 27.056ZM109.029 33.644L108.732 33.9121L108.732 33.9124L109.029 33.644ZM122.061 27.02L121.673 26.9236L121.672 26.9261L122.061 27.02ZM126.611 8.72458C124.661 7.88539 122.543 7.468 120.261 7.468V8.268C122.443 8.268 124.453 8.66661 126.295 9.45942L126.611 8.72458ZM120.261 7.468C117.959 7.468 116.052 8.21016 114.576 9.71159L115.146 10.2724C116.454 8.94184 118.147 8.268 120.261 8.268V7.468ZM114.573 9.71408C113.122 11.2164 112.409 13.1699 112.409 15.536H113.209C113.209 13.3421 113.864 11.5996 115.149 10.2699L114.573 9.71408ZM112.809 15.136H112.017V15.936H112.809V15.136ZM112.417 15.536C112.417 13.1291 113.154 11.2072 114.606 9.73264L114.036 9.17136C112.416 10.8168 111.617 12.9509 111.617 15.536H112.417ZM114.608 9.73046C116.062 8.23139 117.923 7.476 120.225 7.476V6.676C117.727 6.676 115.652 7.50461 114.034 9.17354L114.608 9.73046ZM120.225 7.476C122.094 7.476 124.127 7.83812 126.327 8.57147L126.58 7.81253C124.316 7.05788 122.197 6.676 120.225 6.676V7.476ZM126.316 8.56781C128.932 9.5213 131.763 9.996 134.805 9.996V9.196C131.847 9.196 129.11 8.7347 126.59 7.81618L126.316 8.56781ZM134.405 9.596V10.352H135.205V9.596H134.405ZM134.805 9.952C133.014 9.952 131.597 9.86823 130.547 9.70475L130.424 10.4952C131.533 10.6678 132.996 10.752 134.805 10.752V9.952ZM130.097 10.003C130.07 10.1093 129.984 10.5167 129.841 11.207L130.625 11.369C130.77 10.6673 130.852 10.2827 130.873 10.197L130.097 10.003ZM129.843 11.2C128.955 15.1354 128.235 18.2658 127.684 20.5917L128.462 20.7763C129.015 18.4462 129.735 15.3126 130.623 11.376L129.843 11.2ZM128.073 21.084H137.721V20.284H128.073V21.084ZM138.111 20.7755L141.783 5.15152L141.004 4.96848L137.332 20.5925L138.111 20.7755ZM141.393 5.46H142.149V4.66H141.393V5.46ZM141.76 4.96925L136.72 26.6053L137.499 26.7867L142.539 5.15075L141.76 4.96925ZM136.72 26.6015C136.506 27.4822 136.385 28.1283 136.385 28.496H137.185C137.185 28.2397 137.28 27.6858 137.498 26.7905L136.72 26.6015ZM136.385 28.496C136.385 29.0546 136.514 29.5481 136.843 29.9022C137.177 30.2619 137.652 30.408 138.189 30.408V29.608C137.791 29.608 137.563 29.5021 137.429 29.3578C137.29 29.2079 137.185 28.9454 137.185 28.496H136.385ZM138.189 30.408C139.024 30.408 139.721 29.9664 140.277 29.1986L139.629 28.7294C139.177 29.3536 138.698 29.608 138.189 29.608V30.408ZM139.693 29.2677L140.197 29.6997L140.717 29.0923L140.213 28.6603L139.693 29.2677ZM140.105 29.2064C139.982 29.4348 139.745 29.6767 139.349 29.9187L139.766 30.6013C140.234 30.3153 140.596 29.9812 140.809 29.5856L140.105 29.2064ZM139.335 29.9272C138.981 30.1632 138.534 30.292 137.973 30.292V31.092C138.66 31.092 139.269 30.9328 139.779 30.5928L139.335 29.9272ZM137.973 30.292C137.475 30.292 137.109 30.1279 136.833 29.8154L136.233 30.3447C136.677 30.8481 137.272 31.092 137.973 31.092V30.292ZM136.842 29.8257C136.57 29.4959 136.429 29.0961 136.429 28.604H135.629C135.629 29.2639 135.824 29.8481 136.224 30.3343L136.842 29.8257ZM136.423 28.6756L136.855 26.2996L136.068 26.1564L135.636 28.5324L136.423 28.6756ZM136.851 26.3169L137.967 21.4209L137.187 21.2431L136.071 26.1391L136.851 26.3169ZM137.577 20.932H127.893V21.732H137.577V20.932ZM127.506 21.2307C127.241 22.2439 126.976 23.3405 126.711 24.5204L127.491 24.6956C127.755 23.5235 128.017 22.4361 128.28 21.4333L127.506 21.2307ZM126.711 24.5204C126.45 25.6826 126.13 26.8208 125.75 27.9351L126.508 28.1929C126.896 27.0512 127.224 25.8854 127.491 24.6956L126.711 24.5204ZM125.748 27.9424C125.397 29.0435 124.903 30.1846 124.265 31.3659L124.969 31.7461C125.627 30.5274 126.142 29.3405 126.51 28.1856L125.748 27.9424ZM124.265 31.3659C123.634 32.5353 122.928 33.4689 122.152 34.1764L122.691 34.7676C123.547 33.9871 124.305 32.9767 124.969 31.7461L124.265 31.3659ZM122.143 34.1848C121.395 34.9096 120.435 35.5073 119.251 35.9716L119.543 36.7164C120.807 36.2207 121.863 35.5704 122.7 34.7592L122.143 34.1848ZM119.242 35.9752C118.095 36.4569 116.841 36.7 115.473 36.7V37.5C116.938 37.5 118.299 37.2391 119.552 36.7128L119.242 35.9752ZM115.473 36.7C114.133 36.7 112.866 36.4462 111.669 35.9396L111.357 36.6764C112.656 37.2258 114.029 37.5 115.473 37.5V36.7ZM111.669 35.9396C110.471 35.4327 109.477 34.7338 108.679 33.8448L108.083 34.3792C108.966 35.3622 110.059 36.1273 111.357 36.6764L111.669 35.9396ZM108.683 33.8495C107.311 32.2718 106.621 30.363 106.621 28.1H105.821C105.821 30.541 106.571 32.6402 108.079 34.3745L108.683 33.8495ZM106.621 28.1C106.621 27.7243 106.633 27.3487 106.656 26.973L105.858 26.923C105.833 27.3153 105.821 27.7077 105.821 28.1H106.621ZM106.203 27.3443L106.995 27.4523L107.103 26.6597L106.311 26.5517L106.203 27.3443ZM106.65 27.0275C106.625 27.373 106.613 27.7185 106.613 28.064H107.413C107.413 27.7375 107.425 27.411 107.448 27.0845L106.65 27.0275ZM106.613 28.064C106.613 30.383 107.314 32.3421 108.732 33.9121L109.326 33.3759C108.056 31.9699 107.413 30.209 107.413 28.064H106.613ZM108.732 33.9124C110.187 35.5195 112.136 36.312 114.537 36.312V35.512C112.33 35.512 110.608 34.7925 109.326 33.3756L108.732 33.9124ZM114.537 36.312C116.902 36.312 118.671 35.6835 119.715 34.319L119.079 33.833C118.251 34.9165 116.78 35.512 114.537 35.512V36.312ZM119.715 34.319C120.707 33.0217 121.61 30.5948 122.45 27.1139L121.672 26.9261C120.832 30.4052 119.959 32.6823 119.079 33.833L119.715 34.319ZM122.449 27.1164C123.314 23.6354 124.778 17.6587 126.842 9.18668L126.064 8.99732C124 17.4693 122.537 23.4446 121.673 26.9236L122.449 27.1164ZM152.28 26.552L152.678 26.5107L152.55 25.2743L151.933 26.3535L152.28 26.552ZM144.432 27.884L144.142 28.1598L144.149 28.1668L144.432 27.884ZM145.044 17.336L145.347 17.5971L145.044 17.336ZM153.756 17.48L153.378 17.6114L154.151 17.5458L153.756 17.48ZM154.152 15.32V14.92H153.824L153.76 15.2416L154.152 15.32ZM158.112 15.104L158.178 15.4986L158.19 15.4965L158.202 15.4938L158.112 15.104ZM158.58 14.996L158.974 15.0678L159.083 14.4695L158.49 14.6062L158.58 14.996ZM156.096 28.604L155.703 28.5322L155.607 29.0549L156.136 29.002L156.096 28.604ZM157.896 27.596L158.146 27.2837L157.834 27.0338L157.584 27.3461L157.896 27.596ZM158.436 28.028L158.744 28.2841L159.005 27.9706L158.686 27.7157L158.436 28.028ZM147.492 27.884L147.151 28.0926L147.158 28.1039L147.166 28.1147L147.492 27.884ZM150.552 27.56L150.265 27.2814L150.264 27.2828L150.552 27.56ZM152.46 24.464L152.834 24.6076L152.844 24.5813L152.85 24.5539L152.46 24.464ZM152.856 22.232L152.463 22.1611L152.462 22.1675L152.856 22.232ZM153.396 19.28L153.789 19.3537L153.799 19.3015L153.795 19.2485L153.396 19.28ZM152.64 16.904L152.304 17.1203L152.64 16.904ZM148.176 19.064L148.554 19.1944L148.555 19.1931L148.176 19.064ZM155.736 28.924C154.733 28.924 154.019 28.704 153.539 28.319C153.066 27.9401 152.766 27.3573 152.678 26.5107L151.882 26.5933C151.986 27.5947 152.358 28.3979 153.038 28.943C153.71 29.482 154.628 29.724 155.736 29.724V28.924ZM151.933 26.3535C150.922 28.123 149.703 28.924 148.284 28.924V29.724C150.082 29.724 151.527 28.677 152.628 26.7505L151.933 26.3535ZM148.284 28.924C146.761 28.924 145.586 28.4725 144.715 27.6012L144.149 28.1668C145.198 29.2155 146.591 29.724 148.284 29.724V28.924ZM144.722 27.6083C143.876 26.7184 143.428 25.4602 143.428 23.78H142.628C142.628 25.6038 143.117 27.0816 144.142 28.1597L144.722 27.6083ZM143.428 23.78C143.428 21.1079 144.084 19.0635 145.347 17.5971L144.741 17.0749C143.317 18.7285 142.628 20.9801 142.628 23.78H143.428ZM145.347 17.5971C146.612 16.129 148.24 15.396 150.264 15.396V14.596C148.017 14.596 146.164 15.423 144.741 17.0749L145.347 17.5971ZM150.264 15.396C151.076 15.396 151.719 15.5871 152.219 15.9429C152.72 16.2988 153.111 16.8437 153.378 17.6114L154.134 17.3486C153.825 16.4603 153.347 15.7632 152.683 15.2911C152.019 14.8189 151.204 14.596 150.264 14.596V15.396ZM154.151 17.5458C154.27 16.83 154.401 16.1143 154.545 15.3984L153.76 15.2416C153.615 15.9657 153.482 16.69 153.362 17.4142L154.151 17.5458ZM154.152 15.72C155.933 15.72 157.28 15.6482 158.178 15.4986L158.047 14.7094C157.217 14.8478 155.924 14.92 154.152 14.92V15.72ZM158.202 15.4938L158.67 15.3858L158.49 14.6062L158.022 14.7142L158.202 15.4938ZM158.187 14.9242L155.703 28.5322L156.49 28.6758L158.974 15.0678L158.187 14.9242ZM156.136 29.002C156.97 28.9186 157.666 28.5241 158.209 27.8459L157.584 27.3461C157.167 27.8679 156.662 28.1454 156.057 28.206L156.136 29.002ZM157.646 27.9083L158.186 28.3403L158.686 27.7157L158.146 27.2837L157.646 27.9083ZM158.129 27.7719C157.481 28.5491 156.692 28.924 155.736 28.924V29.724C156.941 29.724 157.951 29.2349 158.744 28.2841L158.129 27.7719ZM146.696 25.616C146.696 26.7034 146.825 27.5585 147.151 28.0926L147.834 27.6754C147.632 27.3455 147.496 26.6886 147.496 25.616H146.696ZM147.166 28.1147C147.541 28.6463 148.105 28.896 148.788 28.896V28.096C148.319 28.096 148.02 27.9377 147.819 27.6533L147.166 28.1147ZM148.788 28.896C149.518 28.896 150.203 28.5005 150.841 27.8372L150.264 27.2828C149.702 27.8675 149.211 28.096 148.788 28.096V28.896ZM150.839 27.8386C151.675 26.9777 152.338 25.8972 152.834 24.6076L152.087 24.3204C151.623 25.5268 151.014 26.5103 150.265 27.2814L150.839 27.8386ZM152.85 24.5539C152.926 24.2266 153.06 23.4683 153.251 22.2965L152.462 22.1675C152.269 23.3477 152.139 24.0774 152.071 24.3741L152.85 24.5539ZM153.25 22.3029C153.466 21.1033 153.646 20.1204 153.789 19.3537L153.003 19.2063C152.859 19.9756 152.679 20.9606 152.463 22.1611L153.25 22.3029ZM153.795 19.2485C153.719 18.2804 153.449 17.4228 152.977 16.6877L152.304 17.1203C152.695 17.7292 152.93 18.4556 152.998 19.3115L153.795 19.2485ZM152.977 16.6877C152.491 15.9318 151.837 15.496 151.02 15.496V16.296C151.499 16.296 151.926 16.5322 152.304 17.1203L152.977 16.6877ZM151.02 15.496C150.295 15.496 149.662 15.8273 149.13 16.4208C148.605 17.0053 148.166 17.8539 147.798 18.9349L148.555 19.1931C148.906 18.1621 149.302 17.4267 149.725 16.9552C150.14 16.4927 150.569 16.296 151.02 16.296V15.496ZM147.798 18.9336C147.063 21.0649 146.696 23.2931 146.696 25.616H147.496C147.496 23.3789 147.849 21.2391 148.554 19.1944L147.798 18.9336ZM160.682 16.292L160.375 16.0359L160.113 16.3494L160.432 16.6043L160.682 16.292ZM166.838 18.38H166.438L167.199 18.5527L166.838 18.38ZM173.03 20.396L173.374 20.6004L173.03 20.396ZM171.446 22.952L171.779 23.1739L171.782 23.1693L171.446 22.952ZM170.654 25.076V25.476H171.054V25.076H170.654ZM169.79 25.076H169.39V25.476H169.79V25.076ZM171.338 21.476L171.668 21.7015L171.338 21.476ZM172.382 16.292L172.099 16.5748L172.11 16.5857L172.121 16.5957L172.382 16.292ZM169.07 16.652L168.805 16.3523L168.799 16.3576L169.07 16.652ZM167.558 18.74L167.913 18.9244L167.918 18.9148L167.558 18.74ZM166.262 21.8L165.876 21.6948L165.862 21.7464V21.8H166.262ZM166.262 21.836L166.655 21.9072L166.662 21.8719V21.836H166.262ZM164.966 29V29.4H165.3L165.359 29.0712L164.966 29ZM160.646 29L160.252 28.9296L160.168 29.4H160.646V29ZM163.022 15.716L163.416 15.7864L163.509 15.2653L162.982 15.318L163.022 15.716ZM161.222 16.724L160.972 17.0363L161.284 17.2862L161.534 16.9739L161.222 16.724ZM160.989 16.5481C161.637 15.7709 162.426 15.396 163.382 15.396V14.596C162.178 14.596 161.167 15.0851 160.375 16.0359L160.989 16.5481ZM163.382 15.396C164.422 15.396 165.164 15.6553 165.667 16.1184L166.209 15.5296C165.512 14.8887 164.55 14.596 163.382 14.596V15.396ZM165.667 16.1184C166.166 16.5773 166.438 17.2395 166.438 18.164H167.238C167.238 17.0725 166.91 16.1747 166.209 15.5296L165.667 16.1184ZM166.438 18.164V18.38H167.238V18.164H166.438ZM167.199 18.5527C168.246 16.3646 169.541 15.396 171.05 15.396V14.596C169.102 14.596 167.59 15.8834 166.477 18.2073L167.199 18.5527ZM171.05 15.396C171.908 15.396 172.479 15.6181 172.841 15.9934C173.205 16.3715 173.422 16.9739 173.422 17.876H174.222C174.222 16.8581 173.977 16.0205 173.417 15.4386C172.854 14.8539 172.039 14.596 171.05 14.596V15.396ZM173.422 17.876C173.422 18.5773 173.188 19.347 172.686 20.1916L173.374 20.6004C173.927 19.669 174.222 18.7587 174.222 17.876H173.422ZM172.686 20.1916C172.16 21.0755 171.635 21.9232 171.11 22.7347L171.782 23.1693C172.313 22.3488 172.843 21.4925 173.374 20.6004L172.686 20.1916ZM171.113 22.7301C170.563 23.5556 170.254 24.3416 170.254 25.076H171.054C171.054 24.5624 171.273 23.9324 171.779 23.1739L171.113 22.7301ZM170.654 24.676H169.79V25.476H170.654V24.676ZM170.19 25.076C170.19 24.3176 170.642 23.2046 171.668 21.7015L171.007 21.2505C169.969 22.7714 169.39 24.0584 169.39 25.076H170.19ZM171.668 21.7015C172.192 20.9334 172.593 20.2425 172.864 19.6311C173.134 19.0236 173.286 18.4703 173.286 17.984H172.486C172.486 18.3137 172.38 18.7504 172.133 19.3069C171.888 19.8595 171.515 20.5066 171.007 21.2505L171.668 21.7015ZM173.286 17.984C173.286 17.1228 173.12 16.3979 172.642 15.9883L172.121 16.5957C172.316 16.7621 172.486 17.1652 172.486 17.984H173.286ZM172.665 16.0092C172.249 15.5932 171.646 15.424 170.942 15.424V16.224C171.533 16.224 171.891 16.3668 172.099 16.5748L172.665 16.0092ZM170.942 15.424C170.191 15.424 169.477 15.7577 168.805 16.3524L169.335 16.9516C169.911 16.4423 170.444 16.224 170.942 16.224V15.424ZM168.799 16.3576C168.157 16.9481 167.625 17.6866 167.198 18.5652L167.918 18.9148C168.307 18.1134 168.782 17.4599 169.341 16.9464L168.799 16.3576ZM167.203 18.5557C166.55 19.8138 166.103 20.8628 165.876 21.6948L166.648 21.9052C166.853 21.1532 167.27 20.1622 167.913 18.9243L167.203 18.5557ZM165.862 21.8V21.836H166.662V21.8H165.862ZM165.868 21.7648L164.572 28.9288L165.359 29.0712L166.655 21.9072L165.868 21.7648ZM164.966 28.6H160.646V29.4H164.966V28.6ZM161.04 29.0704L163.416 15.7864L162.628 15.6456L160.252 28.9296L161.04 29.0704ZM162.982 15.318C162.148 15.4014 161.452 15.7959 160.909 16.4741L161.534 16.9739C161.952 16.4521 162.456 16.1746 163.062 16.114L162.982 15.318ZM161.472 16.4117L160.932 15.9797L160.432 16.6043L160.972 17.0363L161.472 16.4117ZM179.747 22.052L179.816 21.658L179.427 21.5898L179.354 21.9787L179.747 22.052ZM178.451 29V29.4H178.784L178.845 29.0733L178.451 29ZM174.167 29L173.774 28.9292L173.689 29.4H174.167V29ZM178.235 6.392L178.629 6.46284L178.723 5.94125L178.196 5.99398L178.235 6.392ZM176.435 7.4L176.186 7.71235L176.498 7.96222L176.748 7.64988L176.435 7.4ZM175.895 6.968L175.588 6.71192L175.327 7.02542L175.646 7.28035L175.895 6.968ZM181.151 6.5L180.881 6.79437L181.151 6.5ZM181.979 9.776L182.373 9.84728L182.375 9.83379L182.377 9.82017L181.979 9.776ZM180.179 19.64L179.786 19.5677L180.55 19.7917L180.179 19.64ZM182.771 16.22L182.537 15.8959L182.771 16.22ZM189.035 15.752L188.753 16.0349L188.759 16.0413L189.035 15.752ZM189.143 19.496L189.433 19.7715L189.143 19.496ZM185.651 19.604L185.352 19.8697L185.36 19.8785L185.369 19.8868L185.651 19.604ZM185.939 15.824L186.179 16.144L187.36 15.2586L185.894 15.4266L185.939 15.824ZM180.431 20.936L180.065 20.7764L179.779 21.4333L180.488 21.332L180.431 20.936ZM184.283 21.62L184.054 21.9477L184.059 21.9512L184.283 21.62ZM185.723 23.492L185.339 23.6035L185.34 23.6069L185.723 23.492ZM186.191 25.688L185.795 25.7392L185.795 25.7409L186.191 25.688ZM186.659 27.524L186.292 27.6816L186.659 27.524ZM189.107 27.596L189.357 27.2837L189.021 27.0144L188.777 27.3701L189.107 27.596ZM189.647 28.028L190.005 28.2069L190.15 27.9177L189.897 27.7157L189.647 28.028ZM188.531 28.928L188.698 29.2916L188.531 28.928ZM183.923 28.64L183.699 28.971L183.704 28.9746L183.923 28.64ZM182.519 26.948L182.145 27.0899L182.147 27.0943L182.519 26.948ZM181.871 24.896L182.26 24.799L182.258 24.7939L181.871 24.896ZM179.354 21.9787L178.058 28.9267L178.845 29.0733L180.141 22.1253L179.354 21.9787ZM178.451 28.6H174.167V29.4H178.451V28.6ZM174.561 29.0708L178.629 6.46284L177.842 6.32116L173.774 28.9292L174.561 29.0708ZM178.196 5.99398C177.361 6.07741 176.666 6.47188 176.123 7.15012L176.748 7.64988C177.165 7.12812 177.669 6.85059 178.275 6.79001L178.196 5.99398ZM176.685 7.08765L176.145 6.65565L175.646 7.28035L176.186 7.71235L176.685 7.08765ZM176.203 7.22407C176.85 6.44693 177.64 6.072 178.595 6.072V5.272C177.391 5.272 176.381 5.76107 175.588 6.71192L176.203 7.22407ZM178.595 6.072C179.635 6.072 180.377 6.33129 180.881 6.79437L181.422 6.20563C180.726 5.56471 179.764 5.272 178.595 5.272V6.072ZM180.881 6.79437C181.379 7.25332 181.651 7.91546 181.651 8.84H182.451C182.451 7.74854 182.123 6.85067 181.422 6.20563L180.881 6.79437ZM181.651 8.84C181.651 9.00801 181.63 9.30091 181.582 9.73183L182.377 9.82017C182.425 9.38709 182.451 9.05599 182.451 8.84H181.651ZM181.586 9.70472C181.034 12.7523 180.434 16.04 179.786 19.5677L180.573 19.7123C181.221 16.184 181.821 12.8957 182.373 9.84728L181.586 9.70472ZM180.55 19.7917C181.125 18.387 181.946 17.3107 183.006 16.5441L182.537 15.8959C181.341 16.7613 180.434 17.965 179.809 19.4883L180.55 19.7917ZM183.006 16.5441C184.072 15.7725 185.192 15.396 186.371 15.396V14.596C185.007 14.596 183.726 15.0355 182.537 15.8959L183.006 16.5441ZM186.371 15.396C187.614 15.396 188.364 15.6465 188.753 16.0348L189.318 15.4692C188.699 14.8495 187.673 14.596 186.371 14.596V15.396ZM188.759 16.0413C189.204 16.4656 189.427 16.9949 189.427 17.66H190.227C190.227 16.7891 189.923 16.0464 189.312 15.4627L188.759 16.0413ZM189.427 17.66C189.427 18.3152 189.23 18.8242 188.853 19.2205L189.433 19.7715C189.969 19.2078 190.227 18.4928 190.227 17.66H189.427ZM188.853 19.2205C188.483 19.6108 187.993 19.816 187.343 19.816V20.616C188.182 20.616 188.892 20.3412 189.433 19.7715L188.853 19.2205ZM187.343 19.816C186.702 19.816 186.25 19.6365 185.934 19.3212L185.369 19.8868C185.869 20.3875 186.545 20.616 187.343 20.616V19.816ZM185.95 19.3383C185.654 19.0047 185.475 18.4901 185.475 17.732H184.675C184.675 18.6059 184.881 19.3393 185.352 19.8697L185.95 19.3383ZM185.475 17.732C185.475 16.9941 185.722 16.4872 186.179 16.144L185.699 15.504C185.005 16.0248 184.675 16.7899 184.675 17.732H185.475ZM185.894 15.4266C183.387 15.7139 181.46 17.57 180.065 20.7764L180.798 21.0956C182.139 18.014 183.884 16.4621 185.985 16.2214L185.894 15.4266ZM180.488 21.332C180.812 21.2857 181.08 21.264 181.295 21.264V20.464C181.031 20.464 180.723 20.4903 180.375 20.54L180.488 21.332ZM181.295 21.264C182.52 21.264 183.425 21.5075 184.054 21.9477L184.513 21.2923C183.702 20.7245 182.614 20.464 181.295 20.464V21.264ZM184.059 21.9512C184.739 22.4116 185.153 22.9631 185.339 23.6035L186.108 23.3805C185.862 22.5329 185.316 21.8364 184.508 21.2888L184.059 21.9512ZM185.34 23.6069C185.55 24.3061 185.702 25.0168 185.795 25.7392L186.588 25.6368C186.489 24.8712 186.329 24.1179 186.107 23.3771L185.34 23.6069ZM185.795 25.7409C185.894 26.486 186.058 27.1353 186.292 27.6816L187.027 27.3664C186.829 26.9047 186.681 26.33 186.588 25.6351L185.795 25.7409ZM186.292 27.6816C186.425 27.9916 186.62 28.2485 186.89 28.4254C187.159 28.6022 187.473 28.68 187.811 28.68V27.88C187.598 27.88 187.444 27.8318 187.329 27.7566C187.214 27.6815 187.11 27.5604 187.027 27.3664L186.292 27.6816ZM187.811 28.68C188.496 28.68 189.051 28.3867 189.438 27.8219L188.777 27.3701C188.54 27.7173 188.231 27.88 187.811 27.88V28.68ZM188.858 27.9083L189.398 28.3403L189.897 27.7157L189.357 27.2837L188.858 27.9083ZM189.29 27.8491C189.182 28.064 188.91 28.3145 188.365 28.5644L188.698 29.2916C189.305 29.0135 189.777 28.664 190.005 28.2069L189.29 27.8491ZM188.365 28.5644C187.859 28.7963 187.177 28.924 186.299 28.924V29.724C187.246 29.724 188.052 29.5877 188.698 29.2916L188.365 28.5644ZM186.299 28.924C185.484 28.924 184.769 28.7158 184.143 28.3054L183.704 28.9746C184.47 29.4762 185.339 29.724 186.299 29.724V28.924ZM184.148 28.309C183.534 27.8924 183.123 27.3895 182.892 26.8017L182.147 27.0943C182.444 27.8505 182.969 28.4756 183.699 28.971L184.148 28.309ZM182.893 26.8061C182.635 26.1237 182.423 25.4547 182.26 24.799L181.483 24.993C181.655 25.6813 181.876 26.3803 182.145 27.0899L182.893 26.8061ZM182.258 24.7939C181.797 23.0449 181.029 21.8702 179.816 21.658L179.678 22.446C180.386 22.5698 181.034 23.2911 181.485 24.9981L182.258 24.7939ZM193.706 15.716L194.105 15.7342L194.124 15.316H193.706V15.716ZM191.906 16.724L191.656 17.0363L191.946 17.2685L192.199 16.9962L191.906 16.724ZM191.366 16.292L191.008 16.1131L190.863 16.4023L191.116 16.6043L191.366 16.292ZM197.018 22.448L197.41 22.5264L197.018 22.448ZM199.862 27.02L199.553 26.7657L199.548 26.7712L199.862 27.02ZM201.59 23.636L201.969 23.7625L201.978 23.7355L201.983 23.7076L201.59 23.636ZM203.102 15.32V14.92H202.768L202.708 15.2484L203.102 15.32ZM206.99 15.104L207.059 15.4979L207.069 15.4961L207.08 15.4938L206.99 15.104ZM207.458 14.996L207.851 15.0658L207.957 14.4702L207.368 14.6062L207.458 14.996ZM205.046 28.604L204.652 28.5342L204.56 29.0546L205.085 29.002L205.046 28.604ZM206.846 27.596L207.095 27.2837L206.783 27.0338L206.533 27.3461L206.846 27.596ZM207.386 28.028L207.693 28.2841L207.954 27.9706L207.635 27.7157L207.386 28.028ZM202.166 28.532L201.901 28.8323L202.166 28.532ZM201.23 26.3L201.629 26.29L200.872 26.1211L201.23 26.3ZM193.454 28.136L193.167 28.4146L193.171 28.4188L193.454 28.136ZM192.95 20.504L193.341 20.5884L193.341 20.5875L192.95 20.504ZM193.706 15.316C192.967 15.316 192.268 15.7454 191.612 16.4518L192.199 16.9962C192.791 16.3586 193.292 16.116 193.706 16.116V15.316ZM192.155 16.4117L191.615 15.9797L191.116 16.6043L191.656 17.0363L192.155 16.4117ZM191.723 16.4709C191.831 16.256 192.103 16.0055 192.648 15.7556L192.315 15.0284C191.708 15.3065 191.236 15.656 191.008 16.1131L191.723 16.4709ZM192.648 15.7556C193.167 15.5179 193.745 15.396 194.39 15.396V14.596C193.642 14.596 192.948 14.7381 192.315 15.0284L192.648 15.7556ZM194.39 15.396C195.43 15.396 196.135 15.6312 196.579 16.0312C197.015 16.424 197.266 17.037 197.266 17.948H198.066C198.066 16.891 197.77 16.028 197.114 15.4368C196.466 14.8528 195.534 14.596 194.39 14.596V15.396ZM197.266 17.948C197.266 18.7432 197.058 20.2069 196.625 22.3696L197.41 22.5264C197.841 20.3691 198.066 18.8328 198.066 17.948H197.266ZM196.625 22.3696C196.195 24.5203 195.97 25.9769 195.97 26.696H196.77C196.77 26.0711 196.976 24.6957 197.41 22.5264L196.625 22.3696ZM195.97 26.696C195.97 27.269 196.106 27.7731 196.449 28.133C196.796 28.4966 197.287 28.644 197.846 28.644V27.844C197.42 27.844 197.173 27.7334 197.028 27.581C196.879 27.4249 196.77 27.155 196.77 26.696H195.97ZM197.846 28.644C198.715 28.644 199.49 28.1315 200.175 27.2688L199.548 26.7712C198.938 27.5405 198.369 27.844 197.846 27.844V28.644ZM200.17 27.2743C200.884 26.4077 201.48 25.2304 201.969 23.7625L201.21 23.5095C200.739 24.9216 200.183 26.0003 199.553 26.7657L200.17 27.2743ZM201.983 23.7076L203.495 15.3916L202.708 15.2484L201.196 23.5644L201.983 23.7076ZM203.102 15.72C204.881 15.72 206.206 15.6484 207.059 15.4979L206.92 14.7101C206.141 14.8476 204.874 14.92 203.102 14.92V15.72ZM207.08 15.4938L207.548 15.3858L207.368 14.6062L206.9 14.7142L207.08 15.4938ZM207.064 14.9262L204.652 28.5342L205.439 28.6738L207.851 15.0658L207.064 14.9262ZM205.085 29.002C205.92 28.9186 206.615 28.5241 207.158 27.8459L206.533 27.3461C206.116 27.8679 205.612 28.1454 205.006 28.206L205.085 29.002ZM206.596 27.9083L207.136 28.3403L207.635 27.7157L207.095 27.2837L206.596 27.9083ZM207.078 27.7719C206.431 28.5491 205.641 28.924 204.686 28.924V29.724C205.89 29.724 206.901 29.2349 207.693 28.2841L207.078 27.7719ZM204.686 28.924C203.668 28.924 202.935 28.6758 202.43 28.2317L201.901 28.8323C202.597 29.4442 203.543 29.724 204.686 29.724V28.924ZM202.43 28.2317C201.93 27.792 201.651 27.1629 201.629 26.29L200.83 26.31C200.856 27.3571 201.201 28.216 201.901 28.8323L202.43 28.2317ZM200.872 26.1211C200.391 27.0831 199.808 27.7799 199.133 28.2368C198.462 28.6917 197.678 28.924 196.766 28.924V29.724C197.822 29.724 198.765 29.4523 199.582 28.8992C200.395 28.3481 201.06 27.5329 201.587 26.4789L200.872 26.1211ZM196.766 28.924C195.426 28.924 194.435 28.5516 193.736 27.8532L193.171 28.4188C194.056 29.3044 195.273 29.724 196.766 29.724V28.924ZM193.741 27.8574C193.038 27.1333 192.666 26.1268 192.666 24.788H191.866C191.866 26.2812 192.285 27.5067 193.167 28.4146L193.741 27.8574ZM192.666 24.788C192.666 24.0935 192.883 22.7066 193.341 20.5884L192.559 20.4196C192.104 22.5254 191.866 23.9945 191.866 24.788H192.666ZM193.341 20.5875C193.798 18.4476 194.056 16.8248 194.105 15.7342L193.306 15.6978C193.26 16.7192 193.014 18.2884 192.558 20.4205L193.341 20.5875ZM215.99 20.072L215.598 20.152L215.6 20.1596L215.99 20.072ZM215.558 17.876L215.953 17.8102L215.823 17.0281L215.271 17.5978L215.558 17.876ZM210.626 20.612H210.226V21.0862L210.694 21.0063L210.626 20.612ZM210.626 19.748L210.54 19.3575L210.226 19.4271V19.748H210.626ZM215.486 16.796L215.776 17.0722L215.886 16.9563V16.796H215.486ZM216.242 13.736L215.905 13.5212L216.242 13.736ZM216.494 13.34V12.94H216.275L216.157 13.1252L216.494 13.34ZM217.358 13.34H217.758V12.94H217.358V13.34ZM217.862 16.256L217.488 16.3976L217.49 16.401L217.862 16.256ZM218.978 18.38L218.657 18.6178L218.662 18.6246L218.978 18.38ZM220.094 20.504L219.72 20.6456L219.722 20.649L220.094 20.504ZM218.654 27.632L218.392 27.3303L218.389 27.3327L218.654 27.632ZM209.942 28.1L209.676 28.3981L209.68 28.4015L209.942 28.1ZM209.366 22.988L209.628 23.2908L209.636 23.284L209.366 22.988ZM213.002 22.988L212.712 23.2635L212.72 23.2709L212.727 23.278L213.002 22.988ZM213.038 26.624L213.335 26.8924L213.038 26.624ZM210.302 27.236L210.412 26.8514L209.342 26.5457L209.973 27.4626L210.302 27.236ZM212.822 28.788C214.124 28.788 215.148 28.2991 215.827 27.2985C216.486 26.3256 216.786 24.9167 216.786 23.132H215.986C215.986 24.8513 215.693 26.0704 215.164 26.8495C214.655 27.6009 213.897 27.988 212.822 27.988V28.788ZM216.786 23.132C216.786 22.2295 216.649 21.1788 216.381 19.9844L215.6 20.1596C215.86 21.3172 215.986 22.3065 215.986 23.132H216.786ZM216.382 19.992C216.142 18.8132 216 18.0895 215.953 17.8102L215.164 17.9418C215.213 18.2385 215.359 18.9788 215.599 20.152L216.382 19.992ZM215.271 17.5978C213.858 19.0574 212.288 19.922 210.559 20.2177L210.694 21.0063C212.613 20.678 214.331 19.7186 215.846 18.1542L215.271 17.5978ZM211.026 20.612V19.748H210.226V20.612H211.026ZM210.713 20.1385C212.535 19.7336 214.222 18.6998 215.776 17.0722L215.197 16.5198C213.727 18.0602 212.174 18.9944 210.54 19.3575L210.713 20.1385ZM215.886 16.796V16.652H215.086V16.796H215.886ZM215.886 16.652C215.886 16.1155 215.965 15.5908 216.121 15.0765L215.356 14.8435C215.176 15.4332 215.086 16.0365 215.086 16.652H215.886ZM216.121 15.0765C216.286 14.5352 216.441 14.1685 216.58 13.9507L215.905 13.5212C215.708 13.8315 215.527 14.2808 215.356 14.8435L216.121 15.0765ZM216.58 13.9507L216.832 13.5547L216.157 13.1252L215.905 13.5212L216.58 13.9507ZM216.494 13.74H217.358V12.94H216.494V13.74ZM216.958 13.34C216.958 14.439 217.133 15.4595 217.488 16.3976L218.237 16.1144C217.919 15.2765 217.758 14.353 217.758 13.34H216.958ZM217.49 16.401C217.834 17.2873 218.222 18.0293 218.657 18.6178L219.3 18.1422C218.919 17.6267 218.563 16.9527 218.235 16.111L217.49 16.401ZM218.662 18.6246C219.038 19.1111 219.393 19.7803 219.72 20.6456L220.469 20.3624C220.124 19.4517 219.735 18.7049 219.295 18.1354L218.662 18.6246ZM219.722 20.649C220.037 21.4608 220.198 22.3708 220.198 23.384H220.998C220.998 22.2852 220.824 21.2752 220.467 20.359L219.722 20.649ZM220.198 23.384C220.198 24.9712 219.601 26.2775 218.392 27.3303L218.917 27.9337C220.3 26.7305 220.998 25.2048 220.998 23.384H220.198ZM218.389 27.3327C217.195 28.3918 215.755 28.924 214.046 28.924V29.724C215.938 29.724 217.57 29.1282 218.92 27.9313L218.389 27.3327ZM214.046 28.924C212.3 28.924 211.042 28.5277 210.205 27.7985L209.68 28.4015C210.715 29.3043 212.192 29.724 214.046 29.724V28.924ZM210.209 27.8019C209.367 27.0485 208.974 26.2157 208.974 25.292H208.174C208.174 26.4803 208.694 27.5195 209.676 28.3981L210.209 27.8019ZM208.974 25.292C208.974 24.2646 209.227 23.6372 209.628 23.2907L209.105 22.6853C208.45 23.2508 208.174 24.1594 208.174 25.292H208.974ZM209.636 23.284C210.089 22.8716 210.617 22.668 211.238 22.668V21.868C210.42 21.868 209.7 22.1444 209.097 22.692L209.636 23.284ZM211.238 22.668C211.859 22.668 212.339 22.8704 212.712 23.2635L213.292 22.7125C212.754 22.1456 212.057 21.868 211.238 21.868V22.668ZM212.727 23.278C213.117 23.6488 213.322 24.1387 213.322 24.788H214.122C214.122 23.9493 213.848 23.2392 213.278 22.698L212.727 23.278ZM213.322 24.788C213.322 25.4153 213.127 25.9298 212.742 26.3556L213.335 26.8924C213.862 26.3102 214.122 25.6007 214.122 24.788H213.322ZM212.742 26.3556C212.367 26.7704 211.889 26.98 211.274 26.98V27.78C212.1 27.78 212.798 27.4856 213.335 26.8924L212.742 26.3556ZM211.274 26.98C211.004 26.98 210.717 26.9384 210.412 26.8514L210.193 27.6206C210.56 27.7256 210.921 27.78 211.274 27.78V26.98ZM209.973 27.4626C210.593 28.3652 211.574 28.788 212.822 28.788V27.988C211.767 27.988 211.068 27.6428 210.632 27.0094L209.973 27.4626ZM236.192 28.604L235.793 28.5858L235.774 29.004H236.192V28.604ZM237.992 27.596L238.242 27.2837L237.952 27.0515L237.699 27.3238L237.992 27.596ZM238.532 28.028L238.89 28.2069L239.035 27.9177L238.782 27.7157L238.532 28.028ZM237.416 28.928L237.25 28.5644L237.416 28.928ZM232.88 21.872L232.488 21.7936L232.88 21.872ZM229.676 17.732L229.348 17.5035L229.345 17.5085L229.676 17.732ZM227.84 22.232L227.453 22.1338L227.449 22.1482L227.446 22.1628L227.84 22.232ZM226.652 29V29.4H226.988L227.046 29.0692L226.652 29ZM222.332 29L221.938 28.9304L221.855 29.4H222.332V29ZM226.328 6.392L226.722 6.46162L226.814 5.94142L226.289 5.99398L226.328 6.392ZM224.528 7.4L224.278 7.71235L224.591 7.96222L224.841 7.64988L224.528 7.4ZM223.988 6.968L223.681 6.71192L223.42 7.02542L223.738 7.28035L223.988 6.968ZM229.244 6.5L228.974 6.79437L229.244 6.5ZM230.072 9.776L230.466 9.8458L230.468 9.83304L230.47 9.82017L230.072 9.776ZM228.56 18.308L228.167 18.2382L228.926 18.4708L228.56 18.308ZM236.444 16.22L236.157 16.4986L236.162 16.5028L236.444 16.22ZM236.948 23.852L237.339 23.9364L237.34 23.9355L236.948 23.852ZM236.192 29.004C236.931 29.004 237.63 28.5746 238.285 27.8682L237.699 27.3238C237.107 27.9614 236.606 28.204 236.192 28.204V29.004ZM237.742 27.9083L238.282 28.3403L238.782 27.7157L238.242 27.2837L237.742 27.9083ZM238.175 27.8491C238.067 28.064 237.795 28.3145 237.25 28.5644L237.583 29.2916C238.19 29.0135 238.662 28.664 238.89 28.2069L238.175 27.8491ZM237.25 28.5644C236.731 28.8021 236.153 28.924 235.508 28.924V29.724C236.256 29.724 236.95 29.5819 237.583 29.2916L237.25 28.5644ZM235.508 28.924C234.468 28.924 233.763 28.6888 233.319 28.2888C232.883 27.896 232.632 27.283 232.632 26.372H231.832C231.832 27.429 232.128 28.292 232.784 28.8832C233.432 29.4672 234.364 29.724 235.508 29.724V28.924ZM232.632 26.372C232.632 25.5768 232.84 24.1131 233.273 21.9504L232.488 21.7936C232.057 23.9509 231.832 25.4872 231.832 26.372H232.632ZM233.273 21.9504C233.703 19.7997 233.928 18.3431 233.928 17.624H233.128C233.128 18.2489 232.922 19.6243 232.488 21.7936L233.273 21.9504ZM233.928 17.624C233.928 17.051 233.792 16.5469 233.449 16.187C233.102 15.8234 232.611 15.676 232.052 15.676V16.476C232.478 16.476 232.724 16.5866 232.87 16.739C233.019 16.8951 233.128 17.165 233.128 17.624H233.928ZM232.052 15.676C231.038 15.676 230.142 16.3624 229.348 17.5036L230.005 17.9604C230.747 16.8936 231.434 16.476 232.052 16.476V15.676ZM229.345 17.5085C228.566 18.6641 227.939 20.2121 227.453 22.1338L228.228 22.3302C228.702 20.4599 229.299 19.0079 230.008 17.9555L229.345 17.5085ZM227.446 22.1628L226.258 28.9308L227.046 29.0692L228.234 22.3012L227.446 22.1628ZM226.652 28.6H222.332V29.4H226.652V28.6ZM222.726 29.0696L226.722 6.46162L225.934 6.32238L221.938 28.9304L222.726 29.0696ZM226.289 5.99398C225.454 6.07741 224.759 6.47188 224.216 7.15012L224.841 7.64988C225.258 7.12812 225.762 6.85059 226.368 6.79001L226.289 5.99398ZM224.778 7.08765L224.238 6.65565L223.738 7.28035L224.278 7.71235L224.778 7.08765ZM224.296 7.22407C224.943 6.44693 225.733 6.072 226.688 6.072V5.272C225.484 5.272 224.473 5.76107 223.681 6.71192L224.296 7.22407ZM226.688 6.072C227.728 6.072 228.47 6.33129 228.974 6.79437L229.515 6.20563C228.819 5.56471 227.857 5.272 226.688 5.272V6.072ZM228.974 6.79437C229.472 7.25332 229.744 7.91546 229.744 8.84H230.544C230.544 7.74854 230.216 6.85067 229.515 6.20563L228.974 6.79437ZM229.744 8.84C229.744 9.00801 229.723 9.30091 229.675 9.73183L230.47 9.82017C230.518 9.38709 230.544 9.05599 230.544 8.84H229.744ZM229.678 9.7062L228.167 18.2382L228.954 18.3778L230.466 9.8458L229.678 9.7062ZM228.926 18.4708C229.397 17.4132 229.985 16.6485 230.676 16.1479C231.363 15.6502 232.176 15.396 233.132 15.396V14.596C232.025 14.596 231.044 14.8938 230.207 15.5001C229.374 16.1035 228.708 16.9948 228.195 18.1452L228.926 18.4708ZM233.132 15.396C234.468 15.396 235.458 15.7783 236.157 16.4986L236.731 15.9414C235.846 15.0297 234.628 14.596 233.132 14.596V15.396ZM236.162 16.5028C236.86 17.2013 237.232 18.1926 237.232 19.532H238.032C238.032 18.0394 237.613 16.8227 236.727 15.9372L236.162 16.5028ZM237.232 19.532C237.232 20.227 237.015 21.6261 236.557 23.7685L237.34 23.9355C237.794 21.8059 238.032 20.325 238.032 19.532H237.232ZM236.557 23.7676C236.1 25.8838 235.842 27.4948 235.793 28.5858L236.592 28.6222C236.638 27.6012 236.884 26.0442 237.339 23.9364L236.557 23.7676ZM249.487 26.552L249.885 26.5107L249.757 25.2743L249.14 26.3535L249.487 26.552ZM241.639 27.884L241.349 28.1598L241.356 28.1668L241.639 27.884ZM242.251 17.336L242.554 17.5971L242.251 17.336ZM250.963 17.48L250.586 17.6114L251.358 17.5458L250.963 17.48ZM251.359 15.32V14.92H251.031L250.967 15.2416L251.359 15.32ZM255.319 15.104L255.385 15.4986L255.397 15.4965L255.409 15.4938L255.319 15.104ZM255.787 14.996L256.181 15.0678L256.29 14.4695L255.697 14.6062L255.787 14.996ZM253.303 28.604L252.91 28.5322L252.814 29.0549L253.343 29.002L253.303 28.604ZM255.103 27.596L255.353 27.2837L255.041 27.0338L254.791 27.3461L255.103 27.596ZM255.643 28.028L255.951 28.2841L256.212 27.9706L255.893 27.7157L255.643 28.028ZM244.699 27.884L244.358 28.0926L244.365 28.1039L244.373 28.1147L244.699 27.884ZM247.759 27.56L247.472 27.2814L247.471 27.2828L247.759 27.56ZM249.667 24.464L250.041 24.6076L250.051 24.5813L250.057 24.5539L249.667 24.464ZM250.063 22.232L249.67 22.1611L249.669 22.1675L250.063 22.232ZM250.603 19.28L250.996 19.3537L251.006 19.3015L251.002 19.2485L250.603 19.28ZM249.847 16.904L249.511 17.1203L249.847 16.904ZM245.383 19.064L245.761 19.1944L245.762 19.1931L245.383 19.064ZM252.943 28.924C251.94 28.924 251.226 28.704 250.746 28.319C250.273 27.9401 249.973 27.3573 249.885 26.5107L249.089 26.5933C249.194 27.5947 249.565 28.3979 250.245 28.943C250.917 29.482 251.835 29.724 252.943 29.724V28.924ZM249.14 26.3535C248.129 28.123 246.91 28.924 245.491 28.924V29.724C247.289 29.724 248.734 28.677 249.835 26.7505L249.14 26.3535ZM245.491 28.924C243.968 28.924 242.793 28.4725 241.922 27.6012L241.356 28.1668C242.405 29.2155 243.798 29.724 245.491 29.724V28.924ZM241.929 27.6083C241.083 26.7184 240.635 25.4602 240.635 23.78H239.835C239.835 25.6038 240.324 27.0816 241.35 28.1597L241.929 27.6083ZM240.635 23.78C240.635 21.1079 241.291 19.0635 242.554 17.5971L241.948 17.0749C240.524 18.7285 239.835 20.9801 239.835 23.78H240.635ZM242.554 17.5971C243.819 16.129 245.447 15.396 247.471 15.396V14.596C245.224 14.596 243.371 15.423 241.948 17.0749L242.554 17.5971ZM247.471 15.396C248.283 15.396 248.926 15.5871 249.426 15.9429C249.927 16.2988 250.319 16.8437 250.586 17.6114L251.341 17.3486C251.032 16.4603 250.554 15.7632 249.89 15.2911C249.226 14.8189 248.411 14.596 247.471 14.596V15.396ZM251.358 17.5458C251.477 16.83 251.608 16.1143 251.752 15.3984L250.967 15.2416C250.822 15.9657 250.689 16.69 250.569 17.4142L251.358 17.5458ZM251.359 15.72C253.14 15.72 254.487 15.6482 255.385 15.4986L255.254 14.7094C254.424 14.8478 253.131 14.92 251.359 14.92V15.72ZM255.409 15.4938L255.877 15.3858L255.697 14.6062L255.229 14.7142L255.409 15.4938ZM255.394 14.9242L252.91 28.5322L253.697 28.6758L256.181 15.0678L255.394 14.9242ZM253.343 29.002C254.177 28.9186 254.873 28.5241 255.416 27.8459L254.791 27.3461C254.374 27.8679 253.869 28.1454 253.264 28.206L253.343 29.002ZM254.853 27.9083L255.393 28.3403L255.893 27.7157L255.353 27.2837L254.853 27.9083ZM255.336 27.7719C254.688 28.5491 253.899 28.924 252.943 28.924V29.724C254.148 29.724 255.158 29.2349 255.951 28.2841L255.336 27.7719ZM243.903 25.616C243.903 26.7034 244.032 27.5585 244.358 28.0926L245.041 27.6754C244.839 27.3455 244.703 26.6886 244.703 25.616H243.903ZM244.373 28.1147C244.748 28.6463 245.312 28.896 245.995 28.896V28.096C245.526 28.096 245.227 27.9377 245.026 27.6533L244.373 28.1147ZM245.995 28.896C246.725 28.896 247.41 28.5005 248.048 27.8372L247.471 27.2828C246.909 27.8675 246.418 28.096 245.995 28.096V28.896ZM248.046 27.8386C248.882 26.9777 249.545 25.8972 250.041 24.6076L249.294 24.3204C248.83 25.5268 248.221 26.5103 247.472 27.2814L248.046 27.8386ZM250.057 24.5539C250.133 24.2266 250.267 23.4683 250.458 22.2965L249.669 22.1675C249.476 23.3477 249.346 24.0774 249.278 24.3741L250.057 24.5539ZM250.457 22.3029C250.673 21.1033 250.853 20.1204 250.996 19.3537L250.21 19.2063C250.066 19.9756 249.886 20.9606 249.67 22.1611L250.457 22.3029ZM251.002 19.2485C250.926 18.2804 250.656 17.4228 250.184 16.6877L249.511 17.1203C249.902 17.7292 250.137 18.4556 250.205 19.3115L251.002 19.2485ZM250.184 16.6877C249.698 15.9318 249.044 15.496 248.227 15.496V16.296C248.706 16.296 249.133 16.5322 249.511 17.1203L250.184 16.6877ZM248.227 15.496C247.503 15.496 246.869 15.8273 246.337 16.4208C245.812 17.0053 245.373 17.8539 245.005 18.9349L245.762 19.1931C246.113 18.1621 246.509 17.4267 246.932 16.9552C247.347 16.4927 247.776 16.296 248.227 16.296V15.496ZM245.005 18.9336C244.27 21.0649 243.903 23.2931 243.903 25.616H244.703C244.703 23.3789 245.056 21.2391 245.761 19.1944L245.005 18.9336Z" fill="white" mask="url(#path-1-outside-1_46_218)"/>
</g>
<defs>
<filter id="filter0_d_46_218" x="0.746094" y="0.560059" width="259.541" height="41.0399" filterUnits="userSpaceOnUse" color-interpolation-filters="sRGB">
<feFlood flood-opacity="0" result="BackgroundImageFix"/>
<feColorMatrix in="SourceAlpha" type="matrix" values="0 0 0 0 0 0 0 0 0 0 0 0 0 0 0 0 0 0 127 0" result="hardAlpha"/>
<feOffset/>
<feGaussianBlur stdDeviation="2.25"/>
<feComposite in2="hardAlpha" operator="out"/>
<feColorMatrix type="matrix" values="0 0 0 0 0 0 0 0 0 0 0 0 0 0 0 0 0 0 0.35 0"/>
<feBlend mode="normal" in2="BackgroundImageFix" result="effect1_dropShadow_46_218"/>
<feBlend mode="normal" in="SourceGraphic" in2="effect1_dropShadow_46_218" result="shape"/>
</filter>
</defs>
</svg>
