<svg width="261" height="42" viewBox="0 0 261 42" fill="none" xmlns="http://www.w3.org/2000/svg">
<g filter="url(#filter0_d_106_55)">
<path d="M252.944 29.3241C250.832 29.3241 249.68 28.4001 249.488 26.5521C248.432 28.4001 247.1 29.3241 245.492 29.3241C243.884 29.3241 242.6 28.8441 241.64 27.8841C240.704 26.9001 240.236 25.5321 240.236 23.7801C240.236 21.0441 240.908 18.8961 242.252 17.3361C243.596 15.7761 245.336 14.9961 247.472 14.9961C249.224 14.9961 250.388 15.8241 250.964 17.4801C251.084 16.7601 251.216 16.0401 251.36 15.3201C253.136 15.3201 254.456 15.2481 255.32 15.1041L255.788 14.9961L253.304 28.6041C254.024 28.5321 254.624 28.1961 255.104 27.5961L255.644 28.0281C254.924 28.8921 254.024 29.3241 252.944 29.3241ZM244.304 25.6161C244.304 26.6961 244.436 27.4521 244.7 27.8841C244.988 28.2921 245.42 28.4961 245.996 28.4961C246.572 28.4961 247.16 28.1841 247.76 27.5601C248.552 26.7441 249.188 25.7121 249.668 24.4641C249.74 24.1521 249.872 23.4081 250.064 22.2321C250.28 21.0321 250.46 20.0481 250.604 19.2801C250.532 18.3681 250.28 17.5761 249.848 16.9041C249.416 16.2321 248.876 15.8961 248.228 15.8961C247.052 15.8961 246.104 16.9521 245.384 19.0641C244.664 21.1521 244.304 23.3361 244.304 25.6161Z" fill="white"/>
</g>
<g filter="url(#filter1_d_106_55)">
<path d="M236.192 28.6041C236.768 28.6041 237.368 28.2681 237.992 27.5961L238.532 28.0281C238.364 28.3641 237.992 28.6641 237.416 28.9281C236.84 29.1921 236.204 29.3241 235.508 29.3241C233.324 29.3241 232.232 28.3401 232.232 26.3721C232.232 25.5321 232.448 24.0321 232.88 21.8721C233.312 19.7121 233.528 18.2961 233.528 17.6241C233.528 16.5921 233.036 16.0761 232.052 16.0761C231.236 16.0761 230.444 16.6281 229.676 17.7321C228.932 18.8361 228.32 20.3361 227.84 22.2321L226.652 29.0001H222.332L226.328 6.39212C225.608 6.46412 225.008 6.80012 224.528 7.40012L223.988 6.96812C224.708 6.10412 225.608 5.67212 226.688 5.67212C227.792 5.67212 228.644 5.94812 229.244 6.50012C229.844 7.05212 230.144 7.83212 230.144 8.84012C230.144 9.03212 230.12 9.34412 230.072 9.77612L228.56 18.3081C229.544 16.1001 231.068 14.9961 233.132 14.9961C234.548 14.9961 235.652 15.4041 236.444 16.2201C237.236 17.0121 237.632 18.1161 237.632 19.5321C237.632 20.2761 237.404 21.7161 236.948 23.8521C236.492 25.9641 236.24 27.5481 236.192 28.6041Z" fill="white"/>
</g>
<g filter="url(#filter2_d_106_55)">
<path d="M212.822 28.3881C215.198 28.3881 216.386 26.6361 216.386 23.1321C216.386 22.2681 216.254 21.2481 215.99 20.0721C215.75 18.8961 215.606 18.1641 215.558 17.8761C214.094 19.3881 212.45 20.3001 210.626 20.6121V19.7481C212.354 19.3641 213.974 18.3801 215.486 16.7961V16.6521C215.486 16.0761 215.57 15.5121 215.738 14.9601C215.906 14.4081 216.074 14.0001 216.242 13.7361L216.494 13.3401H217.358C217.358 14.3961 217.526 15.3681 217.862 16.2561C218.198 17.1201 218.57 17.8281 218.978 18.3801C219.386 18.9081 219.758 19.6161 220.094 20.5041C220.43 21.3681 220.598 22.3281 220.598 23.3841C220.598 25.0881 219.95 26.5041 218.654 27.6321C217.382 28.7601 215.846 29.3241 214.046 29.3241C212.246 29.3241 210.878 28.9161 209.942 28.1001C209.03 27.2841 208.574 26.3481 208.574 25.2921C208.574 24.2121 208.838 23.4441 209.366 22.9881C209.894 22.5081 210.518 22.2681 211.238 22.2681C211.958 22.2681 212.546 22.5081 213.002 22.9881C213.482 23.4441 213.722 24.0441 213.722 24.7881C213.722 25.5081 213.494 26.1201 213.038 26.6241C212.582 27.1281 211.994 27.3801 211.274 27.3801C210.962 27.3801 210.638 27.3321 210.302 27.2361C210.83 28.0041 211.67 28.3881 212.822 28.3881Z" fill="white"/>
</g>
<g filter="url(#filter3_d_106_55)">
<path d="M193.705 15.7161C193.129 15.7161 192.529 16.0521 191.905 16.7241L191.365 16.2921C191.533 15.9561 191.905 15.6561 192.481 15.3921C193.057 15.1281 193.693 14.9961 194.389 14.9961C196.573 14.9961 197.665 15.9801 197.665 17.9481C197.665 18.7881 197.449 20.2881 197.017 22.4481C196.585 24.6081 196.369 26.0241 196.369 26.6961C196.369 27.7281 196.861 28.2441 197.845 28.2441C198.541 28.2441 199.213 27.8361 199.861 27.0201C200.533 26.2041 201.109 25.0761 201.589 23.6361L203.101 15.3201C204.877 15.3201 206.173 15.2481 206.989 15.1041L207.457 14.9961L205.045 28.6041C205.765 28.5321 206.365 28.1961 206.845 27.5961L207.385 28.0281C206.665 28.8921 205.765 29.3241 204.685 29.3241C203.605 29.3241 202.765 29.0601 202.165 28.5321C201.565 28.0041 201.253 27.2601 201.229 26.3001C200.221 28.3161 198.733 29.3241 196.765 29.3241C195.349 29.3241 194.245 28.9281 193.453 28.1361C192.661 27.3201 192.265 26.2041 192.265 24.7881C192.265 24.0441 192.493 22.6161 192.949 20.5041C193.405 18.3681 193.657 16.7721 193.705 15.7161Z" fill="white"/>
</g>
<g filter="url(#filter4_d_106_55)">
<path d="M179.748 22.0521L178.452 29.0001H174.168L178.236 6.39212C177.516 6.46412 176.916 6.80012 176.436 7.40012L175.896 6.96812C176.616 6.10412 177.516 5.67212 178.596 5.67212C179.7 5.67212 180.552 5.94812 181.152 6.50012C181.752 7.05212 182.052 7.83212 182.052 8.84012C182.052 9.03212 182.028 9.34412 181.98 9.77612C181.428 12.8241 180.828 16.1121 180.18 19.6401C180.78 18.1761 181.644 17.0361 182.772 16.2201C183.9 15.4041 185.1 14.9961 186.372 14.9961C187.644 14.9961 188.532 15.2481 189.036 15.7521C189.564 16.2561 189.828 16.8921 189.828 17.6601C189.828 18.4041 189.6 19.0161 189.144 19.4961C188.688 19.9761 188.088 20.2161 187.344 20.2161C186.624 20.2161 186.06 20.0121 185.652 19.6041C185.268 19.1721 185.076 18.5481 185.076 17.7321C185.076 16.8921 185.364 16.2561 185.94 15.8241C183.636 16.0881 181.8 17.7921 180.432 20.9361C180.768 20.8881 181.056 20.8641 181.296 20.8641C182.568 20.8641 183.564 21.1161 184.284 21.6201C185.028 22.1241 185.508 22.7481 185.724 23.4921C185.94 24.2121 186.096 24.9441 186.192 25.6881C186.288 26.4081 186.444 27.0201 186.66 27.5241C186.876 28.0281 187.26 28.2801 187.812 28.2801C188.364 28.2801 188.796 28.0521 189.108 27.5961L189.648 28.0281C189.48 28.3641 189.108 28.6641 188.532 28.9281C187.956 29.1921 187.212 29.3241 186.3 29.3241C185.412 29.3241 184.62 29.0961 183.924 28.6401C183.252 28.1841 182.784 27.6201 182.52 26.9481C182.256 26.2521 182.04 25.5681 181.872 24.8961C181.416 23.1681 180.708 22.2201 179.748 22.0521Z" fill="white"/>
</g>
<g filter="url(#filter5_d_106_55)">
<path d="M160.682 16.2921C161.402 15.4281 162.302 14.9961 163.382 14.9961C164.486 14.9961 165.338 15.2721 165.938 15.8241C166.538 16.3761 166.838 17.1561 166.838 18.1641V18.3801C167.918 16.1241 169.322 14.9961 171.05 14.9961C172.898 14.9961 173.822 15.9561 173.822 17.8761C173.822 18.6681 173.558 19.5081 173.03 20.3961C172.502 21.2841 171.974 22.1361 171.446 22.9521C170.918 23.7441 170.654 24.4521 170.654 25.0761H169.79C169.79 24.1881 170.306 22.9881 171.338 21.4761C172.37 19.9641 172.886 18.8001 172.886 17.9841C172.886 17.1441 172.718 16.5801 172.382 16.2921C172.07 15.9801 171.59 15.8241 170.942 15.8241C170.318 15.8241 169.694 16.1001 169.07 16.6521C168.47 17.2041 167.966 17.9001 167.558 18.7401C166.91 19.9881 166.478 21.0081 166.262 21.8001V21.8361L164.966 29.0001H160.646L163.022 15.7161C162.302 15.7881 161.702 16.1241 161.222 16.7241L160.682 16.2921Z" fill="white"/>
</g>
<g filter="url(#filter6_d_106_55)">
<path d="M155.737 29.3241C153.625 29.3241 152.473 28.4001 152.281 26.5521C151.225 28.4001 149.893 29.3241 148.285 29.3241C146.677 29.3241 145.393 28.8441 144.433 27.8841C143.497 26.9001 143.029 25.5321 143.029 23.7801C143.029 21.0441 143.701 18.8961 145.045 17.3361C146.389 15.7761 148.129 14.9961 150.265 14.9961C152.017 14.9961 153.181 15.8241 153.757 17.4801C153.877 16.7601 154.009 16.0401 154.153 15.3201C155.929 15.3201 157.249 15.2481 158.113 15.1041L158.581 14.9961L156.097 28.6041C156.817 28.5321 157.417 28.1961 157.897 27.5961L158.437 28.0281C157.717 28.8921 156.817 29.3241 155.737 29.3241ZM147.097 25.6161C147.097 26.6961 147.229 27.4521 147.493 27.8841C147.781 28.2921 148.213 28.4961 148.789 28.4961C149.365 28.4961 149.953 28.1841 150.553 27.5601C151.345 26.7441 151.981 25.7121 152.461 24.4641C152.533 24.1521 152.665 23.4081 152.857 22.2321C153.073 21.0321 153.253 20.0481 153.397 19.2801C153.325 18.3681 153.073 17.5761 152.641 16.9041C152.209 16.2321 151.669 15.8961 151.021 15.8961C149.845 15.8961 148.897 16.9521 148.177 19.0641C147.457 21.1521 147.097 23.3361 147.097 25.6161Z" fill="white"/>
</g>
<g filter="url(#filter7_d_106_55)">
<path d="M126.453 9.09206C124.557 8.27606 122.493 7.86806 120.261 7.86806C118.053 7.86806 116.253 8.57606 114.861 9.99206C113.493 11.4081 112.809 13.2561 112.809 15.5361H112.017C112.017 13.0401 112.785 11.0121 114.321 9.45206C115.857 7.86806 117.825 7.07606 120.225 7.07606C122.145 7.07606 124.221 7.44806 126.453 8.19206C129.021 9.12806 131.805 9.59606 134.805 9.59606V10.3521C133.005 10.3521 131.565 10.2681 130.485 10.1001C130.461 10.1961 130.377 10.5921 130.233 11.2881C129.345 15.2241 128.625 18.3561 128.073 20.6841H137.721L141.393 5.06006H142.149L137.109 26.6961C136.893 27.5841 136.785 28.1841 136.785 28.4961C136.785 29.5041 137.253 30.0081 138.189 30.0081C138.861 30.0081 139.449 29.6601 139.953 28.9641L140.457 29.3961C140.289 29.7081 139.989 29.9961 139.557 30.2601C139.125 30.5481 138.597 30.6921 137.973 30.6921C137.373 30.6921 136.893 30.4881 136.533 30.0801C136.197 29.6721 136.029 29.1801 136.029 28.6041L136.461 26.2281L137.577 21.3321H127.893C127.629 22.3401 127.365 23.4321 127.101 24.6081C126.837 25.7841 126.513 26.9361 126.129 28.0641C125.769 29.1921 125.265 30.3561 124.617 31.5561C123.969 32.7561 123.237 33.7281 122.421 34.4721C121.629 35.2401 120.621 35.8641 119.397 36.3441C118.197 36.8481 116.889 37.1001 115.473 37.1001C114.081 37.1001 112.761 36.8361 111.513 36.3081C110.265 35.7801 109.221 35.0481 108.381 34.1121C106.941 32.4561 106.221 30.4521 106.221 28.1001C106.221 27.7161 106.233 27.3321 106.257 26.9481L107.049 27.0561C107.025 27.3921 107.013 27.7281 107.013 28.0641C107.013 30.2961 107.685 32.1561 109.029 33.6441C110.397 35.1561 112.233 35.9121 114.537 35.9121C116.841 35.9121 118.461 35.3001 119.397 34.0761C120.333 32.8521 121.221 30.5001 122.061 27.0201C122.925 23.5401 124.389 17.5641 126.453 9.09206Z" fill="white"/>
</g>
<g filter="url(#filter8_d_106_55)">
<path d="M95.2685 29.3241C93.1565 29.3241 92.0045 28.4001 91.8125 26.5521C90.7565 28.4001 89.4245 29.3241 87.8165 29.3241C86.2085 29.3241 84.9245 28.8441 83.9645 27.8841C83.0285 26.9001 82.5605 25.5321 82.5605 23.7801C82.5605 21.0441 83.2325 18.8961 84.5765 17.3361C85.9205 15.7761 87.6605 14.9961 89.7965 14.9961C91.5485 14.9961 92.7125 15.8241 93.2885 17.4801C93.4085 16.7601 93.5405 16.0401 93.6845 15.3201C95.4605 15.3201 96.7805 15.2481 97.6445 15.1041L98.1125 14.9961L95.6285 28.6041C96.3485 28.5321 96.9486 28.1961 97.4286 27.5961L97.9685 28.0281C97.2485 28.8921 96.3485 29.3241 95.2685 29.3241ZM86.6285 25.6161C86.6285 26.6961 86.7605 27.4521 87.0245 27.8841C87.3125 28.2921 87.7445 28.4961 88.3205 28.4961C88.8965 28.4961 89.4845 28.1841 90.0845 27.5601C90.8765 26.7441 91.5125 25.7121 91.9925 24.4641C92.0645 24.1521 92.1965 23.4081 92.3885 22.2321C92.6045 21.0321 92.7845 20.0481 92.9285 19.2801C92.8565 18.3681 92.6045 17.5761 92.1725 16.9041C91.7405 16.2321 91.2005 15.8961 90.5525 15.8961C89.3765 15.8961 88.4285 16.9521 87.7085 19.0641C86.9885 21.1521 86.6285 23.3361 86.6285 25.6161Z" fill="white"/>
</g>
<g filter="url(#filter9_d_106_55)">
<path d="M78.5271 28.6041C79.1031 28.6041 79.7031 28.2681 80.3271 27.5961L80.8671 28.0281C80.6991 28.3641 80.3271 28.6641 79.7511 28.9281C79.1751 29.1921 78.5391 29.3241 77.8431 29.3241C75.6591 29.3241 74.5671 28.3401 74.5671 26.3721C74.5671 25.5321 74.7831 24.0321 75.2151 21.8721C75.6471 19.7121 75.8631 18.2961 75.8631 17.6241C75.8631 16.5921 75.3711 16.0761 74.3871 16.0761C73.5951 16.0761 72.8271 16.5921 72.0831 17.6241C71.3631 18.6561 70.7631 20.0721 70.2831 21.8721L69.0591 28.6041C69.8031 28.5321 70.4151 28.1961 70.8951 27.5961L71.4351 28.0281C70.7151 28.8921 69.8151 29.3241 68.7351 29.3241C67.6551 29.3241 66.8031 29.0481 66.1791 28.4961C65.5791 27.9441 65.2791 27.2241 65.2791 26.3361C65.2791 26.0001 65.4711 24.6801 65.8551 22.3761L67.0431 15.7161C66.3231 15.7881 65.7231 16.1241 65.2431 16.7241L64.7031 16.2921C65.4231 15.4281 66.3231 14.9961 67.4031 14.9961C68.5071 14.9961 69.3591 15.2721 69.9591 15.8241C70.5591 16.3761 70.8591 17.1561 70.8591 18.1641V18.3801C71.8431 16.1241 73.3791 14.9961 75.4671 14.9961C76.8831 14.9961 77.9871 15.4041 78.7791 16.2201C79.5711 17.0121 79.9671 18.1161 79.9671 19.5321C79.9671 20.2761 79.7391 21.7161 79.2831 23.8521C78.8271 25.9641 78.5751 27.5481 78.5271 28.6041Z" fill="white"/>
</g>
<g filter="url(#filter10_d_106_55)">
<path d="M60.5623 28.6041C61.1383 28.6041 61.7383 28.2681 62.3623 27.5961L62.9023 28.0281C62.7343 28.3641 62.3623 28.6641 61.7863 28.9281C61.2103 29.1921 60.5743 29.3241 59.8783 29.3241C57.6943 29.3241 56.6023 28.3401 56.6023 26.3721C56.6023 25.5321 56.8183 24.0321 57.2503 21.8721C57.6823 19.7121 57.8983 18.2961 57.8983 17.6241C57.8983 16.5921 57.4063 16.0761 56.4223 16.0761C55.6303 16.0761 54.8623 16.5921 54.1183 17.6241C53.3983 18.6561 52.7983 20.0721 52.3183 21.8721L51.0943 28.6041C51.8383 28.5321 52.4503 28.1961 52.9303 27.5961L53.4703 28.0281C52.7503 28.8921 51.8503 29.3241 50.7703 29.3241C49.6903 29.3241 48.8383 29.0481 48.2143 28.4961C47.6143 27.9441 47.3143 27.2241 47.3143 26.3361C47.3143 26.0001 47.5063 24.6801 47.8903 22.3761L49.0783 15.7161C48.3583 15.7881 47.7583 16.1241 47.2783 16.7241L46.7383 16.2921C47.4583 15.4281 48.3583 14.9961 49.4383 14.9961C50.5423 14.9961 51.3943 15.2721 51.9943 15.8241C52.5943 16.3761 52.8943 17.1561 52.8943 18.1641V18.3801C53.8783 16.1241 55.4143 14.9961 57.5023 14.9961C58.9183 14.9961 60.0223 15.4041 60.8143 16.2201C61.6063 17.0121 62.0023 18.1161 62.0023 19.5321C62.0023 20.2761 61.7743 21.7161 61.3183 23.8521C60.8623 25.9641 60.6103 27.5481 60.5623 28.6041Z" fill="white"/>
</g>
<g filter="url(#filter11_d_106_55)">
<path d="M40.8861 30.4761C41.5101 30.4761 42.1101 30.1401 42.6861 29.4681L43.2261 29.9001C43.1541 29.9961 43.0581 30.1161 42.9381 30.2601C42.8181 30.4041 42.5181 30.5961 42.0381 30.8361C41.5821 31.0761 41.0781 31.1961 40.5261 31.1961C37.8381 31.1961 36.4941 30.0321 36.4941 27.7041C36.4941 26.9841 36.5781 25.9161 36.7461 24.5001C35.5941 24.8601 34.5621 25.0401 33.6501 25.0401C32.0421 25.0401 30.4341 24.5481 28.8261 23.5641C27.8901 25.1721 27.0141 26.5521 26.1981 27.7041C25.3821 28.8321 24.4341 29.9361 23.3541 31.0161C21.1221 33.2001 18.4221 34.2921 15.2541 34.2921C12.1101 34.2921 9.60209 33.2841 7.73009 31.2681C6.07409 29.4201 5.24609 27.1761 5.24609 24.5361C5.24609 21.8721 6.09809 19.5081 7.80209 17.4441C9.50609 15.3801 11.7141 14.3481 14.4261 14.3481C17.1381 14.3481 19.2021 15.1521 20.6181 16.7601C20.9541 17.1921 21.1941 17.5161 21.3381 17.7321C22.6341 18.2841 24.1101 19.1961 25.7661 20.4681C27.0141 21.4761 27.9381 22.1721 28.5381 22.5561C28.8741 21.9321 29.3301 21.0921 29.9061 20.0361C30.5061 18.9801 30.9621 18.1761 31.2741 17.6241C31.5861 17.0721 32.0541 16.2921 32.6781 15.2841C33.3021 14.2761 33.8061 13.5201 34.1901 13.0161C34.5981 12.4881 35.1261 11.8401 35.7741 11.0721C36.4461 10.2801 37.0581 9.69206 37.6101 9.30806C39.2661 8.13206 40.6581 7.44806 41.7861 7.25606C42.4101 7.16006 42.9381 7.11206 43.3701 7.11206C43.8021 7.11206 44.2821 7.12406 44.8101 7.14806C45.3381 7.14806 46.0821 7.28006 47.0421 7.54406L46.8621 8.22806C46.2861 8.06006 45.6741 7.94006 45.0261 7.86806C42.6261 17.3001 41.2461 24.8361 40.8861 30.4761ZM22.4901 21.9081C22.4901 23.6841 21.9741 25.2561 20.9421 26.6241C19.9341 27.9921 18.5661 28.6761 16.8381 28.6761C15.7101 28.6761 14.7861 28.3401 14.0661 27.6681C13.3701 26.9961 13.0221 26.3001 13.0221 25.5801C13.0221 24.8601 13.1301 24.2721 13.3461 23.8161C13.5621 23.3361 13.8021 22.9761 14.0661 22.7361C14.3541 22.4961 14.6661 22.3041 15.0021 22.1601C15.4581 21.9201 15.8181 21.8001 16.0821 21.8001L16.1541 22.5201C15.5541 22.5201 15.0021 22.8081 14.4981 23.3841C13.9941 23.9601 13.7421 24.6081 13.7421 25.3281C13.7421 26.0481 14.0181 26.6721 14.5701 27.2001C15.1461 27.7041 15.9021 27.9561 16.8381 27.9561C18.3741 27.9561 19.5861 27.3561 20.4741 26.1561C21.3621 24.9561 21.8061 23.6241 21.8061 22.1601C21.8061 20.6961 21.5061 19.4241 20.9061 18.3441C19.5861 17.8401 18.2781 17.5881 16.9821 17.5881C14.4861 17.5881 12.7221 18.7521 11.6901 21.0801L11.0061 20.8641C11.2701 20.2641 11.6901 19.6161 12.2661 18.9201C13.3941 17.5521 14.9661 16.8681 16.9821 16.8681C18.0621 16.8681 19.1301 17.0241 20.1861 17.3361L20.1141 17.2281C18.7941 15.7881 16.8861 15.0681 14.3901 15.0681C11.9181 15.0681 9.89009 16.0281 8.30609 17.9481C6.74609 19.8681 5.96609 22.0761 5.96609 24.5721C5.96609 27.0441 6.73409 29.1081 8.27009 30.7641C9.99809 32.6361 12.4101 33.5721 15.5061 33.5721C18.3381 33.5721 20.8101 32.5041 22.9221 30.3681C23.9781 29.3361 24.8901 28.2681 25.6581 27.1641C26.4501 26.0601 27.3021 24.7281 28.2141 23.1681C27.3981 22.6401 26.4021 21.9201 25.2261 21.0081C24.0741 20.0721 22.9581 19.3281 21.8781 18.7761C22.2861 19.7841 22.4901 20.8281 22.4901 21.9081ZM29.1861 22.9521C30.7221 23.8641 32.1261 24.3201 33.3981 24.3201C34.6941 24.3201 35.8461 24.1161 36.8541 23.7081C37.4301 19.6521 38.5101 14.6121 40.0941 8.58806C38.1741 9.50006 36.4101 11.1201 34.8021 13.4481C33.6261 15.1281 32.2101 17.4681 30.5541 20.4681L29.1861 22.9521Z" fill="white"/>
</g>
<defs>
<filter id="filter0_d_106_55" x="235.736" y="10.4961" width="24.5527" height="23.328" filterUnits="userSpaceOnUse" color-interpolation-filters="sRGB">
<feFlood flood-opacity="0" result="BackgroundImageFix"/>
<feColorMatrix in="SourceAlpha" type="matrix" values="0 0 0 0 0 0 0 0 0 0 0 0 0 0 0 0 0 0 127 0" result="hardAlpha"/>
<feOffset/>
<feGaussianBlur stdDeviation="2.25"/>
<feComposite in2="hardAlpha" operator="out"/>
<feColorMatrix type="matrix" values="0 0 0 0 0 0 0 0 0 0 0 0 0 0 0 0 0 0 0.35 0"/>
<feBlend mode="normal" in2="BackgroundImageFix" result="effect1_dropShadow_106_55"/>
<feBlend mode="normal" in="SourceGraphic" in2="effect1_dropShadow_106_55" result="shape"/>
</filter>
<filter id="filter1_d_106_55" x="217.832" y="1.17212" width="25.1992" height="32.652" filterUnits="userSpaceOnUse" color-interpolation-filters="sRGB">
<feFlood flood-opacity="0" result="BackgroundImageFix"/>
<feColorMatrix in="SourceAlpha" type="matrix" values="0 0 0 0 0 0 0 0 0 0 0 0 0 0 0 0 0 0 127 0" result="hardAlpha"/>
<feOffset/>
<feGaussianBlur stdDeviation="2.25"/>
<feComposite in2="hardAlpha" operator="out"/>
<feColorMatrix type="matrix" values="0 0 0 0 0 0 0 0 0 0 0 0 0 0 0 0 0 0 0.35 0"/>
<feBlend mode="normal" in2="BackgroundImageFix" result="effect1_dropShadow_106_55"/>
<feBlend mode="normal" in="SourceGraphic" in2="effect1_dropShadow_106_55" result="shape"/>
</filter>
<filter id="filter2_d_106_55" x="204.074" y="8.84009" width="21.0234" height="24.984" filterUnits="userSpaceOnUse" color-interpolation-filters="sRGB">
<feFlood flood-opacity="0" result="BackgroundImageFix"/>
<feColorMatrix in="SourceAlpha" type="matrix" values="0 0 0 0 0 0 0 0 0 0 0 0 0 0 0 0 0 0 127 0" result="hardAlpha"/>
<feOffset/>
<feGaussianBlur stdDeviation="2.25"/>
<feComposite in2="hardAlpha" operator="out"/>
<feColorMatrix type="matrix" values="0 0 0 0 0 0 0 0 0 0 0 0 0 0 0 0 0 0 0.35 0"/>
<feBlend mode="normal" in2="BackgroundImageFix" result="effect1_dropShadow_106_55"/>
<feBlend mode="normal" in="SourceGraphic" in2="effect1_dropShadow_106_55" result="shape"/>
</filter>
<filter id="filter3_d_106_55" x="186.865" y="10.4961" width="25.0918" height="23.328" filterUnits="userSpaceOnUse" color-interpolation-filters="sRGB">
<feFlood flood-opacity="0" result="BackgroundImageFix"/>
<feColorMatrix in="SourceAlpha" type="matrix" values="0 0 0 0 0 0 0 0 0 0 0 0 0 0 0 0 0 0 127 0" result="hardAlpha"/>
<feOffset/>
<feGaussianBlur stdDeviation="2.25"/>
<feComposite in2="hardAlpha" operator="out"/>
<feColorMatrix type="matrix" values="0 0 0 0 0 0 0 0 0 0 0 0 0 0 0 0 0 0 0.35 0"/>
<feBlend mode="normal" in2="BackgroundImageFix" result="effect1_dropShadow_106_55"/>
<feBlend mode="normal" in="SourceGraphic" in2="effect1_dropShadow_106_55" result="shape"/>
</filter>
<filter id="filter4_d_106_55" x="169.668" y="1.17212" width="24.6602" height="32.652" filterUnits="userSpaceOnUse" color-interpolation-filters="sRGB">
<feFlood flood-opacity="0" result="BackgroundImageFix"/>
<feColorMatrix in="SourceAlpha" type="matrix" values="0 0 0 0 0 0 0 0 0 0 0 0 0 0 0 0 0 0 127 0" result="hardAlpha"/>
<feOffset/>
<feGaussianBlur stdDeviation="2.25"/>
<feComposite in2="hardAlpha" operator="out"/>
<feColorMatrix type="matrix" values="0 0 0 0 0 0 0 0 0 0 0 0 0 0 0 0 0 0 0.35 0"/>
<feBlend mode="normal" in2="BackgroundImageFix" result="effect1_dropShadow_106_55"/>
<feBlend mode="normal" in="SourceGraphic" in2="effect1_dropShadow_106_55" result="shape"/>
</filter>
<filter id="filter5_d_106_55" x="156.146" y="10.4961" width="22.1758" height="23.004" filterUnits="userSpaceOnUse" color-interpolation-filters="sRGB">
<feFlood flood-opacity="0" result="BackgroundImageFix"/>
<feColorMatrix in="SourceAlpha" type="matrix" values="0 0 0 0 0 0 0 0 0 0 0 0 0 0 0 0 0 0 127 0" result="hardAlpha"/>
<feOffset/>
<feGaussianBlur stdDeviation="2.25"/>
<feComposite in2="hardAlpha" operator="out"/>
<feColorMatrix type="matrix" values="0 0 0 0 0 0 0 0 0 0 0 0 0 0 0 0 0 0 0.35 0"/>
<feBlend mode="normal" in2="BackgroundImageFix" result="effect1_dropShadow_106_55"/>
<feBlend mode="normal" in="SourceGraphic" in2="effect1_dropShadow_106_55" result="shape"/>
</filter>
<filter id="filter6_d_106_55" x="138.529" y="10.4961" width="24.5527" height="23.328" filterUnits="userSpaceOnUse" color-interpolation-filters="sRGB">
<feFlood flood-opacity="0" result="BackgroundImageFix"/>
<feColorMatrix in="SourceAlpha" type="matrix" values="0 0 0 0 0 0 0 0 0 0 0 0 0 0 0 0 0 0 127 0" result="hardAlpha"/>
<feOffset/>
<feGaussianBlur stdDeviation="2.25"/>
<feComposite in2="hardAlpha" operator="out"/>
<feColorMatrix type="matrix" values="0 0 0 0 0 0 0 0 0 0 0 0 0 0 0 0 0 0 0.35 0"/>
<feBlend mode="normal" in2="BackgroundImageFix" result="effect1_dropShadow_106_55"/>
<feBlend mode="normal" in="SourceGraphic" in2="effect1_dropShadow_106_55" result="shape"/>
</filter>
<filter id="filter7_d_106_55" x="101.721" y="0.560059" width="44.9277" height="41.04" filterUnits="userSpaceOnUse" color-interpolation-filters="sRGB">
<feFlood flood-opacity="0" result="BackgroundImageFix"/>
<feColorMatrix in="SourceAlpha" type="matrix" values="0 0 0 0 0 0 0 0 0 0 0 0 0 0 0 0 0 0 127 0" result="hardAlpha"/>
<feOffset/>
<feGaussianBlur stdDeviation="2.25"/>
<feComposite in2="hardAlpha" operator="out"/>
<feColorMatrix type="matrix" values="0 0 0 0 0 0 0 0 0 0 0 0 0 0 0 0 0 0 0.35 0"/>
<feBlend mode="normal" in2="BackgroundImageFix" result="effect1_dropShadow_106_55"/>
<feBlend mode="normal" in="SourceGraphic" in2="effect1_dropShadow_106_55" result="shape"/>
</filter>
<filter id="filter8_d_106_55" x="78.0605" y="10.4961" width="24.5527" height="23.328" filterUnits="userSpaceOnUse" color-interpolation-filters="sRGB">
<feFlood flood-opacity="0" result="BackgroundImageFix"/>
<feColorMatrix in="SourceAlpha" type="matrix" values="0 0 0 0 0 0 0 0 0 0 0 0 0 0 0 0 0 0 127 0" result="hardAlpha"/>
<feOffset/>
<feGaussianBlur stdDeviation="2.25"/>
<feComposite in2="hardAlpha" operator="out"/>
<feColorMatrix type="matrix" values="0 0 0 0 0 0 0 0 0 0 0 0 0 0 0 0 0 0 0.35 0"/>
<feBlend mode="normal" in2="BackgroundImageFix" result="effect1_dropShadow_106_55"/>
<feBlend mode="normal" in="SourceGraphic" in2="effect1_dropShadow_106_55" result="shape"/>
</filter>
<filter id="filter9_d_106_55" x="60.2031" y="10.4961" width="25.1641" height="23.328" filterUnits="userSpaceOnUse" color-interpolation-filters="sRGB">
<feFlood flood-opacity="0" result="BackgroundImageFix"/>
<feColorMatrix in="SourceAlpha" type="matrix" values="0 0 0 0 0 0 0 0 0 0 0 0 0 0 0 0 0 0 127 0" result="hardAlpha"/>
<feOffset/>
<feGaussianBlur stdDeviation="2.25"/>
<feComposite in2="hardAlpha" operator="out"/>
<feColorMatrix type="matrix" values="0 0 0 0 0 0 0 0 0 0 0 0 0 0 0 0 0 0 0.35 0"/>
<feBlend mode="normal" in2="BackgroundImageFix" result="effect1_dropShadow_106_55"/>
<feBlend mode="normal" in="SourceGraphic" in2="effect1_dropShadow_106_55" result="shape"/>
</filter>
<filter id="filter10_d_106_55" x="42.2383" y="10.4961" width="25.1641" height="23.328" filterUnits="userSpaceOnUse" color-interpolation-filters="sRGB">
<feFlood flood-opacity="0" result="BackgroundImageFix"/>
<feColorMatrix in="SourceAlpha" type="matrix" values="0 0 0 0 0 0 0 0 0 0 0 0 0 0 0 0 0 0 127 0" result="hardAlpha"/>
<feOffset/>
<feGaussianBlur stdDeviation="2.25"/>
<feComposite in2="hardAlpha" operator="out"/>
<feColorMatrix type="matrix" values="0 0 0 0 0 0 0 0 0 0 0 0 0 0 0 0 0 0 0.35 0"/>
<feBlend mode="normal" in2="BackgroundImageFix" result="effect1_dropShadow_106_55"/>
<feBlend mode="normal" in="SourceGraphic" in2="effect1_dropShadow_106_55" result="shape"/>
</filter>
<filter id="filter11_d_106_55" x="0.746094" y="2.61206" width="50.7969" height="36.1801" filterUnits="userSpaceOnUse" color-interpolation-filters="sRGB">
<feFlood flood-opacity="0" result="BackgroundImageFix"/>
<feColorMatrix in="SourceAlpha" type="matrix" values="0 0 0 0 0 0 0 0 0 0 0 0 0 0 0 0 0 0 127 0" result="hardAlpha"/>
<feOffset/>
<feGaussianBlur stdDeviation="2.25"/>
<feComposite in2="hardAlpha" operator="out"/>
<feColorMatrix type="matrix" values="0 0 0 0 0 0 0 0 0 0 0 0 0 0 0 0 0 0 0.35 0"/>
<feBlend mode="normal" in2="BackgroundImageFix" result="effect1_dropShadow_106_55"/>
<feBlend mode="normal" in="SourceGraphic" in2="effect1_dropShadow_106_55" result="shape"/>
</filter>
</defs>
</svg>
