<svg width="26" height="26" viewBox="0 0 26 26" fill="none" xmlns="http://www.w3.org/2000/svg">
<path d="M25.6666 13.0004C25.6666 19.3137 20.9868 24.533 14.9074 25.38C14.339 25.4588 13.7574 25.5 13.1671 25.5C12.4856 25.5 11.8165 25.4457 11.1648 25.3406C5.2124 24.3824 0.666626 19.2218 0.666626 13.0004C0.666626 6.09682 6.26345 0.5 13.1662 0.5C20.0689 0.5 25.6666 6.09682 25.6666 13.0004Z" fill="#1877F2"/>
<path d="M14.9074 10.5368V13.2599H18.276L17.7426 16.928H14.9074V25.3793C14.339 25.4581 13.7574 25.4993 13.1671 25.4993C12.4856 25.4993 11.8165 25.445 11.1648 25.3399V16.928H8.05811V13.2599H11.1648V9.92804C11.1648 7.86099 12.8404 6.18457 14.9083 6.18457V6.18632C14.9144 6.18632 14.9197 6.18457 14.9258 6.18457H18.2769V9.35698H16.0872C15.4364 9.35698 14.9083 9.88513 14.9083 10.5359L14.9074 10.5368Z" fill="white"/>
</svg>
