<svg width="42" height="42" viewBox="0 0 42 42" fill="none" xmlns="http://www.w3.org/2000/svg">
<path fill-rule="evenodd" clip-rule="evenodd" d="M23.9245 41.7984C34.1379 40.3755 41.9999 31.6071 41.9999 21.0007C41.9999 9.40266 32.5958 0 20.9992 0C9.40264 0 0 9.40266 0 21.0007C0 31.4525 7.63689 40.1224 17.6369 41.7322C18.7317 41.9088 19.8559 42 21.0007 42C21.9925 42 22.9695 41.9308 23.9245 41.7984ZM23.9246 21.4364V16.8616L23.9261 16.8601C23.9261 15.7668 24.8134 14.8795 25.9067 14.8795H29.5853V9.54987H23.9555C23.9504 9.54987 23.9456 9.55061 23.9408 9.55134C23.936 9.55208 23.9312 9.55282 23.9261 9.55282V9.54987C20.452 9.54987 17.6371 12.3663 17.6371 15.8389V21.4364H12.4178V27.5989H17.6371V41.7308C18.7318 41.9074 19.856 41.9986 21.0008 41.9986C21.9926 41.9986 22.9696 41.9294 23.9246 41.797V27.5989H28.6877L29.5839 21.4364H23.9246Z" fill="#00D7E4"/>
</svg>
