<svg width="43" height="42" viewBox="0 0 43 42" fill="none" xmlns="http://www.w3.org/2000/svg">
<path fill-rule="evenodd" clip-rule="evenodd" d="M24.2624 41.7984C34.4758 40.3755 42.3378 31.6071 42.3378 21.0007C42.3378 9.40266 32.9337 0 21.3371 0C9.74053 0 0.337891 9.40266 0.337891 21.0007C0.337891 31.4525 7.97478 40.1224 17.9748 41.7322C19.0696 41.9088 20.1938 42 21.3386 42C22.3304 42 23.3074 41.9308 24.2624 41.7984ZM24.2625 21.4364V16.8616L24.264 16.8601C24.264 15.7668 25.1513 14.8795 26.2446 14.8795H29.9232V9.54987H24.2934C24.2883 9.54987 24.2835 9.55061 24.2787 9.55134C24.2739 9.55208 24.2691 9.55282 24.264 9.55282V9.54987C20.7899 9.54987 17.975 12.3663 17.975 15.8389V21.4364H12.7557V27.5989H17.975V41.7308C19.0697 41.9074 20.1939 41.9986 21.3387 41.9986C22.3305 41.9986 23.3075 41.9294 24.2625 41.797V27.5989H29.0256L29.9218 21.4364H24.2625Z" fill="white"/>
</svg>
