<svg width="43" height="42" viewBox="0 0 43 42" fill="none" xmlns="http://www.w3.org/2000/svg">
<path fill-rule="evenodd" clip-rule="evenodd" d="M21.29 0H21.3857C32.9572 0 42.3378 9.38061 42.3378 20.9522V21.0478C42.3378 32.6194 32.9572 42 21.3857 42H21.29C9.71849 42 0.337891 32.6194 0.337891 21.0478V20.9522C0.337891 9.38061 9.71849 0 21.29 0ZM14.8407 8.54479H27.8366C31.427 8.54479 34.3479 11.4656 34.3479 15.056V26.9454C34.3479 30.5358 31.427 33.4567 27.8366 33.4567H14.8407C11.2503 33.4567 8.32948 30.5358 8.32948 26.9454V15.056C8.32948 11.4656 11.2503 8.54479 14.8407 8.54479ZM14.8407 10.8417C12.5173 10.8417 10.6264 12.7326 10.6264 15.056V26.9454C10.6264 29.2689 12.5173 31.1597 14.8407 31.1597H27.8366C30.1601 31.1597 32.0509 29.2689 32.0509 26.9454V15.056C32.0509 12.7326 30.1601 10.8417 27.8366 10.8417H14.8407ZM21.3387 27.0558C24.6774 27.0558 27.3952 24.3395 27.3952 20.9993C27.3952 17.659 24.6789 14.9427 21.3387 14.9427C17.9985 14.9427 15.2821 17.659 15.2821 20.9993C15.2821 24.3395 17.9985 27.0558 21.3387 27.0558ZM21.3387 17.2411C23.412 17.2411 25.0983 18.9274 25.0983 21.0007C25.0983 23.074 23.412 24.7603 21.3387 24.7603C19.2654 24.7603 17.5791 23.074 17.5791 21.0007C17.5791 18.9274 19.2654 17.2411 21.3387 17.2411ZM29.5877 14.2894C29.5877 15.1899 28.8549 15.9212 27.9558 15.9212C27.0553 15.9212 26.324 15.1899 26.324 14.2894C26.324 13.3889 27.0553 12.6575 27.9558 12.6575C28.8563 12.6575 29.5877 13.3889 29.5877 14.2894Z" fill="white"/>
</svg>
