<svg width="42" height="42" viewBox="0 0 42 42" fill="none" xmlns="http://www.w3.org/2000/svg">
<path fill-rule="evenodd" clip-rule="evenodd" d="M20.9521 0H21.0478C32.6193 0 41.9999 9.38061 41.9999 20.9522V21.0478C41.9999 32.6194 32.6193 42 21.0478 42H20.9521C9.3806 42 0 32.6194 0 21.0478V20.9522C0 9.38061 9.3806 0 20.9521 0ZM14.5028 8.54479H27.4988C31.0891 8.54479 34.01 11.4656 34.01 15.056V26.9454C34.01 30.5358 31.0891 33.4567 27.4988 33.4567H14.5028C10.9124 33.4567 7.99159 30.5358 7.99159 26.9454V15.056C7.99159 11.4656 10.9124 8.54479 14.5028 8.54479ZM14.5028 10.8417C12.1794 10.8417 10.2885 12.7326 10.2885 15.056V26.9454C10.2885 29.2689 12.1794 31.1597 14.5028 31.1597H27.4988C29.8222 31.1597 31.713 29.2689 31.713 26.9454V15.056C31.713 12.7326 29.8222 10.8417 27.4988 10.8417H14.5028ZM21.0008 27.0558C24.3395 27.0558 27.0573 24.3395 27.0573 20.9993C27.0573 17.659 24.341 14.9427 21.0008 14.9427C17.6606 14.9427 14.9443 17.659 14.9443 20.9993C14.9443 24.3395 17.6606 27.0558 21.0008 27.0558ZM21.0008 17.2411C23.0741 17.2411 24.7604 18.9274 24.7604 21.0007C24.7604 23.074 23.0741 24.7603 21.0008 24.7603C18.9275 24.7603 17.2412 23.074 17.2412 21.0007C17.2412 18.9274 18.9275 17.2411 21.0008 17.2411ZM29.2498 14.2894C29.2498 15.1899 28.517 15.9212 27.6179 15.9212C26.7174 15.9212 25.9861 15.1899 25.9861 14.2894C25.9861 13.3889 26.7174 12.6575 27.6179 12.6575C28.5185 12.6575 29.2498 13.3889 29.2498 14.2894Z" fill="#00D7E4"/>
</svg>
