<svg width="26" height="26" viewBox="0 0 26 26" fill="none" xmlns="http://www.w3.org/2000/svg">
<path d="M13.1951 0.5H13.1382C6.25032 0.5 0.666626 6.0837 0.666626 12.9715V13.0285C0.666626 19.9163 6.25032 25.5 13.1382 25.5H13.1951C20.0829 25.5 25.6666 19.9163 25.6666 13.0285V12.9715C25.6666 6.0837 20.0829 0.5 13.1951 0.5Z" fill="url(#paint0_linear_2235_404)"/>
<path d="M17.4125 4.8623H8.9216C6.57582 4.8623 4.66748 6.77065 4.66748 9.11642V16.8844C4.66748 19.2302 6.57582 21.1385 8.9216 21.1385H17.4125C19.7583 21.1385 21.6666 19.2302 21.6666 16.8844V9.11642C21.6666 6.77065 19.7583 4.8623 17.4125 4.8623ZM6.1682 9.11642C6.1682 7.5984 7.40358 6.36302 8.9216 6.36302H17.4125C18.9306 6.36302 20.1659 7.5984 20.1659 9.11642V16.8844C20.1659 18.4024 18.9306 19.6378 17.4125 19.6378H8.9216C7.40358 19.6378 6.1682 18.4024 6.1682 16.8844V9.11642Z" fill="white"/>
<path d="M13.1673 16.9561C15.3486 16.9561 17.1243 15.1814 17.1243 12.999C17.1243 10.8167 15.3496 9.04199 13.1673 9.04199C10.9849 9.04199 9.21021 10.8167 9.21021 12.999C9.21021 15.1814 10.9849 16.9561 13.1673 16.9561ZM13.1673 10.5437C14.5218 10.5437 15.6236 11.6454 15.6236 13C15.6236 14.3546 14.5218 15.4563 13.1673 15.4563C11.8127 15.4563 10.7109 14.3546 10.7109 13C10.7109 11.6454 11.8127 10.5437 13.1673 10.5437Z" fill="white"/>
<path d="M17.4902 9.68278C18.0776 9.68278 18.5564 9.20483 18.5564 8.61629C18.5564 8.02775 18.0786 7.5498 17.4902 7.5498C16.9019 7.5498 16.4241 8.02775 16.4241 8.61629C16.4241 9.20483 16.9019 9.68278 17.4902 9.68278Z" fill="white"/>
<defs>
<linearGradient id="paint0_linear_2235_404" x1="4.31901" y1="21.8476" x2="22.0142" y2="4.15326" gradientUnits="userSpaceOnUse">
<stop stop-color="#FAAD4F"/>
<stop offset="0.35" stop-color="#DD2A7B"/>
<stop offset="0.62" stop-color="#9537B0"/>
<stop offset="1" stop-color="#515BD4"/>
</linearGradient>
</defs>
</svg>
