<svg width="42" height="42" viewBox="0 0 42 42" fill="none" xmlns="http://www.w3.org/2000/svg">
<path fill-rule="evenodd" clip-rule="evenodd" d="M20.9522 0H21.0478C32.6194 0 42 9.38061 42 20.9522V21.0478C42 32.6194 32.6194 42 21.0478 42H20.9522C9.3806 42 0 32.6194 0 21.0478V20.9522C0 9.38061 9.3806 0 20.9522 0ZM8.12989 20.2003C8.0725 20.2268 8.01361 20.2547 7.95476 20.2842L7.95185 20.2827C7.70905 20.4063 7.47803 20.5579 7.35884 20.7977C7.16902 21.1803 7.34999 21.6629 7.66488 21.9499C7.97977 22.2368 8.40062 22.3737 8.80821 22.5002C9.57485 22.74 10.3444 22.9725 11.1155 23.1991C12.0352 23.4699 12.9916 23.7348 13.9422 23.5994C15.0046 23.4493 15.9286 22.8195 16.8101 22.2074C18.1609 21.2693 19.5113 20.3309 20.8617 19.3925C22.2122 18.454 23.5626 17.5156 24.9134 16.5776C25.1282 16.4289 25.399 16.273 25.6344 16.3877C26.0302 16.5805 25.8036 17.1838 25.5152 17.5178C24.5801 18.6018 23.4976 19.5471 22.4161 20.4917C21.1339 21.6115 19.8529 22.7303 18.8201 24.0776C18.5905 24.3763 18.3654 24.7118 18.3625 25.0885C18.3566 25.7139 18.9363 26.1641 19.4572 26.5085C20.5538 27.2346 21.6508 27.9608 22.7477 28.6869C23.8425 29.4116 24.9373 30.1363 26.0317 30.8611C26.56 31.2098 27.0985 31.5644 27.7092 31.7336C28.3198 31.9014 29.0232 31.8572 29.5176 31.4614C30.1018 30.9935 30.2548 30.1812 30.3666 29.4411C31.0902 24.6876 31.8126 19.9329 32.5348 15.1791L32.8269 13.2565C32.9446 12.4825 33.0226 11.579 32.4664 11.0287C32.3502 10.9124 32.2104 10.8197 32.0588 10.7535C31.6203 10.5637 31.1156 10.599 30.658 10.6858C30.5412 10.7079 30.4261 10.7386 30.3112 10.7692C30.1888 10.8019 30.0666 10.8345 29.9429 10.8565C29.7361 10.8927 29.5278 10.9923 29.3274 11.0881C29.2512 11.1245 29.1761 11.1604 29.1027 11.192C28.5035 11.4482 27.9039 11.7047 27.3044 11.9612C26.7054 12.2175 26.1065 12.4738 25.5079 12.7297C24.9087 12.9858 24.3091 13.2424 23.7096 13.4989C23.1106 13.7552 22.5117 14.0114 21.9131 14.2674C21.3139 14.5235 20.7144 14.78 20.1148 15.0366C19.5159 15.2928 18.9169 15.5491 18.3183 15.805C17.7191 16.0612 17.1195 16.3178 16.5199 16.5743C15.921 16.8306 15.322 17.0868 14.7235 17.3427C14.1246 17.6002 13.5257 17.8563 12.9268 18.1123C12.7767 18.1763 12.6269 18.2404 12.4772 18.3044C12.3275 18.3684 12.1778 18.4324 12.0278 18.4963L11.579 18.6891C11.54 18.706 11.501 18.7226 11.462 18.7391C11.423 18.7557 11.384 18.7722 11.345 18.7892C11.3281 18.7959 11.3068 18.8074 11.284 18.8196C11.2375 18.8446 11.1844 18.873 11.1479 18.873L11.0945 18.8959C10.1028 19.3209 9.10996 19.7464 8.12989 20.2003Z" fill="#00D7E4"/>
</svg>
