<svg width="26" height="26" viewBox="0 0 26 26" fill="none" xmlns="http://www.w3.org/2000/svg">
<path d="M13.1951 0.496094H13.1382C6.25031 0.496094 0.666626 6.08144 0.666626 12.9713V13.0283C0.666626 19.9181 6.25031 25.5035 13.1382 25.5035H13.1951C20.0829 25.5035 25.6666 19.9181 25.6666 13.0283V12.9713C25.6666 6.08144 20.0829 0.496094 13.1951 0.496094Z" fill="#00B0F2"/>
<path d="M5.40154 12.5732C5.43657 12.5557 5.47162 12.5391 5.50578 12.5233C6.09962 12.2482 6.70135 11.9906 7.3022 11.733C7.3346 11.733 7.3889 11.6953 7.41955 11.6831C7.46597 11.6629 7.5124 11.6437 7.55882 11.6235L7.82597 11.5087C8.00465 11.4325 8.18244 11.3563 8.36111 11.2801C8.71759 11.1276 9.07407 10.9752 9.43055 10.8218C10.1435 10.517 10.8574 10.2112 11.5703 9.90629C12.2833 9.6014 12.9971 9.29563 13.7101 8.99074C14.423 8.68584 15.1369 8.38007 15.8498 8.07518C16.5628 7.77029 17.2766 7.46452 17.9896 7.15962C18.1481 7.09129 18.3198 6.98966 18.4897 6.95987C18.6325 6.93446 18.7717 6.8854 18.9154 6.85824C19.1878 6.80654 19.4882 6.78552 19.7492 6.89854C19.8394 6.93796 19.9226 6.99316 19.9918 7.06237C20.3229 7.39005 20.2765 7.92799 20.2064 8.38883C19.7185 11.6007 19.2307 14.8135 18.7419 18.0254C18.6754 18.4661 18.5843 18.9497 18.2366 19.2283C17.9423 19.464 17.5236 19.4903 17.1601 19.3904C16.7966 19.2896 16.4761 19.0785 16.1616 18.8708C14.8575 18.007 13.5524 17.1431 12.2482 16.2793C11.9382 16.0742 11.5931 15.8061 11.5966 15.4338C11.5984 15.2095 11.7323 15.0097 11.869 14.8319C13.0024 13.353 14.6376 12.3367 15.8542 10.9261C16.0259 10.7272 16.1608 10.368 15.9252 10.2532C15.785 10.1849 15.6238 10.2778 15.496 10.3663C13.8879 11.4833 12.2807 12.6013 10.6726 13.7183C10.1479 14.0828 9.59786 14.4578 8.96548 14.5472C8.39966 14.6278 7.83035 14.4701 7.28293 14.3088C6.82397 14.1739 6.36588 14.0355 5.90955 13.8927C5.66693 13.8173 5.41643 13.7359 5.22899 13.565C5.04156 13.3942 4.93384 13.1068 5.04683 12.879C5.11777 12.7362 5.25529 12.6459 5.39981 12.5724L5.40154 12.5732Z" fill="#FEFFFC"/>
</svg>
