<svg width="43" height="42" viewBox="0 0 43 42" fill="none" xmlns="http://www.w3.org/2000/svg">
<path fill-rule="evenodd" clip-rule="evenodd" d="M21.2901 0H21.3857C32.9573 0 42.3379 9.38061 42.3379 20.9522V21.0478C42.3379 32.6194 32.9573 42 21.3857 42H21.2901C9.71849 42 0.337891 32.6194 0.337891 21.0478V20.9522C0.337891 9.38061 9.71849 0 21.2901 0ZM8.46778 20.2003C8.41039 20.2268 8.35151 20.2547 8.29265 20.2842L8.28974 20.2827C8.04695 20.4063 7.81592 20.5579 7.69673 20.7977C7.50691 21.1803 7.68788 21.6629 8.00277 21.9499C8.31767 22.2368 8.73851 22.3737 9.1461 22.5002C9.91274 22.74 10.6823 22.9725 11.4534 23.1991C12.3731 23.4699 13.3295 23.7348 14.2801 23.5994C15.3425 23.4493 16.2665 22.8195 17.1479 22.2074C18.4988 21.2693 19.8492 20.3309 21.1996 19.3925C22.55 18.454 23.9005 17.5156 25.2513 16.5776C25.4661 16.4289 25.7369 16.273 25.9723 16.3877C26.3681 16.5805 26.1415 17.1838 25.8531 17.5178C24.918 18.6018 23.8355 19.5471 22.754 20.4917C21.4718 21.6115 20.1908 22.7303 19.158 24.0776C18.9284 24.3763 18.7033 24.7118 18.7003 25.0885C18.6945 25.7139 19.2742 26.1641 19.7951 26.5085C20.8917 27.2346 21.9886 27.9608 23.0856 28.6869C24.1804 29.4116 25.2752 30.1363 26.3696 30.8611C26.8979 31.2098 27.4364 31.5644 28.0471 31.7336C28.6577 31.9014 29.3611 31.8572 29.8555 31.4614C30.4397 30.9935 30.5927 30.1812 30.7045 29.4411C31.4281 24.6876 32.1505 19.9329 32.8727 15.1791L33.1648 13.2565C33.2825 12.4825 33.3605 11.579 32.8043 11.0287C32.6881 10.9124 32.5483 10.8197 32.3967 10.7535C31.9582 10.5637 31.4535 10.599 30.9959 10.6858C30.8791 10.7079 30.764 10.7386 30.6491 10.7692C30.5267 10.8019 30.4045 10.8345 30.2808 10.8565C30.074 10.8927 29.8656 10.9923 29.6653 11.0881C29.589 11.1245 29.514 11.1604 29.4406 11.192C28.8414 11.4482 28.2418 11.7047 27.6423 11.9612C27.0433 12.2175 26.4443 12.4738 25.8458 12.7297C25.2466 12.9858 24.647 13.2424 24.0475 13.4989C23.4485 13.7552 22.8496 14.0114 22.251 14.2674C21.6518 14.5235 21.0523 14.78 20.4527 15.0366C19.8538 15.2928 19.2548 15.5491 18.6562 15.805C18.057 16.0612 17.4574 16.3178 16.8578 16.5743C16.2588 16.8306 15.6599 17.0868 15.0614 17.3427C14.4625 17.6002 13.8636 17.8563 13.2647 18.1123C13.1146 18.1763 12.9648 18.2404 12.8151 18.3044C12.6654 18.3684 12.5157 18.4324 12.3657 18.4963L11.9169 18.6891C11.8779 18.706 11.8389 18.7226 11.7999 18.7391C11.7609 18.7557 11.7219 18.7722 11.6829 18.7892C11.666 18.7959 11.6447 18.8074 11.6219 18.8196C11.5753 18.8446 11.5223 18.873 11.4858 18.873L11.4324 18.8959C10.4407 19.3209 9.44785 19.7464 8.46778 20.2003Z" fill="white"/>
</svg>
