<svg width="32" height="32" viewBox="0 0 32 32" fill="none" xmlns="http://www.w3.org/2000/svg">
<rect width="32" height="32" rx="5" fill="#00D7E4"/>
<path d="M18.774 16.738C19.086 16.738 19.386 16.57 19.674 16.234L19.944 16.45C19.908 16.498 19.86 16.558 19.8 16.63C19.74 16.702 19.59 16.798 19.35 16.918C19.122 17.038 18.87 17.098 18.594 17.098C17.25 17.098 16.578 16.516 16.578 15.352C16.578 14.992 16.62 14.458 16.704 13.75C16.128 13.93 15.612 14.02 15.156 14.02C14.352 14.02 13.548 13.774 12.744 13.282C12.276 14.086 11.838 14.776 11.43 15.352C11.022 15.916 10.548 16.468 10.008 17.008C8.892 18.1 7.542 18.646 5.958 18.646C4.386 18.646 3.132 18.142 2.196 17.134C1.368 16.21 0.954 15.088 0.954 13.768C0.954 12.436 1.38 11.254 2.232 10.222C3.084 9.19 4.188 8.674 5.544 8.674C6.9 8.674 7.932 9.076 8.64 9.88C8.808 10.096 8.928 10.258 9 10.366C9.648 10.642 10.386 11.098 11.214 11.734C11.838 12.238 12.3 12.586 12.6 12.778C12.768 12.466 12.996 12.046 13.284 11.518C13.584 10.99 13.812 10.588 13.968 10.312C14.124 10.036 14.358 9.646 14.67 9.142C14.982 8.638 15.234 8.26 15.426 8.008C15.63 7.744 15.894 7.42 16.218 7.036C16.554 6.64 16.86 6.346 17.136 6.154C17.964 5.566 18.66 5.224 19.224 5.128C19.536 5.08 19.8 5.056 20.016 5.056C20.232 5.056 20.472 5.062 20.736 5.074C21 5.074 21.372 5.14 21.852 5.272L21.762 5.614C21.474 5.53 21.168 5.47 20.844 5.434C19.644 10.15 18.954 13.918 18.774 16.738ZM9.576 12.454C9.576 13.342 9.318 14.128 8.802 14.812C8.298 15.496 7.614 15.838 6.75 15.838C6.186 15.838 5.724 15.67 5.364 15.334C5.016 14.998 4.842 14.65 4.842 14.29C4.842 13.93 4.896 13.636 5.004 13.408C5.112 13.168 5.232 12.988 5.364 12.868C5.508 12.748 5.664 12.652 5.832 12.58C6.06 12.46 6.24 12.4 6.372 12.4L6.408 12.76C6.108 12.76 5.832 12.904 5.58 13.192C5.328 13.48 5.202 13.804 5.202 14.164C5.202 14.524 5.34 14.836 5.616 15.1C5.904 15.352 6.282 15.478 6.75 15.478C7.518 15.478 8.124 15.178 8.568 14.578C9.012 13.978 9.234 13.312 9.234 12.58C9.234 11.848 9.084 11.212 8.784 10.672C8.124 10.42 7.47 10.294 6.822 10.294C5.574 10.294 4.692 10.876 4.176 12.04L3.834 11.932C3.966 11.632 4.176 11.308 4.464 10.96C5.028 10.276 5.814 9.934 6.822 9.934C7.362 9.934 7.896 10.012 8.424 10.168L8.388 10.114C7.728 9.394 6.774 9.034 5.526 9.034C4.29 9.034 3.276 9.514 2.484 10.474C1.704 11.434 1.314 12.538 1.314 13.786C1.314 15.022 1.698 16.054 2.466 16.882C3.33 17.818 4.536 18.286 6.084 18.286C7.5 18.286 8.736 17.752 9.792 16.684C10.32 16.168 10.776 15.634 11.16 15.082C11.556 14.53 11.982 13.864 12.438 13.084C12.03 12.82 11.532 12.46 10.944 12.004C10.368 11.536 9.81 11.164 9.27 10.888C9.474 11.392 9.576 11.914 9.576 12.454ZM12.924 12.976C13.692 13.432 14.394 13.66 15.03 13.66C15.678 13.66 16.254 13.558 16.758 13.354C17.046 11.326 17.586 8.806 18.378 5.794C17.418 6.25 16.536 7.06 15.732 8.224C15.144 9.064 14.436 10.234 13.608 11.734L12.924 12.976Z" fill="white"/>
<path d="M21.458 14.046C20.51 13.638 19.478 13.434 18.362 13.434C17.258 13.434 16.358 13.788 15.662 14.496C14.978 15.204 14.636 16.128 14.636 17.268H14.24C14.24 16.02 14.624 15.006 15.392 14.226C16.16 13.434 17.144 13.038 18.344 13.038C19.304 13.038 20.342 13.224 21.458 13.596C22.742 14.064 24.134 14.298 25.634 14.298V14.676C24.734 14.676 24.014 14.634 23.474 14.55C23.462 14.598 23.42 14.796 23.348 15.144C22.904 17.112 22.544 18.678 22.268 19.842H27.092L28.928 12.03H29.306L26.786 22.848C26.678 23.292 26.624 23.592 26.624 23.748C26.624 24.252 26.858 24.504 27.326 24.504C27.662 24.504 27.956 24.33 28.208 23.982L28.46 24.198C28.376 24.354 28.226 24.498 28.01 24.63C27.794 24.774 27.53 24.846 27.218 24.846C26.918 24.846 26.678 24.744 26.498 24.54C26.33 24.336 26.246 24.09 26.246 23.802L26.462 22.614L27.02 20.166H22.178C22.046 20.67 21.914 21.216 21.782 21.804C21.65 22.392 21.488 22.968 21.296 23.532C21.116 24.096 20.864 24.678 20.54 25.278C20.216 25.878 19.85 26.364 19.442 26.736C19.046 27.12 18.542 27.432 17.93 27.672C17.33 27.924 16.676 28.05 15.968 28.05C15.272 28.05 14.612 27.918 13.988 27.654C13.364 27.39 12.842 27.024 12.422 26.556C11.702 25.728 11.342 24.726 11.342 23.55C11.342 23.358 11.348 23.166 11.36 22.974L11.756 23.028C11.744 23.196 11.738 23.364 11.738 23.532C11.738 24.648 12.074 25.578 12.746 26.322C13.43 27.078 14.348 27.456 15.5 27.456C16.652 27.456 17.462 27.15 17.93 26.538C18.398 25.926 18.842 24.75 19.262 23.01C19.694 21.27 20.426 18.282 21.458 14.046Z" fill="white"/>
</svg>
